<svg width="16" height="16" viewBox="0 0 16 16" fill="none" xmlns="http://www.w3.org/2000/svg">
<path d="M10.6667 2V4.66667M5.33335 2V4.66667M2.66669 7.33333H13.3334M2.66669 4.66667C2.66669 4.31304 2.80716 3.97391 3.05721 3.72386C3.30726 3.47381 3.6464 3.33333 4.00002 3.33333H12C12.3536 3.33333 12.6928 3.47381 12.9428 3.72386C13.1929 3.97391 13.3334 4.31304 13.3334 4.66667V12.6667C13.3334 13.0203 13.1929 13.3594 12.9428 13.6095C12.6928 13.8595 12.3536 14 12 14H4.00002C3.6464 14 3.30726 13.8595 3.05721 13.6095C2.80716 13.3594 2.66669 13.0203 2.66669 12.6667V4.66667ZM7.33335 10.6667C7.33335 10.8435 7.40359 11.013 7.52862 11.1381C7.65364 11.2631 7.82321 11.3333 8.00002 11.3333C8.17683 11.3333 8.3464 11.2631 8.47142 11.1381C8.59645 11.013 8.66669 10.8435 8.66669 10.6667C8.66669 10.4899 8.59645 10.3203 8.47142 10.1953C8.3464 10.0702 8.17683 10 8.00002 10C7.82321 10 7.65364 10.0702 7.52862 10.1953C7.40359 10.3203 7.33335 10.4899 7.33335 10.6667Z" stroke="#ACB5BB" stroke-width="1.3" stroke-linecap="round" stroke-linejoin="round"/>
</svg>
