<svg width="20" height="13" viewBox="0 0 20 13" fill="none" xmlns="http://www.w3.org/2000/svg">
<path d="M2.83936 7.99292C3.446 7.99307 3.93799 8.47143 3.93799 9.06128V11.197C3.93799 11.7869 3.446 12.2652 2.83936 12.2654H1.74072C1.13395 12.2654 0.64209 11.787 0.64209 11.197V9.06128C0.64209 8.47134 1.13395 7.99292 1.74072 7.99292H2.83936ZM7.96631 5.8562C8.57302 5.85627 9.06494 6.33466 9.06494 6.92456V11.197C9.06494 11.7869 8.57302 12.2653 7.96631 12.2654H6.86768C6.2609 12.2654 5.76904 11.787 5.76904 11.197V6.92456C5.76904 6.33462 6.2609 5.8562 6.86768 5.8562H7.96631ZM13.0933 3.36401C13.7 3.36401 14.1919 3.84243 14.1919 4.43237V11.197C14.1919 11.787 13.7 12.2654 13.0933 12.2654H11.9946C11.3879 12.2654 10.896 11.787 10.896 11.197V4.43237C10.896 3.84243 11.3879 3.36401 11.9946 3.36401H13.0933ZM18.2202 0.87085C18.8269 0.87085 19.3187 1.34939 19.3188 1.93921V11.197C19.3188 11.787 18.827 12.2654 18.2202 12.2654H17.1216C16.5149 12.2653 16.0229 11.7869 16.0229 11.197V1.93921C16.0231 1.34943 16.515 0.870914 17.1216 0.87085H18.2202Z" fill="white"/>
</svg>
