<svg width="20" height="13" viewBox="0 0 20 13" fill="none" xmlns="http://www.w3.org/2000/svg">
<path d="M2.83942 7.99292C3.44605 7.99308 3.93805 8.47144 3.93805 9.06128V11.197C3.93805 11.7869 3.44605 12.2652 2.83942 12.2654H1.74078C1.13401 12.2654 0.642151 11.787 0.642151 11.197V9.06128C0.642151 8.47134 1.13401 7.99292 1.74078 7.99292H2.83942ZM7.96637 5.8562C8.57307 5.85629 9.065 6.33467 9.065 6.92456V11.197C9.065 11.7869 8.57307 12.2653 7.96637 12.2654H6.86774C6.26096 12.2654 5.7691 11.787 5.7691 11.197V6.92456C5.7691 6.33462 6.26096 5.8562 6.86774 5.8562H7.96637ZM13.0933 3.36401C13.7001 3.36401 14.192 3.84243 14.192 4.43237V11.197C14.192 11.787 13.7001 12.2654 13.0933 12.2654H11.9947C11.3879 12.2654 10.8961 11.787 10.8961 11.197V4.43237C10.8961 3.84243 11.3879 3.36401 11.9947 3.36401H13.0933ZM18.2203 0.87085C18.827 0.87085 19.3188 1.34939 19.3189 1.93921V11.197C19.3189 11.787 18.8271 12.2654 18.2203 12.2654H17.1216C16.5149 12.2653 16.023 11.7869 16.023 11.197V1.93921C16.0232 1.34943 16.515 0.870916 17.1216 0.87085H18.2203Z" fill="white"/>
</svg>
