<svg width="19" height="18" viewBox="0 0 19 18" fill="none" xmlns="http://www.w3.org/2000/svg">
<path d="M17.3758 9.17493C17.3758 8.52743 17.3222 8.05493 17.2062 7.56494H9.66151V10.4874H14.09C14.0008 11.2137 13.5187 12.3074 12.4472 13.0424L12.4322 13.1402L14.8177 14.9513L14.9829 14.9674C16.5008 13.5937 17.3758 11.5724 17.3758 9.17493Z" fill="#25A5A9"/>
<path d="M9.661 16.8749C11.8306 16.8749 13.652 16.1749 14.9824 14.9674L12.4467 13.0424C11.7681 13.5061 10.8574 13.8299 9.661 13.8299C7.53602 13.8299 5.73247 12.4561 5.08956 10.5574L4.99532 10.5652L2.51488 12.4465L2.48244 12.5349C3.80385 15.1074 6.51813 16.8749 9.661 16.8749Z" fill="#34A853"/>
<path d="M5.09003 10.5576C4.92039 10.0676 4.82221 9.54257 4.82221 9.0001C4.82221 8.45756 4.92039 7.93258 5.0811 7.44259L5.07661 7.33823L2.56507 5.42676L2.4829 5.46506C1.93828 6.53258 1.62578 7.73135 1.62578 9.0001C1.62578 10.2688 1.93828 11.4676 2.4829 12.5351L5.09003 10.5576Z" fill="#FBBC05"/>
<path d="M9.66104 4.16998C11.1699 4.16998 12.1878 4.80873 12.7682 5.34251L15.036 3.1725C13.6432 1.90375 11.8307 1.125 9.66104 1.125C6.51815 1.125 3.80385 2.89249 2.48244 5.46497L5.08065 7.44249C5.73249 5.54375 7.53605 4.16998 9.66104 4.16998Z" fill="#EB4335"/>
</svg>
