<svg width="7" height="10" viewBox="0 0 7 10" fill="none" xmlns="http://www.w3.org/2000/svg">
<path d="M2.8125 5.4209C3.02075 5.42996 3.21722 5.51932 3.36133 5.66992C3.50545 5.82059 3.58613 6.02099 3.58594 6.22949C3.58594 6.65137 3.9375 6.96777 4.35938 6.96777H6.39844C6.50391 6.96777 6.60938 6.89746 6.60938 6.79199C6.60938 6.68652 6.50391 6.61621 6.39844 6.61621H4.5C4.21875 6.61621 3.9375 6.33496 3.9375 6.05371C3.9375 5.7373 4.21875 5.49121 4.5 5.49121H6.39844V5.84277H4.5C4.39453 5.84277 4.32422 5.94824 4.32422 6.05371C4.32422 6.15918 4.39453 6.22949 4.5 6.22949H6.39844C6.71484 6.22949 6.96094 6.47559 6.96094 6.79199C6.96094 7.1084 6.71484 7.35449 6.39844 7.35449V9.28809C6.39844 9.3584 6.32812 9.42871 6.25781 9.42871H4.78125C4.71094 9.42871 4.64062 9.3584 4.64062 9.28809C4.64062 8.93652 4.92188 8.65527 5.27344 8.65527H5.58984V8.33887H3.58594V9.32324C3.58594 9.42871 3.51562 9.49902 3.41016 9.49902H1.96875C1.86328 9.49902 1.79297 9.42871 1.79297 9.32324C1.79297 8.97168 2.07422 8.69043 2.46094 8.69043H2.74219V8.37402C2.6422 8.37414 2.54312 8.35373 2.45117 8.31445C2.3593 8.27517 2.27602 8.21778 2.20703 8.14551C2.13806 8.07321 2.08475 7.98716 2.0498 7.89355C2.01491 7.79997 1.99915 7.70036 2.00391 7.60059H1.05469C0.984375 7.60059 0.914062 7.53027 0.914062 7.45996V5.9834C0.914062 5.91309 0.984375 5.84277 1.05469 5.84277C1.40625 5.84277 1.6875 6.12402 1.6875 6.47559V6.79199H2.00391V6.22949C2.00391 6.01504 2.08957 5.80984 2.24121 5.6582C2.39285 5.50656 2.59805 5.4209 2.8125 5.4209ZM4.32422 1.30762C4.32422 1.41309 4.39453 1.4834 4.5 1.4834H6.39844C6.71484 1.4834 6.96094 1.72949 6.96094 2.0459C6.96094 2.3623 6.71484 2.6084 6.39844 2.6084V4.54199C6.39844 4.6123 6.32812 4.68262 6.25781 4.68262H4.78125C4.71094 4.68262 4.64062 4.6123 4.64062 4.54199C4.64062 4.19043 4.92188 3.90918 5.27344 3.90918H5.58984V3.59277H3.58594V4.57715C3.58594 4.68262 3.51562 4.75293 3.41016 4.75293H1.96875C1.86328 4.75293 1.79297 4.68262 1.79297 4.57715C1.79297 4.22559 2.07422 3.94434 2.46094 3.94434H2.74219V3.62793C2.6422 3.62804 2.54312 3.60764 2.45117 3.56836C2.3593 3.52908 2.27602 3.47169 2.20703 3.39941C2.16 3.35011 2.12056 3.29436 2.08887 3.23438C2.54688 2.68596 3.06893 2.19282 3.64355 1.7666C3.75969 2.03909 4.03905 2.22168 4.35938 2.22168H6.39844C6.50391 2.22168 6.60938 2.15137 6.60938 2.0459C6.60938 1.94043 6.50391 1.87012 6.39844 1.87012H4.5C4.2918 1.87012 4.08434 1.71564 3.99023 1.52148C4.0999 1.44787 4.21121 1.37646 4.32422 1.30762ZM6.39844 0.745117V1.09668H4.69141C4.92565 0.968709 5.1668 0.852281 5.41309 0.745117H6.39844Z" fill="#FFDA44"/>
</svg>
