<svg width="20" height="13" viewBox="0 0 20 13" fill="none" xmlns="http://www.w3.org/2000/svg">
<path d="M2.83951 7.9928C3.44603 7.99294 3.93793 8.4705 3.93814 9.06018V11.1969C3.93814 11.7868 3.44616 12.2651 2.83951 12.2653H1.74088C1.1341 12.2653 0.642242 11.7868 0.642242 11.1969V9.06018C0.642452 8.47041 1.13423 7.9928 1.74088 7.9928H2.83951ZM7.96646 5.85608C8.57318 5.85614 9.06509 6.33454 9.06509 6.92444V11.1969C9.06509 11.7868 8.57318 12.2652 7.96646 12.2653H6.86783C6.26105 12.2653 5.7692 11.7868 5.7692 11.1969V6.92444C5.7692 6.3345 6.26105 5.85608 6.86783 5.85608H7.96646ZM13.0934 3.36389C13.7002 3.36389 14.192 3.84231 14.192 4.43225V11.1969C14.192 11.7868 13.7002 12.2653 13.0934 12.2653H11.9948C11.388 12.2653 10.8961 11.7868 10.8961 11.1969V4.43225C10.8961 3.84231 11.388 3.36389 11.9948 3.36389H13.0934ZM18.2204 0.870728C18.8271 0.870728 19.3189 1.34926 19.319 1.93909V11.1969C19.319 11.7868 18.8271 12.2653 18.2204 12.2653H17.1217C16.515 12.2652 16.0231 11.7868 16.0231 11.1969V1.93909C16.0232 1.34931 16.5151 0.8708 17.1217 0.870728H18.2204Z" fill="white"/>
</svg>
