<svg width="20" height="13" viewBox="0 0 20 13" fill="none" xmlns="http://www.w3.org/2000/svg">
<path d="M2.8396 7.9928C3.44612 7.99294 3.93802 8.4705 3.93823 9.06018V11.1969C3.93823 11.7868 3.44625 12.2651 2.8396 12.2653H1.74097C1.13419 12.2653 0.642334 11.7868 0.642334 11.1969V9.06018C0.642543 8.47041 1.13432 7.9928 1.74097 7.9928H2.8396ZM7.96655 5.85608C8.57327 5.85614 9.06519 6.33454 9.06519 6.92444V11.1969C9.06519 11.7868 8.57327 12.2652 7.96655 12.2653H6.86792C6.26114 12.2653 5.76929 11.7868 5.76929 11.1969V6.92444C5.76929 6.3345 6.26114 5.85608 6.86792 5.85608H7.96655ZM13.0935 3.36389C13.7003 3.36389 14.1921 3.84231 14.1921 4.43225V11.1969C14.1921 11.7868 13.7003 12.2653 13.0935 12.2653H11.9949C11.3881 12.2653 10.8962 11.7868 10.8962 11.1969V4.43225C10.8962 3.84231 11.3881 3.36389 11.9949 3.36389H13.0935ZM18.2205 0.870728C18.8271 0.870728 19.319 1.34926 19.3191 1.93909V11.1969C19.3191 11.7868 18.8272 12.2653 18.2205 12.2653H17.1218C16.5151 12.2652 16.0232 11.7868 16.0232 11.1969V1.93909C16.0233 1.34931 16.5152 0.8708 17.1218 0.870728H18.2205Z" fill="white"/>
</svg>
