<svg width="20" height="13" viewBox="0 0 20 13" fill="none" xmlns="http://www.w3.org/2000/svg">
<path d="M2.83948 7.9928C3.446 7.99294 3.9379 8.4705 3.93811 9.06018V11.1969C3.93811 11.7868 3.44613 12.2651 2.83948 12.2653H1.74084C1.13407 12.2653 0.642212 11.7868 0.642212 11.1969V9.06018C0.642421 8.47041 1.1342 7.9928 1.74084 7.9928H2.83948ZM7.96643 5.85608C8.57315 5.85614 9.06506 6.33454 9.06506 6.92444V11.1969C9.06506 11.7868 8.57315 12.2652 7.96643 12.2653H6.8678C6.26102 12.2653 5.76917 11.7868 5.76917 11.1969V6.92444C5.76917 6.3345 6.26102 5.85608 6.8678 5.85608H7.96643ZM13.0934 3.36389C13.7002 3.36389 14.192 3.84231 14.192 4.43225V11.1969C14.192 11.7868 13.7002 12.2653 13.0934 12.2653H11.9948C11.388 12.2653 10.8961 11.7868 10.8961 11.1969V4.43225C10.8961 3.84231 11.388 3.36389 11.9948 3.36389H13.0934ZM18.2203 0.870728C18.827 0.870728 19.3188 1.34926 19.319 1.93909V11.1969C19.319 11.7868 18.8271 12.2653 18.2203 12.2653H17.1217C16.515 12.2652 16.0231 11.7868 16.0231 11.1969V1.93909C16.0232 1.34931 16.5151 0.8708 17.1217 0.870728H18.2203Z" fill="white"/>
</svg>
