<svg width="18" height="13" viewBox="0 0 18 13" fill="none" xmlns="http://www.w3.org/2000/svg">
<path d="M6.80445 9.48556C8.20587 8.33312 10.2585 8.33312 11.6599 9.48556C11.7304 9.54755 11.7713 9.63534 11.7732 9.72775C11.775 9.81998 11.7383 9.90919 11.6707 9.97384L9.47633 12.1272C9.412 12.1904 9.32369 12.2258 9.23219 12.2258C9.14088 12.2258 9.05329 12.1902 8.98902 12.1272L6.79371 9.97384C6.72604 9.90915 6.68928 9.81998 6.69117 9.72775C6.69318 9.6354 6.73397 9.54749 6.80445 9.48556ZM3.87672 6.61349C6.89607 3.88282 11.5712 3.88281 14.5906 6.61349C14.6587 6.67752 14.698 6.76549 14.699 6.85763C14.6998 6.94961 14.6631 7.03846 14.5964 7.10372L13.3279 8.34982C13.1972 8.47707 12.9854 8.47956 12.8513 8.35568C11.8598 7.48276 10.5698 6.99915 9.23219 6.99923C7.89553 6.99981 6.60679 7.48338 5.61597 8.35568C5.48187 8.47956 5.27014 8.47707 5.13941 8.34982L3.87183 7.10372C3.80497 7.03853 3.76752 6.94968 3.76832 6.85763C3.76921 6.76545 3.80851 6.67752 3.87672 6.61349ZM0.948006 3.74825C5.57886 -0.566378 12.8845 -0.566246 17.5154 3.74825C17.5824 3.81232 17.6212 3.90007 17.6218 3.99142C17.6224 4.08283 17.5846 4.1707 17.5183 4.23556L16.2488 5.48165C16.1179 5.60954 15.9051 5.61147 15.7722 5.48556C14.0078 3.85477 11.6666 2.94465 9.23219 2.94454C6.79745 2.94456 4.45578 3.85457 2.69117 5.48556C2.55838 5.61164 2.34537 5.60972 2.21461 5.48165L0.945076 4.23556C0.878866 4.17065 0.841918 4.08283 0.842537 3.99142C0.843185 3.90004 0.880949 3.81228 0.948006 3.74825Z" fill="white"/>
</svg>
