<svg width="18" height="13" viewBox="0 0 18 13" fill="none" xmlns="http://www.w3.org/2000/svg">
<path d="M6.80457 9.48556C8.206 8.33312 10.2586 8.33312 11.66 9.48556C11.7305 9.54755 11.7714 9.63534 11.7733 9.72775C11.7752 9.81998 11.7385 9.90919 11.6708 9.97384L9.47645 12.1272C9.41212 12.1904 9.32382 12.2258 9.23231 12.2258C9.141 12.2258 9.05341 12.1902 8.98914 12.1272L6.79383 9.97384C6.72616 9.90915 6.6894 9.81998 6.69129 9.72775C6.6933 9.6354 6.73409 9.54749 6.80457 9.48556ZM3.87684 6.61349C6.89619 3.88282 11.5714 3.88281 14.5907 6.61349C14.6589 6.67752 14.6981 6.76549 14.6991 6.85763C14.7 6.94961 14.6632 7.03846 14.5966 7.10372L13.328 8.34982C13.1973 8.47707 12.9856 8.47956 12.8514 8.35568C11.8599 7.48276 10.5699 6.99915 9.23231 6.99923C7.89565 6.99981 6.60691 7.48338 5.6161 8.35568C5.48199 8.47956 5.27026 8.47707 5.13953 8.34982L3.87196 7.10372C3.80509 7.03853 3.76764 6.94968 3.76844 6.85763C3.76934 6.76545 3.80864 6.67752 3.87684 6.61349ZM0.948128 3.74825C5.57898 -0.566378 12.8846 -0.566246 17.5155 3.74825C17.5825 3.81232 17.6214 3.90007 17.622 3.99142C17.6225 4.08283 17.5847 4.1707 17.5184 4.23556L16.2489 5.48165C16.1181 5.60954 15.9052 5.61147 15.7723 5.48556C14.008 3.85477 11.6667 2.94465 9.23231 2.94454C6.79757 2.94456 4.4559 3.85457 2.69129 5.48556C2.55851 5.61164 2.34549 5.60972 2.21473 5.48165L0.945198 4.23556C0.878988 4.17065 0.84204 4.08283 0.842659 3.99142C0.843307 3.90004 0.881071 3.81228 0.948128 3.74825Z" fill="white"/>
</svg>
