<svg width="18" height="13" viewBox="0 0 18 13" fill="none" xmlns="http://www.w3.org/2000/svg">
<path d="M6.80454 9.48556C8.20597 8.33312 10.2586 8.33312 11.66 9.48556C11.7305 9.54755 11.7714 9.63534 11.7733 9.72775C11.7751 9.81998 11.7384 9.90919 11.6708 9.97384L9.47642 12.1272C9.41209 12.1904 9.32379 12.2258 9.23228 12.2258C9.14097 12.2258 9.05338 12.1902 8.98911 12.1272L6.7938 9.97384C6.72613 9.90915 6.68937 9.81998 6.69126 9.72775C6.69327 9.6354 6.73406 9.54749 6.80454 9.48556ZM3.87681 6.61349C6.89616 3.88282 11.5713 3.88281 14.5907 6.61349C14.6588 6.67752 14.6981 6.76549 14.6991 6.85763C14.6999 6.94961 14.6632 7.03846 14.5965 7.10372L13.328 8.34982C13.1973 8.47707 12.9855 8.47956 12.8514 8.35568C11.8599 7.48276 10.5699 6.99915 9.23228 6.99923C7.89562 6.99981 6.60688 7.48338 5.61607 8.35568C5.48196 8.47956 5.27023 8.47707 5.1395 8.34982L3.87193 7.10372C3.80506 7.03853 3.76761 6.94968 3.76841 6.85763C3.7693 6.76545 3.80861 6.67752 3.87681 6.61349ZM0.948097 3.74825C5.57895 -0.566378 12.8845 -0.566246 17.5155 3.74825C17.5825 3.81232 17.6213 3.90007 17.6219 3.99142C17.6225 4.08283 17.5847 4.1707 17.5184 4.23556L16.2489 5.48165C16.118 5.60954 15.9052 5.61147 15.7723 5.48556C14.0079 3.85477 11.6667 2.94465 9.23228 2.94454C6.79754 2.94456 4.45587 3.85457 2.69126 5.48556C2.55848 5.61164 2.34546 5.60972 2.2147 5.48165L0.945168 4.23556C0.878957 4.17065 0.84201 4.08283 0.842628 3.99142C0.843277 3.90004 0.881041 3.81228 0.948097 3.74825Z" fill="white"/>
</svg>
