<svg width="20" height="13" viewBox="0 0 20 13" fill="none" xmlns="http://www.w3.org/2000/svg">
<path d="M2.83936 7.99268C3.44599 7.99284 3.93799 8.4712 3.93799 9.06104V11.1968C3.93799 11.7866 3.44599 12.265 2.83936 12.2651H1.74072C1.13395 12.2651 0.64209 11.7867 0.64209 11.1968V9.06104C0.64209 8.47109 1.13395 7.99268 1.74072 7.99268H2.83936ZM7.96631 5.85596C8.57301 5.85604 9.06494 6.33443 9.06494 6.92432V11.1968C9.06487 11.7866 8.57296 12.265 7.96631 12.2651H6.86768C6.26094 12.2651 5.76911 11.7867 5.76904 11.1968V6.92432C5.76904 6.33438 6.2609 5.85596 6.86768 5.85596H7.96631ZM13.0933 3.36279C13.6999 3.36279 14.1917 3.84134 14.1919 4.43115V11.1968C14.1918 11.7866 13.7 12.2651 13.0933 12.2651H11.9946C11.3879 12.2651 10.8961 11.7866 10.896 11.1968V4.43115C10.8962 3.84134 11.388 3.36279 11.9946 3.36279H13.0933ZM18.2202 0.871582C18.827 0.871582 19.3188 1.35 19.3188 1.93994V11.1968C19.3188 11.7867 18.827 12.2651 18.2202 12.2651H17.1216C16.5149 12.2651 16.0229 11.7867 16.0229 11.1968V1.93994C16.0229 1.35004 16.5149 0.871649 17.1216 0.871582H18.2202Z" fill="black"/>
</svg>
