<svg width="20" height="13" viewBox="0 0 20 13" fill="none" xmlns="http://www.w3.org/2000/svg">
<path d="M2.83951 7.99292C3.44616 7.99306 3.93814 8.47143 3.93814 9.06128V11.197C3.93814 11.7869 3.44616 12.2652 2.83951 12.2654H1.74088C1.1341 12.2654 0.642242 11.787 0.642242 11.197V9.06128C0.642242 8.47134 1.1341 7.99292 1.74088 7.99292H2.83951ZM7.96646 5.8562C8.57318 5.85627 9.06509 6.33466 9.06509 6.92456V11.197C9.06509 11.7869 8.57318 12.2653 7.96646 12.2654H6.86783C6.26105 12.2654 5.7692 11.787 5.7692 11.197V6.92456C5.7692 6.33462 6.26105 5.8562 6.86783 5.8562H7.96646ZM13.0934 3.36401C13.7002 3.36401 14.192 3.84243 14.192 4.43237V11.197C14.192 11.787 13.7002 12.2654 13.0934 12.2654H11.9948C11.388 12.2654 10.8961 11.787 10.8961 11.197V4.43237C10.8961 3.84243 11.388 3.36401 11.9948 3.36401H13.0934ZM18.2204 0.87085C18.8271 0.87085 19.3189 1.34939 19.319 1.93921V11.197C19.319 11.787 18.8271 12.2654 18.2204 12.2654H17.1217C16.515 12.2653 16.0231 11.7869 16.0231 11.197V1.93921C16.0232 1.34943 16.5151 0.870922 17.1217 0.87085H18.2204Z" fill="black"/>
</svg>
