<svg width="21" height="21" viewBox="0 0 21 21" fill="none" xmlns="http://www.w3.org/2000/svg">
<path d="M19 14.824V17.324C19.0009 17.5561 18.9534 17.7858 18.8604 17.9985C18.7675 18.2111 18.6311 18.402 18.4601 18.5589C18.2891 18.7158 18.0871 18.8353 17.8673 18.9096C17.6474 18.984 17.4145 19.0116 17.1833 18.9907C14.619 18.7121 12.1558 17.8358 9.99167 16.4324C7.9782 15.1529 6.27112 13.4458 4.99167 11.4324C3.58332 9.25838 2.70687 6.7832 2.43334 4.20737C2.41251 3.97693 2.4399 3.74467 2.51376 3.52539C2.58761 3.30611 2.70631 3.10461 2.86231 2.93372C3.01831 2.76283 3.20818 2.6263 3.41983 2.53281C3.63149 2.43932 3.86029 2.39092 4.09167 2.39071H6.59167C6.99609 2.38673 7.38817 2.52994 7.69481 2.79365C8.00145 3.05736 8.20174 3.42358 8.25834 3.82404C8.36386 4.62409 8.55955 5.40964 8.84167 6.16571C8.95379 6.46398 8.97806 6.78813 8.91159 7.09977C8.84513 7.41141 8.69072 7.69746 8.46667 7.92404L7.40834 8.98237C8.59463 11.0687 10.3221 12.7961 12.4083 13.9824L13.4667 12.924C13.6932 12.7 13.9793 12.5456 14.2909 12.4791C14.6026 12.4127 14.9267 12.4369 15.225 12.549C15.9811 12.8312 16.7666 13.0269 17.5667 13.1324C17.9715 13.1895 18.3412 13.3934 18.6054 13.7053C18.8697 14.0172 19.0101 14.4154 19 14.824Z" stroke="#4253F0" stroke-width="1.5" stroke-linecap="round" stroke-linejoin="round"/>
</svg>
