<svg width="33" height="33" viewBox="0 0 33 33" fill="none" xmlns="http://www.w3.org/2000/svg">
<path d="M28.3772 19.437L28.2411 18.0689L28.1957 18.073L28.1517 18.0813L28.3772 19.437ZM28.3772 19.437L28.5147 20.8052L28.5601 20.801L28.6041 20.7942L28.3772 19.437ZM22.8222 26.9748L23.6926 25.9105L23.6816 25.9023L22.8222 26.9748ZM22.8222 26.9748L21.9519 28.039L21.9629 28.0487L22.8222 26.9748ZM10.1777 26.9748L9.30737 25.9119L9.28537 25.9298L9.26475 25.9477L10.1777 26.9748ZM10.1777 26.9748L11.0481 28.0404L11.0701 28.0225L11.0907 28.0033L10.1777 26.9748ZM4.62137 13.563V12.188H4.55262L4.48525 12.1949L4.62137 13.563ZM4.62137 13.563V14.938H4.69012L4.75887 14.9312L4.62137 13.563ZM20.8051 4.4839C20.7824 4.21943 20.7499 3.95575 20.7102 3.69328C20.6678 3.40433 20.5796 3.12398 20.449 2.86278L18.0056 4.12503C17.974 4.06315 17.9809 4.04115 17.9987 4.14978C18.0194 4.27215 18.0372 4.44265 18.0689 4.7589L20.8051 4.4839ZM20.9357 5.79015C21.0224 5.9029 20.9935 5.95378 20.9454 5.68565C20.9 5.4299 20.8642 5.07103 20.8051 4.4839L18.0675 4.75753C18.1225 5.29928 18.1692 5.78603 18.2394 6.17378C18.3067 6.54503 18.425 7.03315 18.7481 7.45665L20.9357 5.79015ZM20.9357 5.79015L18.7481 7.45665C19.0424 7.84282 19.4336 8.14419 19.8821 8.33015C20.3306 8.51612 20.8203 8.58003 21.3015 8.5154L20.9357 5.79015ZM21.9505 4.95828C21.6423 5.21872 21.3254 5.46866 21.0004 5.70765C20.7762 5.86303 20.7941 5.80803 20.9357 5.79015L21.3015 8.5154C21.8295 8.4439 22.2585 8.18265 22.5692 7.9654C22.8924 7.74265 23.2705 7.4319 23.6912 7.08678L21.9505 4.95828ZM23.3475 4.06453C23.0707 4.1566 22.8103 4.29213 22.5761 4.46603C22.3836 4.60353 22.1677 4.7809 21.9505 4.95828L23.6912 7.08678C23.9374 6.88603 24.0707 6.7774 24.1725 6.7059C24.2619 6.64128 24.2495 6.66328 24.1849 6.6839L23.3475 4.06453ZM25.278 4.16078C24.6673 3.89615 23.9814 3.86195 23.3475 4.06453L24.1849 6.6839L25.278 4.16078ZM26.5787 5.18928C26.3936 4.99892 26.2024 4.81458 26.0054 4.63653C25.7892 4.44027 25.5433 4.27967 25.2766 4.16078L24.1849 6.6839C24.1216 6.6564 24.112 6.6344 24.1945 6.70728C24.288 6.78978 24.4104 6.9094 24.6345 7.13353L26.5787 5.18928ZM27.808 6.41853L26.5787 5.18928L24.6345 7.13353L25.8637 8.36278L27.808 6.41853ZM28.8365 7.71928C28.7176 7.45265 28.557 7.20665 28.3607 6.99053C28.1827 6.79399 27.9983 6.60322 27.808 6.41853L25.8637 8.36415C26.0879 8.58828 26.2075 8.71065 26.29 8.80415C26.3629 8.88665 26.3409 8.87703 26.3134 8.81378L28.8365 7.71928ZM28.9327 9.64978C29.1353 9.01583 29.1011 8.32993 28.8365 7.71928L26.3134 8.81378L28.9327 9.64978ZM28.039 11.0468C28.2097 10.8436 28.3739 10.6349 28.5312 10.4212C28.677 10.2177 28.8337 9.96465 28.9327 9.64978L26.3134 8.81378C26.334 8.74915 26.3546 8.7354 26.2914 8.82615C26.2199 8.92653 26.1126 9.0599 25.9105 9.30603L28.039 11.0468ZM27.2071 12.0629C27.1892 12.2045 27.1342 12.221 27.2896 11.9969C27.4367 11.7838 27.665 11.5033 28.039 11.0468L25.9105 9.30603C25.5667 9.72678 25.2546 10.1049 25.0305 10.428C24.8146 10.7388 24.5534 11.1678 24.4819 11.6958L27.2071 12.0629ZM27.2071 12.0629L24.4819 11.6958C24.4172 12.177 24.4812 12.6667 24.6671 13.1152C24.8531 13.5636 25.1545 13.9549 25.5406 14.2492L27.2071 12.0629ZM28.5134 12.1935C28.1113 12.1599 27.7105 12.1127 27.3116 12.0519C27.0435 12.0038 27.0944 11.9763 27.2071 12.0629L25.5406 14.2492C25.9641 14.5723 26.4509 14.6905 26.8249 14.7579C27.2113 14.8267 27.698 14.8748 28.2397 14.9298L28.5134 12.1935ZM30.1345 12.5483C29.8733 12.4176 29.5929 12.3295 29.304 12.287C29.0415 12.2474 28.7778 12.2162 28.5134 12.1935L28.2397 14.9298C28.4433 14.9477 28.6464 14.9706 28.8489 14.9985C28.9589 15.0178 28.9355 15.0247 28.8736 14.993L30.1345 12.5483ZM31.4311 13.9824C31.1867 13.3632 30.726 12.8536 30.1345 12.5483L28.875 14.9958L31.4311 13.9824ZM31.6236 15.6297C31.6236 15.3492 31.6236 15.07 31.6085 14.8335C31.5946 14.5417 31.5342 14.2539 31.4297 13.981L28.875 14.9958C28.8502 14.9312 28.8585 14.9092 28.8667 15.0192C28.875 15.1429 28.875 15.3148 28.875 15.6324L31.6236 15.6297ZM31.6236 17.3677V15.6297H28.8736V17.3677H31.6236ZM31.4311 19.0149C31.5521 18.7083 31.592 18.414 31.6085 18.1624C31.6236 17.9273 31.6236 17.6482 31.6236 17.3677H28.8736C28.8736 17.6853 28.8736 17.8572 28.8654 17.9809C28.8571 18.0909 28.8489 18.0689 28.8736 18.0043L31.4311 19.0149ZM30.1345 20.449C30.726 20.1437 31.1867 19.6341 31.4311 19.0149L28.875 18.0057L30.1345 20.449ZM28.5134 20.8038C28.7939 20.7763 29.0702 20.7488 29.304 20.7103C29.5515 20.669 29.8402 20.6003 30.1345 20.449L28.875 18.0057C28.9355 17.974 28.9589 17.9809 28.8502 17.9988C28.6479 18.0278 28.4448 18.0512 28.2411 18.0689L28.5134 20.8038ZM27.2085 20.9344C27.0944 21.021 27.0435 20.9935 27.3116 20.9454C27.5674 20.9 27.9262 20.8629 28.5134 20.8038L28.2397 18.0675C27.6994 18.1225 27.2113 18.1693 26.8249 18.2394C26.4522 18.3068 25.9641 18.425 25.5406 18.7482L27.2085 20.9344ZM27.2085 20.9344L25.5406 18.7482C25.1545 19.0424 24.8531 19.4337 24.6671 19.8821C24.4812 20.3306 24.4172 20.8203 24.4819 21.3015L27.2085 20.9344ZM28.039 21.9492C27.7786 21.6414 27.5286 21.325 27.2896 21.0004C27.1342 20.7763 27.1906 20.7928 27.2085 20.9344L24.4819 21.3015C24.5534 21.8295 24.8146 22.2585 25.0319 22.5693C25.256 22.8924 25.5667 23.2705 25.9105 23.6913L28.039 21.9492ZM28.9327 23.3462C28.8405 23.0698 28.705 22.8099 28.5312 22.5762C28.3937 22.3823 28.2164 22.1678 28.039 21.9492L25.9105 23.6913C26.1112 23.9374 26.2199 24.0694 26.2914 24.1712C26.356 24.2605 26.3354 24.2495 26.3134 24.1849L28.9327 23.3462ZM28.8365 25.278C29.1015 24.667 29.1357 23.9805 28.9327 23.3462L26.3134 24.1849L28.8365 25.278ZM27.808 26.5788C28.0074 26.3794 28.204 26.1842 28.3607 26.0054C28.5257 25.8157 28.7045 25.5805 28.8365 25.2767L26.3134 24.1835C26.3409 24.1203 26.3629 24.112 26.29 24.1945C26.2075 24.288 26.0879 24.409 25.8637 24.6345L27.808 26.5788ZM26.5787 27.8067L27.808 26.5788L25.8637 24.6345L24.6345 25.8624L26.5787 27.8067ZM25.278 28.8365C25.5447 28.7172 25.7907 28.5562 26.0067 28.3594C26.1841 28.204 26.3807 28.006 26.5787 27.8067L24.6345 25.8624C24.4918 26.0085 24.3451 26.1507 24.1945 26.2887C24.112 26.3629 24.1216 26.3409 24.1849 26.3134L25.278 28.8365ZM23.3475 28.9328C23.9814 29.1354 24.6673 29.1012 25.278 28.8365L24.1849 26.3134L23.3475 28.9328ZM21.9505 28.039C22.1677 28.2164 22.3822 28.3938 22.5761 28.5313C22.7796 28.6757 23.0326 28.8324 23.3475 28.9328L24.1849 26.3134C24.2495 26.334 24.2619 26.3547 24.1711 26.2914C24.0077 26.1689 23.8476 26.0419 23.6912 25.9105L21.9505 28.039ZM20.9357 27.2085C20.7941 27.1879 20.7762 27.1329 21.0004 27.2883C21.2135 27.4368 21.4926 27.6637 21.9491 28.0377L23.6912 25.9105C23.2705 25.5654 22.8924 25.2547 22.5692 25.0305C22.2585 24.8133 21.8295 24.5534 21.3015 24.4819L20.9357 27.2085ZM20.9357 27.2085L21.3015 24.4819C20.8203 24.4173 20.3306 24.4812 19.8821 24.6672C19.4336 24.8531 19.0424 25.1545 18.7481 25.5407L20.9357 27.2085ZM20.8037 28.5134C20.8629 27.9263 20.9 27.566 20.9454 27.3117C20.9935 27.0435 21.021 27.093 20.9344 27.2072L18.7481 25.5393C18.425 25.9628 18.3067 26.4509 18.2394 26.8235C18.1706 27.2113 18.1239 27.698 18.0689 28.2398L20.8037 28.5134ZM20.4476 30.1345C20.5989 29.8403 20.6676 29.5515 20.7089 29.304C20.7501 29.0703 20.7749 28.7939 20.8037 28.5134L18.0689 28.2398C18.0507 28.4439 18.0269 28.6461 17.9974 28.8489C17.9795 28.9589 17.9726 28.9355 18.0042 28.8737L20.4476 30.1345ZM19.0162 31.4312C19.6344 31.1862 20.143 30.7256 20.4476 30.1345L18.0056 28.875L19.0162 31.4312ZM17.3662 31.6237C17.6481 31.6237 17.9272 31.6237 18.1637 31.6085C18.414 31.592 18.7082 31.5549 19.0162 31.4312L18.0056 28.875C18.0702 28.8503 18.0922 28.8585 17.9822 28.8668C17.7779 28.8752 17.5735 28.878 17.369 28.875L17.3662 31.6237ZM15.6296 31.6237H17.3662L17.3676 28.8737H15.6296V31.6237ZM13.9824 31.4312C14.289 31.5522 14.5832 31.592 14.8349 31.6085C15.07 31.6237 15.3491 31.6237 15.6296 31.6237V28.8737C15.312 28.8737 15.1401 28.8737 15.0164 28.8654C14.9064 28.8572 14.9284 28.8489 14.993 28.8737L13.9824 31.4312ZM12.5482 30.1345C12.8536 30.7261 13.3631 31.1868 13.9824 31.4312L14.993 28.8737L12.5482 30.1345ZM12.1935 28.5134C12.221 28.7939 12.2485 29.0703 12.287 29.304C12.3282 29.5515 12.397 29.8403 12.5482 30.1345L14.9957 28.875C15.0274 28.9355 15.0205 28.9589 15.0026 28.8503C14.9736 28.6479 14.9502 28.4448 14.9325 28.2412L12.1935 28.5134ZM12.0629 27.2072C11.9762 27.0944 12.0037 27.0422 12.0519 27.3117C12.0972 27.566 12.1344 27.9263 12.1935 28.5134L14.9297 28.2398C14.8747 27.698 14.828 27.2113 14.7579 26.8235C14.6905 26.4523 14.5722 25.9642 14.2491 25.5407L12.0629 27.2072ZM12.0629 27.2072L14.2491 25.5407C13.9549 25.1545 13.5636 24.8531 13.1151 24.6672C12.6666 24.4812 12.1769 24.4173 11.6957 24.4819L12.0629 27.2072ZM11.0467 28.039C11.5046 27.665 11.7837 27.4368 11.9969 27.2897C12.221 27.1343 12.2045 27.1893 12.0629 27.2072L11.6957 24.4819C11.1677 24.5534 10.7387 24.8147 10.428 25.0319C10.1049 25.2547 9.72675 25.5654 9.306 25.9105L11.0467 28.039ZM9.64975 28.9328C9.92654 28.8407 10.1869 28.7052 10.4211 28.5313C10.6136 28.3938 10.8295 28.2164 11.0467 28.039L9.30737 25.9119C9.15053 26.0433 8.99143 26.1703 8.8275 26.2928C8.73812 26.3574 8.7505 26.3368 8.81512 26.3148L9.64975 28.9328ZM7.71925 28.8365C8.3299 29.1012 9.0158 29.1354 9.64975 28.9328L8.81237 26.3134L7.71925 28.8365ZM6.41712 27.808C6.6165 28.0074 6.81312 28.204 6.99187 28.3608C7.18025 28.5258 7.41537 28.7059 7.72062 28.8379L8.81237 26.3134C8.87562 26.3409 8.88525 26.3629 8.80275 26.29C8.65215 26.1521 8.50543 26.0099 8.36275 25.8638L6.41712 27.808ZM5.18925 26.5788L6.4185 27.808L8.36275 25.8638L7.1335 24.6345L5.18925 26.5788ZM4.16075 25.278C4.29137 25.5805 4.4715 25.817 4.6365 26.0068C4.79325 26.1842 4.98987 26.3808 5.18925 26.5788L7.1335 24.6345C6.98736 24.4918 6.84522 24.3451 6.70725 24.1945C6.63437 24.112 6.65637 24.1217 6.68387 24.1849L4.16075 25.278ZM4.0645 23.3475C3.86192 23.9815 3.89612 24.6674 4.16075 25.278L6.68387 24.1849L4.0645 23.3475ZM4.95825 21.9505C4.7875 22.1537 4.62333 22.3624 4.466 22.5762C4.2921 22.8104 4.15657 23.0707 4.0645 23.3475L6.68387 24.1849C6.66187 24.2495 6.64262 24.2619 6.70587 24.1712C6.77737 24.0708 6.88462 23.9374 7.08675 23.6913L4.95825 21.9505ZM5.78875 20.9344C5.808 20.7928 5.863 20.7763 5.70762 21.0004C5.5605 21.2135 5.33225 21.494 4.95825 21.9505L7.08675 23.6913C7.4305 23.2705 7.74262 22.8924 7.96675 22.5693C8.18262 22.2585 8.44387 21.8295 8.51537 21.3015L5.78875 20.9344ZM5.78875 20.9344L8.51537 21.3015C8.58 20.8203 8.51608 20.3306 8.33012 19.8821C8.14416 19.4337 7.84279 19.0424 7.45662 18.7482L5.78875 20.9344ZM4.4825 20.8038C5.071 20.8629 5.43125 20.9 5.68562 20.9454C5.95375 20.9935 5.90287 21.021 5.78875 20.9344L7.45662 18.7482C7.03312 18.425 6.54637 18.3068 6.17237 18.2394C5.786 18.1707 5.29925 18.1225 4.75612 18.0675L4.4825 20.8038ZM2.86275 20.449C3.157 20.6003 3.44575 20.669 3.69325 20.7103C3.927 20.7488 4.20337 20.7777 4.48387 20.8052L4.75612 18.0675C4.55248 18.0503 4.35074 18.0273 4.14837 17.9988C4.03837 17.9795 4.06175 17.9727 4.12362 18.0043L2.86275 20.449ZM1.5675 19.0163C1.81188 19.6355 2.27258 20.1451 2.86412 20.4504L4.125 18.0057L1.5675 19.0163ZM1.375 17.369C1.375 17.6495 1.375 17.9287 1.39012 18.1652C1.40662 18.4154 1.44512 18.7097 1.56887 19.0177L4.125 18.0043C4.14975 18.0689 4.1415 18.0909 4.13462 17.9809C4.12574 17.7771 4.12253 17.573 4.125 17.369H1.375ZM1.375 15.631V17.369H4.125V15.631H1.375ZM1.5675 13.9824C1.46347 14.2553 1.4036 14.5431 1.39012 14.8349C1.37362 15.0714 1.375 15.3505 1.375 15.6324H4.125C4.125 15.3134 4.125 15.1415 4.13462 15.0178C4.1415 14.9078 4.14975 14.9298 4.125 14.9944L1.5675 13.9824ZM2.86412 12.551C2.27307 12.8557 1.81244 13.3642 1.5675 13.9824L4.125 14.9944L2.86412 12.551ZM4.48525 12.1935C4.20475 12.2224 3.92837 12.2485 3.69462 12.2898C3.44712 12.331 3.15837 12.3998 2.86412 12.551L4.125 14.9944C4.06312 15.026 4.04112 15.0192 4.14975 15.0013C4.3521 14.9722 4.55522 14.9489 4.75887 14.9312L4.48525 12.1935ZM5.7915 12.0643C5.90562 11.9777 5.9565 12.0052 5.687 12.0533C5.43262 12.0987 5.07237 12.1358 4.48525 12.1949L4.75887 14.9312C5.29925 14.8762 5.78737 14.8294 6.17512 14.7593C6.54775 14.6919 7.03587 14.5737 7.45937 14.2505L5.7915 12.0643ZM5.7915 12.0643L7.45937 14.2505C7.84529 13.9561 8.1464 13.5648 8.33211 13.1163C8.51783 12.6678 8.58153 12.1782 8.51675 11.6972L5.7915 12.0643ZM4.95962 11.0482C5.33362 11.5047 5.56187 11.7852 5.71037 11.9983C5.86575 12.2224 5.81075 12.2059 5.7915 12.0643L8.51675 11.6972C8.44525 11.1692 8.18537 10.7415 7.96812 10.4294C7.744 10.1063 7.43187 9.72815 7.08812 9.3074L4.95962 11.0482ZM4.06587 9.64978C4.16625 9.96603 4.32162 10.2177 4.46737 10.4225C4.60487 10.615 4.78225 10.8309 4.95962 11.0482L7.08812 9.3074C6.95671 9.15056 6.82971 8.99146 6.70725 8.82753C6.64262 8.73815 6.66462 8.74915 6.68525 8.81378L4.06587 9.64978ZM4.16212 7.72065C3.89784 8.3309 3.86364 9.01625 4.06587 9.64978L6.68525 8.81378L4.16212 7.72065ZM5.19062 6.41853C4.99125 6.6179 4.79462 6.81315 4.63787 6.9919C4.44161 7.20803 4.28102 7.45402 4.16212 7.72065L6.68525 8.81378C6.65775 8.87703 6.63575 8.88665 6.70862 8.80278C6.79112 8.70928 6.91075 8.58828 7.13487 8.36278L5.19062 6.41853ZM6.41987 5.19065L5.19062 6.41853L7.13487 8.36278L8.3655 7.1349L6.41987 5.19065ZM7.72062 4.16078C7.4539 4.28009 7.2079 4.44116 6.99187 4.6379C6.79533 4.81598 6.60457 5.00032 6.41987 5.19065L8.3655 7.1349C8.58962 6.9094 8.71062 6.78978 8.80412 6.70865C8.88662 6.6344 8.877 6.6564 8.81375 6.6839L7.72062 4.16078ZM9.65112 4.06453C9.01718 3.86195 8.33128 3.89615 7.72062 4.16078L8.81375 6.6839L9.65112 4.06453ZM11.0467 4.95828C10.8295 4.7809 10.6164 4.6049 10.4225 4.4674C10.1884 4.29302 9.928 4.15703 9.65112 4.06453L8.81375 6.6839C8.74912 6.66328 8.73675 6.64265 8.8275 6.7059C8.92787 6.77878 9.06125 6.88603 9.30737 7.08815L11.0467 4.95828ZM12.0642 5.79015C12.2059 5.8094 12.2224 5.8644 11.9982 5.70903C11.6736 5.47001 11.3572 5.22007 11.0495 4.95965L9.30737 7.08815C9.72812 7.4319 10.1049 7.74265 10.428 7.96815C10.7387 8.18403 11.1677 8.4439 11.6957 8.5154L12.0642 5.79015ZM12.0642 5.79015L11.6971 8.5154C12.1783 8.58003 12.668 8.51612 13.1165 8.33015C13.565 8.14419 13.9562 7.84282 14.2505 7.45665L12.0642 5.79015ZM12.1949 4.4839C12.1357 5.0724 12.0986 5.43265 12.0532 5.68703C12.0051 5.95515 11.9776 5.90428 12.0642 5.79015L14.2505 7.45665C14.5736 7.03315 14.6919 6.5464 14.7592 6.17378C14.828 5.7874 14.8775 5.29928 14.9311 4.75753L12.1949 4.4839ZM12.5496 2.86415C12.419 3.12536 12.3308 3.4057 12.2884 3.69465C12.2499 3.9284 12.2224 4.20478 12.1949 4.48528L14.9311 4.75753C14.949 4.55395 14.9719 4.35222 14.9999 4.14978C15.0191 4.03978 15.026 4.06453 14.9944 4.12503L12.5496 2.86415ZM13.9837 1.56753C13.3645 1.81191 12.855 2.27261 12.5496 2.86415L14.9944 4.12503L13.9837 1.56753ZM15.631 1.37503C15.3505 1.37503 15.0714 1.37503 14.8349 1.39015C14.5431 1.40363 14.2553 1.4635 13.9824 1.56753L14.9957 4.12503C14.9311 4.14978 14.9091 4.14153 15.0191 4.13465C15.1429 4.1264 15.3147 4.12503 15.6324 4.12503L15.631 1.37503ZM17.369 1.37503H15.631V4.12503H17.369V1.37503ZM19.0162 1.56753C18.7433 1.4635 18.4555 1.40363 18.1637 1.39015C17.93 1.37365 17.6509 1.37503 17.3704 1.37503V4.12503C17.688 4.12503 17.8599 4.12503 17.9836 4.13465C18.0936 4.14153 18.0702 4.14978 18.0056 4.12503L19.0162 1.56753ZM20.4504 2.86415C20.145 2.27261 19.6355 1.81191 19.0162 1.56753L18.0056 4.12503L20.4504 2.86415ZM20.625 16.5C20.625 17.594 20.1904 18.6433 19.4168 19.4168C18.6432 20.1904 17.594 20.625 16.5 20.625V23.375C18.3234 23.375 20.072 22.6507 21.3614 21.3614C22.6507 20.0721 23.375 18.3234 23.375 16.5H20.625ZM16.5 12.375C17.594 12.375 18.6432 12.8096 19.4168 13.5832C20.1904 14.3568 20.625 15.406 20.625 16.5H23.375C23.375 14.6767 22.6507 12.928 21.3614 11.6387C20.072 10.3494 18.3234 9.62503 16.5 9.62503V12.375ZM12.375 16.5C12.375 15.406 12.8096 14.3568 13.5832 13.5832C14.3568 12.8096 15.406 12.375 16.5 12.375V9.62503C14.6766 9.62503 12.928 10.3494 11.6386 11.6387C10.3493 12.928 9.625 14.6767 9.625 16.5H12.375ZM16.5 20.625C15.406 20.625 14.3568 20.1904 13.5832 19.4168C12.8096 18.6433 12.375 17.594 12.375 16.5H9.625C9.625 18.3234 10.3493 20.0721 11.6386 21.3614C12.928 22.6507 14.6766 23.375 16.5 23.375V20.625Z" fill="black"/>
</svg>
