<svg width="33" height="33" viewBox="0 0 33 33" fill="none" xmlns="http://www.w3.org/2000/svg">
<path d="M28.3773 19.437L28.2412 18.0689L28.1958 18.073L28.1518 18.0813L28.3773 19.437ZM28.3773 19.437L28.5148 20.8052L28.5602 20.801L28.6042 20.7942L28.3773 19.437ZM22.8223 26.9748L23.6927 25.9105L23.6817 25.9023L22.8223 26.9748ZM22.8223 26.9748L21.9519 28.039L21.9629 28.0487L22.8223 26.9748ZM10.1778 26.9748L9.3074 25.9119L9.2854 25.9298L9.26478 25.9477L10.1778 26.9748ZM10.1778 26.9748L11.0482 28.0404L11.0702 28.0225L11.0908 28.0033L10.1778 26.9748ZM4.6214 13.563V12.188H4.55265L4.48528 12.1949L4.6214 13.563ZM4.6214 13.563V14.938H4.69015L4.7589 14.9312L4.6214 13.563ZM20.8052 4.4839C20.7825 4.21943 20.7499 3.95575 20.7103 3.69328C20.6678 3.40433 20.5797 3.12398 20.449 2.86278L18.0057 4.12503C17.974 4.06315 17.9809 4.04115 17.9988 4.14978C18.0194 4.27215 18.0373 4.44265 18.0689 4.7589L20.8052 4.4839ZM20.9358 5.79015C21.0224 5.9029 20.9935 5.95378 20.9454 5.68565C20.9 5.4299 20.8643 5.07103 20.8052 4.4839L18.0675 4.75753C18.1225 5.29928 18.1693 5.78603 18.2394 6.17378C18.3068 6.54503 18.425 7.03315 18.7482 7.45665L20.9358 5.79015ZM20.9358 5.79015L18.7482 7.45665C19.0424 7.84282 19.4337 8.14419 19.8821 8.33015C20.3306 8.51612 20.8203 8.58003 21.3015 8.5154L20.9358 5.79015ZM21.9505 4.95828C21.6424 5.21872 21.3255 5.46866 21.0004 5.70765C20.7763 5.86303 20.7942 5.80803 20.9358 5.79015L21.3015 8.5154C21.8295 8.4439 22.2585 8.18265 22.5693 7.9654C22.8924 7.74265 23.2705 7.4319 23.6913 7.08678L21.9505 4.95828ZM23.3475 4.06453C23.0707 4.1566 22.8104 4.29213 22.5762 4.46603C22.3837 4.60353 22.1678 4.7809 21.9505 4.95828L23.6913 7.08678C23.9374 6.88603 24.0708 6.7774 24.1725 6.7059C24.2619 6.64128 24.2495 6.66328 24.1849 6.6839L23.3475 4.06453ZM25.278 4.16078C24.6674 3.89615 23.9815 3.86195 23.3475 4.06453L24.1849 6.6839L25.278 4.16078ZM26.5788 5.18928C26.3936 4.99892 26.2024 4.81458 26.0054 4.63653C25.7893 4.44027 25.5433 4.27967 25.2767 4.16078L24.1849 6.6839C24.1217 6.6564 24.112 6.6344 24.1945 6.70728C24.288 6.78978 24.4104 6.9094 24.6345 7.13353L26.5788 5.18928ZM27.808 6.41853L26.5788 5.18928L24.6345 7.13353L25.8638 8.36278L27.808 6.41853ZM28.8365 7.71928C28.7176 7.45265 28.557 7.20665 28.3608 6.99053C28.1827 6.79399 27.9984 6.60322 27.808 6.41853L25.8638 8.36415C26.0879 8.58828 26.2075 8.71065 26.29 8.80415C26.3629 8.88665 26.3409 8.87703 26.3134 8.81378L28.8365 7.71928ZM28.9328 9.64978C29.1354 9.01583 29.1012 8.32993 28.8365 7.71928L26.3134 8.81378L28.9328 9.64978ZM28.039 11.0468C28.2098 10.8436 28.3739 10.6349 28.5313 10.4212C28.677 10.2177 28.8338 9.96465 28.9328 9.64978L26.3134 8.81378C26.334 8.74915 26.3547 8.7354 26.2914 8.82615C26.2199 8.92653 26.1127 9.0599 25.9105 9.30603L28.039 11.0468ZM27.2072 12.0629C27.1893 12.2045 27.1343 12.221 27.2897 11.9969C27.4368 11.7838 27.665 11.5033 28.039 11.0468L25.9105 9.30603C25.5668 9.72678 25.2547 10.1049 25.0305 10.428C24.8147 10.7388 24.5534 11.1678 24.4819 11.6958L27.2072 12.0629ZM27.2072 12.0629L24.4819 11.6958C24.4173 12.177 24.4812 12.6667 24.6672 13.1152C24.8531 13.5636 25.1545 13.9549 25.5407 14.2492L27.2072 12.0629ZM28.5134 12.1935C28.1113 12.1599 27.7105 12.1127 27.3117 12.0519C27.0435 12.0038 27.0944 11.9763 27.2072 12.0629L25.5407 14.2492C25.9642 14.5723 26.4509 14.6905 26.8249 14.7579C27.2113 14.8267 27.698 14.8748 28.2398 14.9298L28.5134 12.1935ZM30.1345 12.5483C29.8733 12.4176 29.593 12.3295 29.304 12.287C29.0416 12.2474 28.7779 12.2162 28.5134 12.1935L28.2398 14.9298C28.4434 14.9477 28.6465 14.9706 28.8489 14.9985C28.9589 15.0178 28.9355 15.0247 28.8737 14.993L30.1345 12.5483ZM31.4312 13.9824C31.1868 13.3632 30.7261 12.8536 30.1345 12.5483L28.875 14.9958L31.4312 13.9824ZM31.6237 15.6297C31.6237 15.3492 31.6237 15.07 31.6085 14.8335C31.5946 14.5417 31.5343 14.2539 31.4298 13.981L28.875 14.9958C28.8503 14.9312 28.8585 14.9092 28.8668 15.0192C28.875 15.1429 28.875 15.3148 28.875 15.6324L31.6237 15.6297ZM31.6237 17.3677V15.6297H28.8737V17.3677H31.6237ZM31.4312 19.0149C31.5522 18.7083 31.592 18.414 31.6085 18.1624C31.6237 17.9273 31.6237 17.6482 31.6237 17.3677H28.8737C28.8737 17.6853 28.8737 17.8572 28.8654 17.9809C28.8572 18.0909 28.8489 18.0689 28.8737 18.0043L31.4312 19.0149ZM30.1345 20.449C30.7261 20.1437 31.1868 19.6341 31.4312 19.0149L28.875 18.0057L30.1345 20.449ZM28.5134 20.8038C28.7939 20.7763 29.0703 20.7488 29.304 20.7103C29.5515 20.669 29.8403 20.6003 30.1345 20.449L28.875 18.0057C28.9355 17.974 28.9589 17.9809 28.8503 17.9988C28.6479 18.0278 28.4448 18.0512 28.2412 18.0689L28.5134 20.8038ZM27.2085 20.9344C27.0944 21.021 27.0435 20.9935 27.3117 20.9454C27.5674 20.9 27.9263 20.8629 28.5134 20.8038L28.2398 18.0675C27.6994 18.1225 27.2113 18.1693 26.8249 18.2394C26.4523 18.3068 25.9642 18.425 25.5407 18.7482L27.2085 20.9344ZM27.2085 20.9344L25.5407 18.7482C25.1545 19.0424 24.8531 19.4337 24.6672 19.8821C24.4812 20.3306 24.4173 20.8203 24.4819 21.3015L27.2085 20.9344ZM28.039 21.9492C27.7786 21.6414 27.5287 21.325 27.2897 21.0004C27.1343 20.7763 27.1907 20.7928 27.2085 20.9344L24.4819 21.3015C24.5534 21.8295 24.8147 22.2585 25.0319 22.5693C25.256 22.8924 25.5668 23.2705 25.9105 23.6913L28.039 21.9492ZM28.9328 23.3462C28.8406 23.0698 28.705 22.8099 28.5313 22.5762C28.3938 22.3823 28.2164 22.1678 28.039 21.9492L25.9105 23.6913C26.1113 23.9374 26.2199 24.0694 26.2914 24.1712C26.356 24.2605 26.3354 24.2495 26.3134 24.1849L28.9328 23.3462ZM28.8365 25.278C29.1015 24.667 29.1357 23.9805 28.9328 23.3462L26.3134 24.1849L28.8365 25.278ZM27.808 26.5788C28.0074 26.3794 28.204 26.1842 28.3608 26.0054C28.5258 25.8157 28.7045 25.5805 28.8365 25.2767L26.3134 24.1835C26.3409 24.1203 26.3629 24.112 26.29 24.1945C26.2075 24.288 26.0879 24.409 25.8638 24.6345L27.808 26.5788ZM26.5788 27.8067L27.808 26.5788L25.8638 24.6345L24.6345 25.8624L26.5788 27.8067ZM25.278 28.8365C25.5448 28.7172 25.7908 28.5562 26.0068 28.3594C26.1842 28.204 26.3808 28.006 26.5788 27.8067L24.6345 25.8624C24.4918 26.0085 24.3451 26.1507 24.1945 26.2887C24.112 26.3629 24.1217 26.3409 24.1849 26.3134L25.278 28.8365ZM23.3475 28.9328C23.9815 29.1354 24.6674 29.1012 25.278 28.8365L24.1849 26.3134L23.3475 28.9328ZM21.9505 28.039C22.1678 28.2164 22.3823 28.3938 22.5762 28.5313C22.7797 28.6757 23.0327 28.8324 23.3475 28.9328L24.1849 26.3134C24.2495 26.334 24.2619 26.3547 24.1712 26.2914C24.0077 26.1689 23.8477 26.0419 23.6913 25.9105L21.9505 28.039ZM20.9358 27.2085C20.7942 27.1879 20.7763 27.1329 21.0004 27.2883C21.2135 27.4368 21.4927 27.6637 21.9492 28.0377L23.6913 25.9105C23.2705 25.5654 22.8924 25.2547 22.5693 25.0305C22.2585 24.8133 21.8295 24.5534 21.3015 24.4819L20.9358 27.2085ZM20.9358 27.2085L21.3015 24.4819C20.8203 24.4173 20.3306 24.4812 19.8821 24.6672C19.4337 24.8531 19.0424 25.1545 18.7482 25.5407L20.9358 27.2085ZM20.8038 28.5134C20.8629 27.9263 20.9 27.566 20.9454 27.3117C20.9935 27.0435 21.021 27.093 20.9344 27.2072L18.7482 25.5393C18.425 25.9628 18.3068 26.4509 18.2394 26.8235C18.1707 27.2113 18.1239 27.698 18.0689 28.2398L20.8038 28.5134ZM20.4477 30.1345C20.5989 29.8403 20.6677 29.5515 20.7089 29.304C20.7502 29.0703 20.7749 28.7939 20.8038 28.5134L18.0689 28.2398C18.0508 28.4439 18.0269 28.6461 17.9974 28.8489C17.9795 28.9589 17.9727 28.9355 18.0043 28.8737L20.4477 30.1345ZM19.0163 31.4312C19.6345 31.1862 20.143 30.7256 20.4477 30.1345L18.0057 28.875L19.0163 31.4312ZM17.3663 31.6237C17.6482 31.6237 17.9273 31.6237 18.1638 31.6085C18.414 31.592 18.7083 31.5549 19.0163 31.4312L18.0057 28.875C18.0703 28.8503 18.0923 28.8585 17.9823 28.8668C17.778 28.8752 17.5735 28.878 17.369 28.875L17.3663 31.6237ZM15.6297 31.6237H17.3663L17.3677 28.8737H15.6297V31.6237ZM13.9824 31.4312C14.289 31.5522 14.5833 31.592 14.8349 31.6085C15.07 31.6237 15.3492 31.6237 15.6297 31.6237V28.8737C15.312 28.8737 15.1402 28.8737 15.0164 28.8654C14.9064 28.8572 14.9284 28.8489 14.993 28.8737L13.9824 31.4312ZM12.5483 30.1345C12.8536 30.7261 13.3632 31.1868 13.9824 31.4312L14.993 28.8737L12.5483 30.1345ZM12.1935 28.5134C12.221 28.7939 12.2485 29.0703 12.287 29.304C12.3283 29.5515 12.397 29.8403 12.5483 30.1345L14.9958 28.875C15.0274 28.9355 15.0205 28.9589 15.0027 28.8503C14.9736 28.6479 14.9502 28.4448 14.9325 28.2412L12.1935 28.5134ZM12.0629 27.2072C11.9763 27.0944 12.0038 27.0422 12.0519 27.3117C12.0973 27.566 12.1344 27.9263 12.1935 28.5134L14.9298 28.2398C14.8748 27.698 14.828 27.2113 14.7579 26.8235C14.6905 26.4523 14.5723 25.9642 14.2492 25.5407L12.0629 27.2072ZM12.0629 27.2072L14.2492 25.5407C13.9549 25.1545 13.5636 24.8531 13.1152 24.6672C12.6667 24.4812 12.177 24.4173 11.6958 24.4819L12.0629 27.2072ZM11.0468 28.039C11.5047 27.665 11.7838 27.4368 11.9969 27.2897C12.221 27.1343 12.2045 27.1893 12.0629 27.2072L11.6958 24.4819C11.1678 24.5534 10.7388 24.8147 10.428 25.0319C10.1049 25.2547 9.72678 25.5654 9.30603 25.9105L11.0468 28.039ZM9.64978 28.9328C9.92657 28.8407 10.1869 28.7052 10.4212 28.5313C10.6137 28.3938 10.8295 28.2164 11.0468 28.039L9.3074 25.9119C9.15056 26.0433 8.99146 26.1703 8.82753 26.2928C8.73815 26.3574 8.75053 26.3368 8.81515 26.3148L9.64978 28.9328ZM7.71928 28.8365C8.32993 29.1012 9.01583 29.1354 9.64978 28.9328L8.8124 26.3134L7.71928 28.8365ZM6.41715 27.808C6.61653 28.0074 6.81315 28.204 6.9919 28.3608C7.18028 28.5258 7.4154 28.7059 7.72065 28.8379L8.8124 26.3134C8.87565 26.3409 8.88528 26.3629 8.80278 26.29C8.65218 26.1521 8.50546 26.0099 8.36278 25.8638L6.41715 27.808ZM5.18928 26.5788L6.41853 27.808L8.36278 25.8638L7.13353 24.6345L5.18928 26.5788ZM4.16078 25.278C4.2914 25.5805 4.47153 25.817 4.63653 26.0068C4.79328 26.1842 4.9899 26.3808 5.18928 26.5788L7.13353 24.6345C6.98739 24.4918 6.84525 24.3451 6.70728 24.1945C6.6344 24.112 6.6564 24.1217 6.6839 24.1849L4.16078 25.278ZM4.06453 23.3475C3.86195 23.9815 3.89615 24.6674 4.16078 25.278L6.6839 24.1849L4.06453 23.3475ZM4.95828 21.9505C4.78753 22.1537 4.62336 22.3624 4.46603 22.5762C4.29213 22.8104 4.1566 23.0707 4.06453 23.3475L6.6839 24.1849C6.6619 24.2495 6.64265 24.2619 6.7059 24.1712C6.7774 24.0708 6.88465 23.9374 7.08678 23.6913L4.95828 21.9505ZM5.78878 20.9344C5.80803 20.7928 5.86303 20.7763 5.70765 21.0004C5.56053 21.2135 5.33228 21.494 4.95828 21.9505L7.08678 23.6913C7.43053 23.2705 7.74265 22.8924 7.96678 22.5693C8.18265 22.2585 8.4439 21.8295 8.5154 21.3015L5.78878 20.9344ZM5.78878 20.9344L8.5154 21.3015C8.58003 20.8203 8.51612 20.3306 8.33015 19.8821C8.14419 19.4337 7.84282 19.0424 7.45665 18.7482L5.78878 20.9344ZM4.48253 20.8038C5.07103 20.8629 5.43128 20.9 5.68565 20.9454C5.95378 20.9935 5.9029 21.021 5.78878 20.9344L7.45665 18.7482C7.03315 18.425 6.5464 18.3068 6.1724 18.2394C5.78603 18.1707 5.29928 18.1225 4.75615 18.0675L4.48253 20.8038ZM2.86278 20.449C3.15703 20.6003 3.44578 20.669 3.69328 20.7103C3.92703 20.7488 4.2034 20.7777 4.4839 20.8052L4.75615 18.0675C4.55251 18.0503 4.35077 18.0273 4.1484 17.9988C4.0384 17.9795 4.06178 17.9727 4.12365 18.0043L2.86278 20.449ZM1.56753 19.0163C1.81191 19.6355 2.27261 20.1451 2.86415 20.4504L4.12503 18.0057L1.56753 19.0163ZM1.37503 17.369C1.37503 17.6495 1.37503 17.9287 1.39015 18.1652C1.40665 18.4154 1.44515 18.7097 1.5689 19.0177L4.12503 18.0043C4.14978 18.0689 4.14153 18.0909 4.13465 17.9809C4.12577 17.7771 4.12256 17.573 4.12503 17.369H1.37503ZM1.37503 15.631V17.369H4.12503V15.631H1.37503ZM1.56753 13.9824C1.4635 14.2553 1.40363 14.5431 1.39015 14.8349C1.37365 15.0714 1.37503 15.3505 1.37503 15.6324H4.12503C4.12503 15.3134 4.12503 15.1415 4.13465 15.0178C4.14153 14.9078 4.14978 14.9298 4.12503 14.9944L1.56753 13.9824ZM2.86415 12.551C2.27311 12.8557 1.81247 13.3642 1.56753 13.9824L4.12503 14.9944L2.86415 12.551ZM4.48528 12.1935C4.20478 12.2224 3.9284 12.2485 3.69465 12.2898C3.44715 12.331 3.1584 12.3998 2.86415 12.551L4.12503 14.9944C4.06315 15.026 4.04115 15.0192 4.14978 15.0013C4.35213 14.9722 4.55525 14.9489 4.7589 14.9312L4.48528 12.1935ZM5.79153 12.0643C5.90565 11.9777 5.95653 12.0052 5.68703 12.0533C5.43265 12.0987 5.0724 12.1358 4.48528 12.1949L4.7589 14.9312C5.29928 14.8762 5.7874 14.8294 6.17515 14.7593C6.54778 14.6919 7.0359 14.5737 7.4594 14.2505L5.79153 12.0643ZM5.79153 12.0643L7.4594 14.2505C7.84532 13.9561 8.14643 13.5648 8.33214 13.1163C8.51786 12.6678 8.58156 12.1782 8.51678 11.6972L5.79153 12.0643ZM4.95965 11.0482C5.33365 11.5047 5.5619 11.7852 5.7104 11.9983C5.86578 12.2224 5.81078 12.2059 5.79153 12.0643L8.51678 11.6972C8.44528 11.1692 8.1854 10.7415 7.96815 10.4294C7.74403 10.1063 7.4319 9.72815 7.08815 9.3074L4.95965 11.0482ZM4.0659 9.64978C4.16628 9.96603 4.32165 10.2177 4.4674 10.4225C4.6049 10.615 4.78228 10.8309 4.95965 11.0482L7.08815 9.3074C6.95674 9.15056 6.82974 8.99146 6.70728 8.82753C6.64265 8.73815 6.66465 8.74915 6.68528 8.81378L4.0659 9.64978ZM4.16215 7.72065C3.89787 8.3309 3.86368 9.01625 4.0659 9.64978L6.68528 8.81378L4.16215 7.72065ZM5.19065 6.41853C4.99128 6.6179 4.79465 6.81315 4.6379 6.9919C4.44164 7.20803 4.28105 7.45402 4.16215 7.72065L6.68528 8.81378C6.65778 8.87703 6.63578 8.88665 6.70865 8.80278C6.79115 8.70928 6.91078 8.58828 7.1349 8.36278L5.19065 6.41853ZM6.4199 5.19065L5.19065 6.41853L7.1349 8.36278L8.36553 7.1349L6.4199 5.19065ZM7.72065 4.16078C7.45393 4.28009 7.20793 4.44116 6.9919 4.6379C6.79536 4.81598 6.6046 5.00032 6.4199 5.19065L8.36553 7.1349C8.58965 6.9094 8.71065 6.78978 8.80415 6.70865C8.88665 6.6344 8.87703 6.6564 8.81378 6.6839L7.72065 4.16078ZM9.65115 4.06453C9.01721 3.86195 8.33131 3.89615 7.72065 4.16078L8.81378 6.6839L9.65115 4.06453ZM11.0468 4.95828C10.8295 4.7809 10.6164 4.6049 10.4225 4.4674C10.1884 4.29302 9.92803 4.15703 9.65115 4.06453L8.81378 6.6839C8.74915 6.66328 8.73678 6.64265 8.82753 6.7059C8.9279 6.77878 9.06128 6.88603 9.3074 7.08815L11.0468 4.95828ZM12.0643 5.79015C12.2059 5.8094 12.2224 5.8644 11.9983 5.70903C11.6737 5.47001 11.3572 5.22007 11.0495 4.95965L9.3074 7.08815C9.72815 7.4319 10.1049 7.74265 10.428 7.96815C10.7388 8.18403 11.1678 8.4439 11.6958 8.5154L12.0643 5.79015ZM12.0643 5.79015L11.6972 8.5154C12.1783 8.58003 12.6681 8.51612 13.1165 8.33015C13.565 8.14419 13.9563 7.84282 14.2505 7.45665L12.0643 5.79015ZM12.1949 4.4839C12.1358 5.0724 12.0987 5.43265 12.0533 5.68703C12.0052 5.95515 11.9777 5.90428 12.0643 5.79015L14.2505 7.45665C14.5737 7.03315 14.6919 6.5464 14.7593 6.17378C14.828 5.7874 14.8775 5.29928 14.9312 4.75753L12.1949 4.4839ZM12.5497 2.86415C12.419 3.12536 12.3308 3.4057 12.2884 3.69465C12.2499 3.9284 12.2224 4.20478 12.1949 4.48528L14.9312 4.75753C14.949 4.55395 14.972 4.35222 14.9999 4.14978C15.0192 4.03978 15.026 4.06453 14.9944 4.12503L12.5497 2.86415ZM13.9838 1.56753C13.3646 1.81191 12.855 2.27261 12.5497 2.86415L14.9944 4.12503L13.9838 1.56753ZM15.631 1.37503C15.3505 1.37503 15.0714 1.37503 14.8349 1.39015C14.5431 1.40363 14.2553 1.4635 13.9824 1.56753L14.9958 4.12503C14.9312 4.14978 14.9092 4.14153 15.0192 4.13465C15.1429 4.1264 15.3148 4.12503 15.6324 4.12503L15.631 1.37503ZM17.369 1.37503H15.631V4.12503H17.369V1.37503ZM19.0163 1.56753C18.7433 1.4635 18.4556 1.40363 18.1638 1.39015C17.93 1.37365 17.6509 1.37503 17.3704 1.37503V4.12503C17.688 4.12503 17.8599 4.12503 17.9837 4.13465C18.0937 4.14153 18.0703 4.14978 18.0057 4.12503L19.0163 1.56753ZM20.4504 2.86415C20.1451 2.27261 19.6355 1.81191 19.0163 1.56753L18.0057 4.12503L20.4504 2.86415ZM20.625 16.5C20.625 17.594 20.1904 18.6433 19.4168 19.4168C18.6433 20.1904 17.594 20.625 16.5 20.625V23.375C18.3234 23.375 20.0721 22.6507 21.3614 21.3614C22.6507 20.0721 23.375 18.3234 23.375 16.5H20.625ZM16.5 12.375C17.594 12.375 18.6433 12.8096 19.4168 13.5832C20.1904 14.3568 20.625 15.406 20.625 16.5H23.375C23.375 14.6767 22.6507 12.928 21.3614 11.6387C20.0721 10.3494 18.3234 9.62503 16.5 9.62503V12.375ZM12.375 16.5C12.375 15.406 12.8096 14.3568 13.5832 13.5832C14.3568 12.8096 15.406 12.375 16.5 12.375V9.62503C14.6767 9.62503 12.928 10.3494 11.6387 11.6387C10.3494 12.928 9.62503 14.6767 9.62503 16.5H12.375ZM16.5 20.625C15.406 20.625 14.3568 20.1904 13.5832 19.4168C12.8096 18.6433 12.375 17.594 12.375 16.5H9.62503C9.62503 18.3234 10.3494 20.0721 11.6387 21.3614C12.928 22.6507 14.6767 23.375 16.5 23.375V20.625Z" fill="black"/>
</svg>
