<svg width="35" height="35" viewBox="0 0 35 35" fill="none" xmlns="http://www.w3.org/2000/svg">
<path d="M17.5001 5.83317V2.9165H32.0834V5.83317H17.5001ZM17.5001 11.6665V8.74984H32.0834V11.6665H17.5001ZM17.5001 17.4998V14.5832H32.0834V17.4998H17.5001ZM27.6355 32.0832C24.5973 32.0832 21.5956 31.4211 18.6303 30.0969C15.665 28.7728 12.9671 26.8949 10.5365 24.4634C8.10598 22.0318 6.22862 19.3339 4.90446 16.3696C3.58029 13.4053 2.91772 10.4036 2.91675 7.36442C2.91675 6.92692 3.06258 6.56234 3.35425 6.27067C3.64591 5.979 4.0105 5.83317 4.448 5.83317H10.3542C10.6945 5.83317 10.9983 5.94886 11.2657 6.18025C11.5331 6.41164 11.6911 6.68484 11.7397 6.99984L12.6876 12.104C12.7362 12.4929 12.724 12.821 12.6511 13.0884C12.5782 13.3557 12.4445 13.5866 12.2501 13.7811L8.71362 17.354C9.19973 18.2533 9.77675 19.1225 10.4447 19.9615C11.1126 20.8005 11.8481 21.6084 12.6511 22.3853C13.4046 23.1387 14.1945 23.8378 15.0209 24.4823C15.8473 25.1269 16.7223 25.7161 17.6459 26.2498L21.073 22.8228C21.2917 22.604 21.5776 22.4402 21.9305 22.3313C22.2834 22.2224 22.6295 22.1918 22.9688 22.2394L28.0001 23.2603C28.3404 23.3575 28.6199 23.5339 28.8386 23.7896C29.0574 24.0453 29.1667 24.3307 29.1667 24.6457V30.5519C29.1667 30.9894 29.0209 31.354 28.7292 31.6457C28.4376 31.9373 28.073 32.0832 27.6355 32.0832ZM7.32821 14.5832L9.73446 12.1769L9.11466 8.74984H5.86987C5.9914 9.74636 6.16154 10.7307 6.38029 11.703C6.59904 12.6752 6.91501 13.6353 7.32821 14.5832ZM20.3803 27.6353C21.3282 28.0484 22.2946 28.3766 23.2795 28.6196C24.2643 28.8627 25.2545 29.0207 26.2501 29.0936V25.8853L22.823 25.1925L20.3803 27.6353Z" fill="black"/>
</svg>
