<svg width="35" height="35" viewBox="0 0 35 35" fill="none" xmlns="http://www.w3.org/2000/svg">
<path d="M17.5 5.83317V2.9165H32.0834V5.83317H17.5ZM17.5 11.6665V8.74984H32.0834V11.6665H17.5ZM17.5 17.4998V14.5832H32.0834V17.4998H17.5ZM27.6354 32.0832C24.5972 32.0832 21.5955 31.4211 18.6302 30.0969C15.6649 28.7728 12.967 26.8949 10.5365 24.4634C8.10592 22.0318 6.22856 19.3339 4.9044 16.3696C3.58023 13.4053 2.91766 10.4036 2.91669 7.36442C2.91669 6.92692 3.06252 6.56234 3.35419 6.27067C3.64585 5.979 4.01044 5.83317 4.44794 5.83317H10.3542C10.6945 5.83317 10.9983 5.94886 11.2656 6.18025C11.533 6.41164 11.691 6.68484 11.7396 6.99984L12.6875 12.104C12.7361 12.4929 12.724 12.821 12.6511 13.0884C12.5781 13.3557 12.4445 13.5866 12.25 13.7811L8.71356 17.354C9.19967 18.2533 9.77669 19.1225 10.4446 19.9615C11.1125 20.8005 11.848 21.6084 12.6511 22.3853C13.4045 23.1387 14.1945 23.8378 15.0209 24.4823C15.8472 25.1269 16.7222 25.7161 17.6459 26.2498L21.0729 22.8228C21.2917 22.604 21.5775 22.4402 21.9304 22.3313C22.2834 22.2224 22.6295 22.1918 22.9688 22.2394L28 23.2603C28.3403 23.3575 28.6198 23.5339 28.8386 23.7896C29.0573 24.0453 29.1667 24.3307 29.1667 24.6457V30.5519C29.1667 30.9894 29.0209 31.354 28.7292 31.6457C28.4375 31.9373 28.0729 32.0832 27.6354 32.0832ZM7.32815 14.5832L9.7344 12.1769L9.1146 8.74984H5.86981C5.99134 9.74636 6.16148 10.7307 6.38023 11.703C6.59898 12.6752 6.91495 13.6353 7.32815 14.5832ZM20.3802 27.6353C21.3281 28.0484 22.2945 28.3766 23.2794 28.6196C24.2643 28.8627 25.2545 29.0207 26.25 29.0936V25.8853L22.8229 25.1925L20.3802 27.6353Z" fill="black"/>
</svg>
