<svg width="35" height="35" viewBox="0 0 35 35" fill="none" xmlns="http://www.w3.org/2000/svg">
<path d="M17.5 5.83317V2.9165H32.0833V5.83317H17.5ZM17.5 11.6665V8.74984H32.0833V11.6665H17.5ZM17.5 17.4998V14.5832H32.0833V17.4998H17.5ZM27.6354 32.0832C24.5972 32.0832 21.5954 31.4211 18.6302 30.0969C15.6649 28.7728 12.967 26.8949 10.5364 24.4634C8.10586 22.0318 6.2285 19.3339 4.90433 16.3696C3.58017 13.4053 2.9176 10.4036 2.91663 7.36442C2.91663 6.92692 3.06246 6.56234 3.35413 6.27067C3.64579 5.979 4.01038 5.83317 4.44788 5.83317H10.3541C10.6944 5.83317 10.9982 5.94886 11.2656 6.18025C11.5329 6.41164 11.6909 6.68484 11.7395 6.99984L12.6875 12.104C12.7361 12.4929 12.7239 12.821 12.651 13.0884C12.5781 13.3557 12.4444 13.5866 12.25 13.7811L8.7135 17.354C9.19961 18.2533 9.77663 19.1225 10.4445 19.9615C11.1125 20.8005 11.8479 21.6084 12.651 22.3853C13.4045 23.1387 14.1944 23.8378 15.0208 24.4823C15.8472 25.1269 16.7222 25.7161 17.6458 26.2498L21.0729 22.8228C21.2916 22.604 21.5775 22.4402 21.9304 22.3313C22.2833 22.2224 22.6294 22.1918 22.9687 22.2394L28 23.2603C28.3402 23.3575 28.6197 23.5339 28.8385 23.7896C29.0572 24.0453 29.1666 24.3307 29.1666 24.6457V30.5519C29.1666 30.9894 29.0208 31.354 28.7291 31.6457C28.4375 31.9373 28.0729 32.0832 27.6354 32.0832ZM7.32808 14.5832L9.73433 12.1769L9.11454 8.74984H5.86975C5.99128 9.74636 6.16142 10.7307 6.38017 11.703C6.59892 12.6752 6.91489 13.6353 7.32808 14.5832ZM20.3802 27.6353C21.3281 28.0484 22.2945 28.3766 23.2793 28.6196C24.2642 28.8627 25.2544 29.0207 26.25 29.0936V25.8853L22.8229 25.1925L20.3802 27.6353Z" fill="black"/>
</svg>
