<svg width="41" height="41" viewBox="0 0 41 41" fill="none" xmlns="http://www.w3.org/2000/svg">
<path d="M23.0625 13.6667H20.5V22.2083L27.8117 26.5475L29.0417 24.4804L23.0625 20.9271V13.6667ZM22.2084 5.125C18.1307 5.125 14.22 6.74486 11.3366 9.62823C8.45324 12.5116 6.83337 16.4223 6.83337 20.5H1.70837L8.47337 27.3846L15.375 20.5H10.25C10.25 17.3285 11.5099 14.2868 13.7526 12.0442C15.9952 9.80156 19.0368 8.54167 22.2084 8.54167C25.3799 8.54167 28.4216 9.80156 30.6642 12.0442C32.9068 14.2868 34.1667 17.3285 34.1667 20.5C34.1667 23.6715 32.9068 26.7132 30.6642 28.9558C28.4216 31.1984 25.3799 32.4583 22.2084 32.4583C18.9113 32.4583 15.9217 31.1087 13.7692 28.9392L11.3434 31.365C12.764 32.8007 14.4565 33.939 16.322 34.7134C18.1875 35.4877 20.1886 35.8826 22.2084 35.875C26.2861 35.875 30.1968 34.2551 33.0801 31.3718C35.9635 28.4884 37.5834 24.5777 37.5834 20.5C37.5834 16.4223 35.9635 12.5116 33.0801 9.62823C30.1968 6.74486 26.2861 5.125 22.2084 5.125Z" fill="black"/>
</svg>
