<svg width="41" height="41" viewBox="0 0 41 41" fill="none" xmlns="http://www.w3.org/2000/svg">
<path d="M23.0625 13.6667H20.5V22.2083L27.8117 26.5475L29.0417 24.4804L23.0625 20.9271V13.6667ZM22.2083 5.125C18.1306 5.125 14.2199 6.74486 11.3366 9.62823C8.45319 12.5116 6.83333 16.4223 6.83333 20.5H1.70833L8.47333 27.3846L15.375 20.5H10.25C10.25 17.3285 11.5099 14.2868 13.7525 12.0442C15.9951 9.80156 19.0368 8.54167 22.2083 8.54167C25.3799 8.54167 28.4215 9.80156 30.6642 12.0442C32.9068 14.2868 34.1667 17.3285 34.1667 20.5C34.1667 23.6715 32.9068 26.7132 30.6642 28.9558C28.4215 31.1984 25.3799 32.4583 22.2083 32.4583C18.9112 32.4583 15.9217 31.1087 13.7692 28.9392L11.3433 31.365C12.764 32.8007 14.4565 33.939 16.322 34.7134C18.1875 35.4877 20.1885 35.8826 22.2083 35.875C26.286 35.875 30.1967 34.2551 33.0801 31.3718C35.9635 28.4884 37.5833 24.5777 37.5833 20.5C37.5833 16.4223 35.9635 12.5116 33.0801 9.62823C30.1967 6.74486 26.286 5.125 22.2083 5.125Z" fill="white"/>
</svg>
