<svg width="21" height="20" viewBox="0 0 21 20" fill="none" xmlns="http://www.w3.org/2000/svg">
<path fill-rule="evenodd" clip-rule="evenodd" d="M10.5 2.2915C6.2443 2.2915 2.79163 5.75085 2.79163 10.0216C2.79163 13.9902 5.7738 17.2591 9.61043 17.7008C9.99579 17.7452 10.4083 17.5835 10.7381 17.2529C11.0394 16.9508 11.0394 16.4605 10.7381 16.1585C10.4782 15.8979 10.2175 15.5505 10.0749 15.1559C9.92882 14.7515 9.89271 14.2442 10.1891 13.7729C10.4582 13.3448 10.8617 13.1157 11.285 13.0043C11.6927 12.897 12.1444 12.8909 12.5783 12.9173C12.9817 12.9417 13.4158 12.998 13.837 13.0526C13.8726 13.0572 13.908 13.0618 13.9433 13.0664C14.4074 13.1263 14.8606 13.1821 15.2984 13.2031C16.1936 13.246 16.8832 13.1332 17.3545 12.7479C17.8055 12.3792 18.2083 11.6305 18.2083 10.0216C18.2083 5.75085 14.7556 2.2915 10.5 2.2915ZM1.54163 10.0216C1.54163 5.06357 5.55087 1.0415 10.5 1.0415C15.449 1.0415 19.4583 5.06357 19.4583 10.0216C19.4583 11.8093 19.0109 13.0083 18.1457 13.7156C17.3007 14.4064 16.2078 14.4982 15.2385 14.4517C14.744 14.428 14.2444 14.3656 13.7832 14.3061C13.7508 14.3019 13.7187 14.2977 13.6867 14.2936C13.2538 14.2376 12.8612 14.1867 12.5026 14.165C12.1141 14.1414 11.819 14.1563 11.6032 14.2131C11.4031 14.2658 11.3067 14.3438 11.2473 14.4382C11.215 14.4896 11.1922 14.5696 11.2505 14.7311C11.3124 14.9023 11.4473 15.0994 11.6232 15.2757C12.411 16.0657 12.411 17.3457 11.6232 18.1356C11.0813 18.6789 10.3068 19.0393 9.46747 18.9426C5.00467 18.4289 1.54163 14.63 1.54163 10.0216ZM8.48746 5.20798C8.14228 5.20798 7.86246 5.4878 7.86246 5.83298C7.86246 6.17816 8.14228 6.45798 8.48746 6.45798C8.83264 6.45798 9.11246 6.17816 9.11246 5.83298C9.11246 5.4878 8.83264 5.20798 8.48746 5.20798ZM6.61246 5.83298C6.61246 4.79745 7.45193 3.95798 8.48746 3.95798C9.523 3.95798 10.3625 4.79745 10.3625 5.83298C10.3625 6.86851 9.523 7.70798 8.48746 7.70798C7.45193 7.70798 6.61246 6.86851 6.61246 5.83298ZM12.5833 5.20817C12.2381 5.20817 11.9583 5.48799 11.9583 5.83317C11.9583 6.17835 12.2381 6.45817 12.5833 6.45817C12.9285 6.45817 13.2083 6.17835 13.2083 5.83317C13.2083 5.48799 12.9285 5.20817 12.5833 5.20817ZM10.7083 5.83317C10.7083 4.79764 11.5478 3.95817 12.5833 3.95817C13.6188 3.95817 14.4583 4.79764 14.4583 5.83317C14.4583 6.8687 13.6188 7.70817 12.5833 7.70817C11.5478 7.70817 10.7083 6.8687 10.7083 5.83317ZM5.91663 8.95817C5.57145 8.95817 5.29163 9.23799 5.29163 9.58317C5.29163 9.92835 5.57145 10.2082 5.91663 10.2082C6.2618 10.2082 6.54163 9.92835 6.54163 9.58317C6.54163 9.23799 6.2618 8.95817 5.91663 8.95817ZM4.04163 9.58317C4.04163 8.54764 4.88109 7.70817 5.91663 7.70817C6.95216 7.70817 7.79163 8.54764 7.79163 9.58317C7.79163 10.6187 6.95216 11.4582 5.91663 11.4582C4.88109 11.4582 4.04163 10.6187 4.04163 9.58317ZM15.0833 8.95817C14.7381 8.95817 14.4583 9.23799 14.4583 9.58317C14.4583 9.92835 14.7381 10.2082 15.0833 10.2082C15.4285 10.2082 15.7083 9.92835 15.7083 9.58317C15.7083 9.23799 15.4285 8.95817 15.0833 8.95817ZM13.2083 9.58317C13.2083 8.54764 14.0478 7.70817 15.0833 7.70817C16.1188 7.70817 16.9583 8.54764 16.9583 9.58317C16.9583 10.6187 16.1188 11.4582 15.0833 11.4582C14.0478 11.4582 13.2083 10.6187 13.2083 9.58317Z" fill="#2C2D3A"/>
</svg>
