<svg width="21" height="20" viewBox="0 0 21 20" fill="none" xmlns="http://www.w3.org/2000/svg">
<path fill-rule="evenodd" clip-rule="evenodd" d="M10.5 1.0415C6.93315 1.0415 4.04166 3.933 4.04166 7.49984V8.08659C4.04166 8.66736 3.86975 9.23513 3.5476 9.71836L2.59043 11.1541C1.47952 12.8205 2.32761 15.0855 4.25977 15.6125C4.88944 15.7842 5.52444 15.9294 6.16311 16.0482L6.16469 16.0525C6.80552 17.7624 8.51828 18.9582 10.4999 18.9582C12.4816 18.9582 14.1944 17.7624 14.8352 16.0525L14.8368 16.0483C15.4755 15.9295 16.1105 15.7842 16.7402 15.6125C18.6724 15.0855 19.5205 12.8205 18.4096 11.1541L17.4524 9.71836C17.1302 9.23513 16.9583 8.66736 16.9583 8.08659V7.49984C16.9583 3.933 14.0668 1.0415 10.5 1.0415ZM13.3137 16.2806C11.4445 16.504 9.55533 16.504 7.6862 16.2806C8.27866 17.1319 9.30914 17.7082 10.4999 17.7082C11.6907 17.7082 12.7212 17.1319 13.3137 16.2806ZM5.29166 7.49984C5.29166 4.62335 7.62351 2.2915 10.5 2.2915C13.3765 2.2915 15.7083 4.62335 15.7083 7.49984V8.08659C15.7083 8.91414 15.9533 9.72317 16.4123 10.4117L17.3695 11.8475C18.0071 12.804 17.5203 14.104 16.4113 14.4065C12.5411 15.462 8.45887 15.462 4.58866 14.4065C3.47964 14.104 2.99285 12.804 3.63049 11.8475L4.58766 10.4117C5.0467 9.72317 5.29166 8.91414 5.29166 8.08659V7.49984Z" fill="#2C2D3A"/>
</svg>
