<svg width="21" height="20" viewBox="0 0 21 20" fill="none" xmlns="http://www.w3.org/2000/svg">
<path fill-rule="evenodd" clip-rule="evenodd" d="M15.8739 1.65648C16.6939 0.836512 18.0233 0.836512 18.8433 1.65648C19.6633 2.47645 19.6633 3.80587 18.8433 4.62584L15.3003 8.16889C15.2918 8.17738 15.2834 8.18576 15.2751 8.19404C15.0828 8.38645 14.9489 8.52038 14.7987 8.63749C14.6222 8.77519 14.4312 8.89325 14.229 8.98958C14.0571 9.0715 13.8775 9.13135 13.6194 9.21735C13.6083 9.22105 13.597 9.2248 13.5856 9.22859L12.0544 9.73901C11.6869 9.86151 11.2817 9.76586 11.0078 9.49196C10.7339 9.21805 10.6383 8.8129 10.7608 8.44542L11.2712 6.91417C11.275 6.90277 11.2787 6.89153 11.2824 6.88043C11.3684 6.6223 11.4283 6.44265 11.5102 6.27075C11.6065 6.06863 11.7246 5.8776 11.8623 5.70105C11.9794 5.5509 12.1133 5.41703 12.3058 5.22467C12.314 5.2164 12.3224 5.20802 12.3309 5.19952L15.8739 1.65648ZM17.9594 2.54036C17.6276 2.20855 17.0896 2.20855 16.7578 2.54036L16.6481 2.65013C16.6524 2.66366 16.657 2.6776 16.662 2.69191C16.7301 2.88828 16.8595 3.14851 17.1054 3.39438C17.3513 3.64025 17.6115 3.76969 17.8079 3.83782C17.8222 3.84278 17.8361 3.84741 17.8497 3.85172L17.9594 3.74196C18.2912 3.41015 18.2912 2.87217 17.9594 2.54036ZM16.9047 4.79666C16.6827 4.67219 16.4476 4.50435 16.2215 4.27826C15.9954 4.05217 15.8276 3.81705 15.7031 3.59506L13.2148 6.08341C12.9879 6.31026 12.9119 6.38779 12.8479 6.46983C12.7661 6.57479 12.6959 6.68836 12.6386 6.80853C12.5939 6.90245 12.5585 7.0051 12.457 7.30945L12.2693 7.8727L12.6271 8.23049L13.1903 8.04274C13.4947 7.94129 13.5973 7.90593 13.6913 7.86117C13.8114 7.8039 13.925 7.73372 14.03 7.65185C14.112 7.58786 14.1895 7.51186 14.4164 7.285L16.9047 4.79666Z" fill="#2C2D3A"/>
<path fill-rule="evenodd" clip-rule="evenodd" d="M10.5 1.0415L10.4521 1.0415C8.52848 1.04149 7.02095 1.04148 5.84471 1.19963C4.64077 1.36149 3.69075 1.69928 2.94507 2.44495C2.1994 3.19063 1.86161 4.14065 1.69975 5.34459C1.54161 6.52083 1.54162 8.02836 1.54163 9.95202V10.0477C1.54162 11.9713 1.54161 13.4788 1.69975 14.6551C1.86161 15.859 2.1994 16.809 2.94507 17.5547C3.69075 18.3004 4.64077 18.6382 5.84471 18.8C7.02095 18.9582 8.52849 18.9582 10.4521 18.9582H10.5478C12.4714 18.9582 13.979 18.9582 15.1552 18.8C16.3592 18.6382 17.3092 18.3004 18.0548 17.5547C18.8005 16.809 19.1383 15.859 19.3002 14.6551C19.4583 13.4788 19.4583 11.9713 19.4583 10.0476V9.99984C19.4583 9.65466 19.1785 9.37484 18.8333 9.37484C18.4881 9.37484 18.2083 9.65466 18.2083 9.99984C18.2083 11.9817 18.207 13.4052 18.0613 14.4885C18.0556 14.5313 18.0496 14.5733 18.0435 14.6147L15.7318 12.5342C14.6489 11.5596 13.0363 11.4626 11.8444 12.3003L11.5959 12.4749C11.1818 12.7659 10.6183 12.7171 10.2604 12.3592L6.68564 8.78444C5.73947 7.83827 4.22174 7.78773 3.21472 8.66886L2.79244 9.03836C2.79623 7.5448 2.81766 6.41069 2.9386 5.51115C3.08183 4.44582 3.35424 3.80355 3.82896 3.32883C4.30367 2.85412 4.94594 2.58171 6.01127 2.43848C7.09459 2.29283 8.51811 2.2915 10.5 2.2915C10.8451 2.2915 11.125 2.01168 11.125 1.6665C11.125 1.32133 10.8451 1.0415 10.5 1.0415ZM2.9386 14.4885C3.08183 15.5539 3.35424 16.1961 3.82896 16.6708C4.30367 17.1456 4.94594 17.418 6.01127 17.5612C7.09459 17.7068 8.51811 17.7082 10.5 17.7082C12.4818 17.7082 13.9053 17.7068 14.9886 17.5612C16.054 17.418 16.6962 17.1456 17.171 16.6708C17.3739 16.4679 17.5399 16.2343 17.6746 15.9502C17.6422 15.9304 17.6111 15.9073 17.5819 15.881L14.8956 13.4633C14.2459 12.8786 13.2783 12.8204 12.5632 13.323L12.3147 13.4976C11.4035 14.1379 10.164 14.0306 9.37653 13.2431L5.80176 9.66832C5.32091 9.18748 4.54961 9.1618 4.03784 9.60959L2.79194 10.6997C2.79409 12.3235 2.8107 13.5372 2.9386 14.4885Z" fill="#2C2D3A"/>
</svg>
