<svg width="21" height="20" viewBox="0 0 21 20" fill="none" xmlns="http://www.w3.org/2000/svg">
<path d="M10.5 5.20817C10.8451 5.20817 11.125 5.48799 11.125 5.83317V10.8332C11.125 11.1783 10.8451 11.4582 10.5 11.4582C10.1548 11.4582 9.87496 11.1783 9.87496 10.8332V5.83317C9.87496 5.48799 10.1548 5.20817 10.5 5.20817Z" fill="#F44336"/>
<path d="M10.5 14.1665C10.9602 14.1665 11.3333 13.7934 11.3333 13.3332C11.3333 12.8729 10.9602 12.4998 10.5 12.4998C10.0397 12.4998 9.66663 12.8729 9.66663 13.3332C9.66663 13.7934 10.0397 14.1665 10.5 14.1665Z" fill="#F44336"/>
<path fill-rule="evenodd" clip-rule="evenodd" d="M1.54163 9.99984C1.54163 5.05229 5.55241 1.0415 10.5 1.0415C15.4475 1.0415 19.4583 5.05229 19.4583 9.99984C19.4583 14.9474 15.4475 18.9582 10.5 18.9582C5.55241 18.9582 1.54163 14.9474 1.54163 9.99984ZM10.5 2.2915C6.24276 2.2915 2.79163 5.74264 2.79163 9.99984C2.79163 14.257 6.24276 17.7082 10.5 17.7082C14.7572 17.7082 18.2083 14.257 18.2083 9.99984C18.2083 5.74264 14.7572 2.2915 10.5 2.2915Z" fill="#F44336"/>
</svg>
