<svg width="21" height="20" viewBox="0 0 21 20" fill="none" xmlns="http://www.w3.org/2000/svg">
<path fill-rule="evenodd" clip-rule="evenodd" d="M10.6169 4.09148C10.0217 4.38062 9.26742 4.87636 8.19258 5.58505L8.01014 5.70534C7.99625 5.7145 7.98255 5.72354 7.96902 5.73246C7.65219 5.94145 7.43276 6.08619 7.19231 6.19231C6.95534 6.29689 6.7063 6.3716 6.4509 6.41473C6.19174 6.4585 5.92887 6.45844 5.54931 6.45837C5.53311 6.45836 5.5167 6.45836 5.50007 6.45836C4.29701 6.45836 3.89093 6.47193 3.54567 6.63166C3.21204 6.78602 2.8567 7.12036 2.68233 7.44398C2.50044 7.78158 2.46704 8.12758 2.40283 9.18105C2.38521 9.47019 2.375 9.74734 2.375 10C2.375 10.2527 2.38521 10.5299 2.40283 10.819C2.46704 11.8725 2.50044 12.2185 2.68233 12.5561C2.8567 12.8797 3.21204 13.214 3.54567 13.3684C3.89093 13.5281 4.29701 13.5417 5.50007 13.5417C5.5167 13.5417 5.53311 13.5417 5.54931 13.5417C5.92887 13.5416 6.19174 13.5416 6.4509 13.5853C6.7063 13.6284 6.95534 13.7032 7.19231 13.8077C7.43276 13.9139 7.65219 14.0586 7.96902 14.2676C7.98254 14.2765 7.99624 14.2856 8.01013 14.2947L8.19258 14.415C9.26742 15.1237 10.0217 15.6194 10.6169 15.9086C11.2104 16.1969 11.5072 16.2085 11.7149 16.1376C11.8294 16.0985 11.9414 16.0415 12.0404 15.972C12.2209 15.8451 12.3855 15.5996 12.5013 14.9568C12.6175 14.3111 12.6603 13.4178 12.7196 12.1422C12.763 11.2092 12.7917 10.4265 12.7917 10C12.7917 9.57355 12.763 8.79085 12.7196 7.85788C12.6603 6.58226 12.6175 5.68897 12.5013 5.04324C12.3855 4.40043 12.2209 4.15496 12.0404 4.02809C11.9414 3.95852 11.8294 3.90151 11.7149 3.86243C11.5072 3.79158 11.2104 3.80314 10.6169 4.09148ZM10.0707 2.96713C10.759 2.63274 11.4368 2.44675 12.1186 2.67942C12.3451 2.75674 12.5632 2.86773 12.7591 3.00538C13.3475 3.41889 13.5965 4.07223 13.7315 4.82177C13.8642 5.55873 13.9095 6.53535 13.966 7.75193L13.9683 7.79986C14.0114 8.729 14.0417 9.54003 14.0417 10C14.0417 10.46 14.0114 11.2711 13.9683 12.2002L13.966 12.2481C13.9095 13.4647 13.8642 14.4413 13.7315 15.1783C13.5965 15.9278 13.3475 16.5812 12.7591 16.9947C12.5632 17.1323 12.3451 17.2433 12.1186 17.3206C11.4368 17.5533 10.759 17.3673 10.0707 17.0329C9.3927 16.7036 8.57011 16.1612 7.54439 15.4849L7.32206 15.3383C6.9488 15.0922 6.8204 15.0099 6.68761 14.9513C6.54543 14.8886 6.396 14.8437 6.24276 14.8179C6.09964 14.7937 5.94717 14.7917 5.50007 14.7917C5.45474 14.7917 5.41002 14.7917 5.36589 14.7917C4.35179 14.7923 3.64716 14.7926 3.0208 14.5029C2.4418 14.235 1.88451 13.7106 1.5819 13.149C1.25472 12.5417 1.21633 11.9067 1.16174 11.0038C1.15957 10.968 1.15738 10.9317 1.15515 10.8951C1.13644 10.5882 1.125 10.2847 1.125 10C1.125 9.71538 1.13644 9.41189 1.15515 9.105C1.15738 9.06833 1.15957 9.0321 1.16174 8.99628C1.21633 8.09333 1.25472 7.4583 1.5819 6.85107C1.88451 6.28943 2.4418 5.76508 3.0208 5.4972C3.64716 5.20741 4.35179 5.20778 5.36589 5.20831C5.41002 5.20834 5.45474 5.20836 5.50007 5.20836C5.94717 5.20836 6.09964 5.20635 6.24276 5.18218C6.396 5.15631 6.54543 5.11148 6.68761 5.04873C6.8204 4.99012 6.9488 4.90787 7.32206 4.66176L7.5444 4.51517C8.57012 3.83885 9.39271 3.29647 10.0707 2.96713ZM16.7666 4.52006C17.0317 4.29909 17.4258 4.33491 17.6468 4.60009L17.1667 5.0002C17.6468 4.60009 17.6468 4.60009 17.6468 4.60009L17.6478 4.60123L17.6488 4.60252L17.6513 4.60553L17.6576 4.61326C17.6623 4.61917 17.6682 4.62661 17.6751 4.6356C17.689 4.65358 17.7072 4.67775 17.729 4.70822C17.7725 4.76917 17.8305 4.85533 17.8979 4.96771C18.0328 5.19255 18.2052 5.52186 18.375 5.96334C18.7152 6.84781 19.0417 8.1739 19.0417 10.0002C19.0417 11.8265 18.7152 13.1526 18.375 14.0371C18.2052 14.4785 18.0328 14.8079 17.8979 15.0327C17.8305 15.1451 17.7725 15.2312 17.729 15.2922C17.7072 15.3227 17.689 15.3468 17.6751 15.3648C17.671 15.3702 17.6672 15.375 17.6638 15.3793C17.6616 15.3821 17.6595 15.3848 17.6576 15.3872L17.6513 15.3949L17.6488 15.3979L17.6478 15.3992C17.6478 15.3992 17.6468 15.4003 17.1667 15.0002L17.6468 15.4003C17.4258 15.6655 17.0317 15.7013 16.7666 15.4803C16.5027 15.2604 16.4659 14.869 16.6834 14.6039M16.6834 14.6039C16.6834 14.6039 16.6848 14.602 16.6863 14.6002C16.6907 14.5945 16.6994 14.583 16.7118 14.5656C16.7366 14.5309 16.7763 14.4725 16.826 14.3896C16.9255 14.2238 17.0656 13.9594 17.2083 13.5883C17.4931 12.8478 17.7917 11.6739 17.7917 10.0002C17.7917 8.32651 17.4931 7.15259 17.2083 6.41207C17.0656 6.04105 16.9255 5.7766 16.826 5.61083C16.7763 5.52789 16.7366 5.46952 16.7118 5.43477C16.6994 5.41739 16.6907 5.4059 16.6863 5.4002C16.6848 5.39836 16.6834 5.39648 16.6834 5.39648L16.6863 5.4002L16.685 5.39843L16.6834 5.39648C16.4659 5.13135 16.5027 4.73998 16.7666 4.52006M15.1965 6.95386C15.4982 6.78622 15.8787 6.89494 16.0463 7.19668L15.523 7.48742C16.0464 7.19668 16.0463 7.19668 16.0463 7.19668L16.047 7.19777L16.0476 7.19893L16.049 7.20147L16.0522 7.2074L16.0602 7.22269C16.0663 7.23442 16.0737 7.24922 16.0822 7.26714C16.0993 7.30299 16.1209 7.35133 16.1454 7.41262C16.1945 7.53525 16.2549 7.70937 16.3137 7.93872C16.4315 8.39783 16.5417 9.07511 16.5417 10.0002C16.5417 10.9253 16.4315 11.6026 16.3137 12.0617C16.2549 12.291 16.1945 12.4652 16.1454 12.5878C16.1209 12.6491 16.0993 12.6974 16.0822 12.7333C16.0737 12.7512 16.0663 12.766 16.0602 12.7777L16.0522 12.793L16.049 12.7989L16.0476 12.8015L16.047 12.8026C16.047 12.8026 16.0464 12.8037 15.523 12.513L16.0463 12.8037C15.8787 13.1055 15.4982 13.2142 15.1965 13.0466C14.8973 12.8803 14.7879 12.5049 14.9494 12.2044L14.9536 12.1959C14.9593 12.1839 14.9703 12.1599 14.9848 12.1236C15.0139 12.0509 15.0576 11.9281 15.1029 11.7512C15.1935 11.3978 15.2917 10.8251 15.2917 10.0002C15.2917 9.1753 15.1935 8.60257 15.1029 8.24919C15.0576 8.07229 15.0139 7.94953 14.9848 7.87685C14.9703 7.84049 14.9593 7.81655 14.9536 7.80456L14.9494 7.79602C14.7879 7.49554 14.8973 7.12006 15.1965 6.95386Z" fill="#2C2D3A"/>
</svg>
