<svg width="21" height="20" viewBox="0 0 21 20" fill="none" xmlns="http://www.w3.org/2000/svg">
<path fill-rule="evenodd" clip-rule="evenodd" d="M10.5 6.87516C8.77407 6.87516 7.37496 8.27427 7.37496 10.0002C7.37496 11.7261 8.77407 13.1252 10.5 13.1252C12.2258 13.1252 13.625 11.7261 13.625 10.0002C13.625 8.27427 12.2258 6.87516 10.5 6.87516ZM8.62496 10.0002C8.62496 8.96463 9.46443 8.12516 10.5 8.12516C11.5355 8.12516 12.375 8.96463 12.375 10.0002C12.375 11.0357 11.5355 11.8752 10.5 11.8752C9.46443 11.8752 8.62496 11.0357 8.62496 10.0002Z" fill="#2C2D3A"/>
<path fill-rule="evenodd" clip-rule="evenodd" d="M10.5 2.7085C6.73818 2.7085 4.20437 4.96199 2.73377 6.87255L2.70724 6.907C2.37466 7.33894 2.06834 7.73676 1.86053 8.20716C1.638 8.71089 1.54163 9.2599 1.54163 10.0002C1.54163 10.7404 1.638 11.2894 1.86053 11.7932C2.06834 12.2636 2.37466 12.6614 2.70725 13.0933L2.73377 13.1278C4.20437 15.0383 6.73818 17.2918 10.5 17.2918C14.2617 17.2918 16.7955 15.0383 18.2662 13.1278L18.2927 13.0934C18.6253 12.6614 18.9316 12.2636 19.1394 11.7932C19.3619 11.2894 19.4583 10.7404 19.4583 10.0002C19.4583 9.2599 19.3619 8.71089 19.1394 8.20716C18.9316 7.73676 18.6253 7.33893 18.2927 6.90698L18.2662 6.87255C16.7955 4.96199 14.2617 2.7085 10.5 2.7085ZM3.72431 7.635C5.08216 5.87093 7.29192 3.9585 10.5 3.9585C13.708 3.9585 15.9178 5.87093 17.2756 7.63499C17.6411 8.10982 17.8552 8.39354 17.996 8.71229C18.1276 9.01018 18.2083 9.37428 18.2083 10.0002C18.2083 10.6261 18.1276 10.9901 17.996 11.288C17.8552 11.6068 17.6411 11.8905 17.2756 12.3653C15.9178 14.1294 13.708 16.0418 10.5 16.0418C7.29193 16.0418 5.08216 14.1294 3.72431 12.3653C3.35882 11.8905 3.14474 11.6068 3.00393 11.288C2.87232 10.9901 2.79163 10.6261 2.79163 10.0002C2.79163 9.37428 2.87232 9.01018 3.00393 8.71229C3.14474 8.39354 3.35882 8.10982 3.72431 7.635Z" fill="#2C2D3A"/>
</svg>
