<svg width="21" height="20" viewBox="0 0 21 20" fill="none" xmlns="http://www.w3.org/2000/svg">
<path fill-rule="evenodd" clip-rule="evenodd" d="M10.5 1.0415C5.55241 1.0415 1.54163 5.05229 1.54163 9.99984C1.54163 14.9474 5.55241 18.9582 10.5 18.9582C15.4475 18.9582 19.4583 14.9474 19.4583 9.99984C19.4583 5.05229 15.4475 1.0415 10.5 1.0415ZM2.79163 9.99984C2.79163 5.74264 6.24276 2.2915 10.5 2.2915C12.4037 2.2915 14.1463 2.98164 15.4911 4.12539C15.4856 4.13055 15.4801 4.13583 15.4747 4.14123L4.64137 14.9744C4.63593 14.9798 4.63062 14.9853 4.62543 14.9909C3.48173 13.6461 2.79163 11.9035 2.79163 9.99984ZM5.50871 15.8742C6.85356 17.018 8.59616 17.7082 10.5 17.7082C14.7572 17.7082 18.2083 14.257 18.2083 9.99984C18.2083 8.09608 17.5182 6.35352 16.3744 5.00869C16.3692 5.01424 16.364 5.01972 16.3586 5.02512L5.52525 15.8583C5.51981 15.8637 5.51429 15.869 5.50871 15.8742Z" fill="#F44336"/>
</svg>
