<svg width="21" height="20" viewBox="0 0 21 20" fill="none" xmlns="http://www.w3.org/2000/svg">
<g clip-path="url(#clip0_203_261)">
<path fill-rule="evenodd" clip-rule="evenodd" d="M10.5 1.0415C8.31391 1.0415 6.54171 2.81371 6.54171 4.99984C6.54171 7.18596 8.31391 8.95817 10.5 8.95817C12.6862 8.95817 14.4584 7.18596 14.4584 4.99984C14.4584 2.81371 12.6862 1.0415 10.5 1.0415ZM7.79171 4.99984C7.79171 3.50407 9.00427 2.2915 10.5 2.2915C11.9958 2.2915 13.2084 3.50407 13.2084 4.99984C13.2084 6.49561 11.9958 7.70817 10.5 7.70817C9.00427 7.70817 7.79171 6.49561 7.79171 4.99984Z" fill="#2C2D3A"/>
<path d="M15.5 2.70817C15.1549 2.70817 14.875 2.98799 14.875 3.33317C14.875 3.67835 15.1549 3.95817 15.5 3.95817C16.6471 3.95817 17.375 4.71295 17.375 5.4165C17.375 6.12006 16.6471 6.87484 15.5 6.87484C15.1549 6.87484 14.875 7.15466 14.875 7.49984C14.875 7.84502 15.1549 8.12484 15.5 8.12484C17.1144 8.12484 18.625 7.01413 18.625 5.4165C18.625 3.81888 17.1144 2.70817 15.5 2.70817Z" fill="#2C2D3A"/>
<path d="M6.12504 3.33317C6.12504 2.98799 5.84522 2.70817 5.50004 2.70817C3.88569 2.70817 2.37504 3.81888 2.37504 5.4165C2.37504 7.01413 3.88569 8.12484 5.50004 8.12484C5.84522 8.12484 6.12504 7.84502 6.12504 7.49984C6.12504 7.15466 5.84522 6.87484 5.50004 6.87484C4.35297 6.87484 3.62504 6.12006 3.62504 5.4165C3.62504 4.71295 4.35297 3.95817 5.50004 3.95817C5.84522 3.95817 6.12504 3.67835 6.12504 3.33317Z" fill="#2C2D3A"/>
<path fill-rule="evenodd" clip-rule="evenodd" d="M10.5 10.2082C9.01315 10.2082 7.63875 10.6088 6.61782 11.2895C5.60126 11.9672 4.87504 12.972 4.87504 14.1665C4.87504 15.361 5.60126 16.3659 6.61782 17.0436C7.63875 17.7242 9.01315 18.1248 10.5 18.1248C11.9869 18.1248 13.3613 17.7242 14.3823 17.0436C15.3988 16.3659 16.125 15.361 16.125 14.1665C16.125 12.972 15.3988 11.9672 14.3823 11.2895C13.3613 10.6088 11.9869 10.2082 10.5 10.2082ZM6.12504 14.1665C6.12504 13.52 6.51811 12.8582 7.31119 12.3295C8.09991 11.8037 9.22551 11.4582 10.5 11.4582C11.7746 11.4582 12.9002 11.8037 13.6889 12.3295C14.482 12.8582 14.875 13.52 14.875 14.1665C14.875 14.813 14.482 15.4748 13.6889 16.0035C12.9002 16.5293 11.7746 16.8748 10.5 16.8748C9.22551 16.8748 8.09991 16.5293 7.31119 16.0035C6.51811 15.4748 6.12504 14.813 6.12504 14.1665Z" fill="#2C2D3A"/>
<path d="M16.5562 11.5326C16.6302 11.1955 16.9634 10.9821 17.3006 11.056C18.1022 11.2318 18.8245 11.5493 19.3607 11.9881C19.8965 12.4265 20.2917 13.0292 20.2917 13.7498C20.2917 14.4705 19.8965 15.0731 19.3607 15.5116C18.8245 15.9504 18.1022 16.2679 17.3006 16.4437C16.9634 16.5176 16.6302 16.3042 16.5562 15.967C16.4823 15.6299 16.6957 15.2966 17.0328 15.2227C17.6931 15.0779 18.2208 14.8292 18.5691 14.5442C18.9179 14.2588 19.0417 13.9801 19.0417 13.7498C19.0417 13.5196 18.9179 13.2409 18.5691 12.9555C18.2208 12.6705 17.6931 12.4218 17.0328 12.277C16.6957 12.2031 16.4823 11.8698 16.5562 11.5326Z" fill="#2C2D3A"/>
<path d="M3.6995 11.056C4.03666 10.9821 4.36993 11.1955 4.44387 11.5326C4.51781 11.8698 4.30442 12.2031 3.96725 12.277C3.30695 12.4218 2.77925 12.6705 2.43098 12.9555C2.08223 13.2409 1.95837 13.5196 1.95837 13.7498C1.95837 13.9801 2.08223 14.2588 2.43098 14.5442C2.77925 14.8292 3.30695 15.0779 3.96725 15.2227C4.30442 15.2966 4.51781 15.6299 4.44387 15.967C4.36993 16.3042 4.03666 16.5176 3.6995 16.4437C2.89793 16.2679 2.17563 15.9504 1.63937 15.5116C1.10358 15.0731 0.708374 14.4705 0.708374 13.7498C0.708374 13.0292 1.10358 12.4265 1.63937 11.9881C2.17563 11.5493 2.89793 11.2318 3.6995 11.056Z" fill="#2C2D3A"/>
</g>
<defs>
<clipPath id="clip0_203_261">
<rect width="20" height="20" fill="white" transform="translate(0.5)"/>
</clipPath>
</defs>
</svg>
