<svg width="21" height="20" viewBox="0 0 21 20" fill="none" xmlns="http://www.w3.org/2000/svg">
<path fill-rule="evenodd" clip-rule="evenodd" d="M13.8333 5.62484C13.258 5.62484 12.7916 6.09121 12.7916 6.6665C12.7916 7.2418 13.258 7.70817 13.8333 7.70817C14.4086 7.70817 14.875 7.2418 14.875 6.6665C14.875 6.09121 14.4086 5.62484 13.8333 5.62484ZM11.5416 6.6665C11.5416 5.40085 12.5676 4.37484 13.8333 4.37484C15.0989 4.37484 16.125 5.40085 16.125 6.6665C16.125 7.93216 15.0989 8.95817 13.8333 8.95817C12.5676 8.95817 11.5416 7.93216 11.5416 6.6665Z" fill="#2C2D3A"/>
<path fill-rule="evenodd" clip-rule="evenodd" d="M10.4521 1.0415H10.5478C12.4714 1.04149 13.979 1.04148 15.1552 1.19963C16.3592 1.36149 17.3092 1.69928 18.0548 2.44495C18.8005 3.19063 19.1383 4.14065 19.3002 5.34459C19.4583 6.52083 19.4583 8.02836 19.4583 9.95203V10.0476C19.4583 11.9713 19.4583 13.4788 19.3002 14.6551C19.1383 15.859 18.8005 16.809 18.0548 17.5547C17.3092 18.3004 16.3592 18.6382 15.1552 18.8C13.979 18.9582 12.4714 18.9582 10.5478 18.9582H10.4521C8.52849 18.9582 7.02095 18.9582 5.84471 18.8C4.64077 18.6382 3.69075 18.3004 2.94507 17.5547C2.1994 16.809 1.86161 15.859 1.69975 14.6551C1.54161 13.4788 1.54162 11.9713 1.54163 10.0477V9.95202C1.54162 8.02836 1.54161 6.52083 1.69975 5.34459C1.86161 4.14065 2.1994 3.19063 2.94507 2.44495C3.69075 1.69928 4.64077 1.36149 5.84471 1.19963C7.02095 1.04148 8.52848 1.04149 10.4521 1.0415ZM3.82896 16.6708C3.35424 16.1961 3.08183 15.5539 2.9386 14.4885C2.8107 13.5372 2.79409 12.3236 2.79194 10.6999L4.03784 9.60979C4.54961 9.162 5.32091 9.18769 5.80176 9.66853L9.37653 13.2433C10.164 14.0308 11.4035 14.1381 12.3147 13.4978L12.5632 13.3232C13.2783 12.8206 14.2459 12.8788 14.8956 13.4635L17.5819 15.8812C17.6111 15.9075 17.6421 15.9305 17.6745 15.9503C17.5398 16.2344 17.3739 16.4679 17.171 16.6708C16.6962 17.1456 16.054 17.418 14.9886 17.5612C13.9053 17.7068 12.4818 17.7082 10.5 17.7082C8.51811 17.7082 7.09459 17.7068 6.01127 17.5612C4.94594 17.418 4.30367 17.1456 3.82896 16.6708ZM6.01127 2.43848C4.94594 2.58171 4.30367 2.85412 3.82896 3.32883C3.35424 3.80355 3.08183 4.44582 2.9386 5.51115C2.81766 6.41073 2.79623 7.5449 2.79244 9.03856L3.21472 8.66907C4.22174 7.78793 5.73947 7.83847 6.68564 8.78464L10.2604 12.3594C10.6183 12.7173 11.1818 12.7662 11.5959 12.4751L11.8444 12.3005C13.0363 11.4628 14.6489 11.5598 15.7318 12.5344L18.0434 14.6149C18.0496 14.5734 18.0556 14.5313 18.0613 14.4885C18.207 13.4052 18.2083 11.9817 18.2083 9.99984C18.2083 8.01798 18.207 6.59447 18.0613 5.51115C17.9181 4.44582 17.6457 3.80355 17.171 3.32883C16.6962 2.85412 16.054 2.58171 14.9886 2.43848C13.9053 2.29283 12.4818 2.2915 10.5 2.2915C8.51811 2.2915 7.09459 2.29283 6.01127 2.43848Z" fill="#2C2D3A"/>
</svg>
