<svg width="21" height="20" viewBox="0 0 21 20" fill="none" xmlns="http://www.w3.org/2000/svg">
<path fill-rule="evenodd" clip-rule="evenodd" d="M8.20833 7.49984C8.20833 6.23418 9.23435 5.20817 10.5 5.20817C11.7657 5.20817 12.7917 6.23418 12.7917 7.49984C12.7917 8.76549 11.7657 9.7915 10.5 9.7915C9.23435 9.7915 8.20833 8.76549 8.20833 7.49984ZM10.5 6.45817C9.9247 6.45817 9.45833 6.92454 9.45833 7.49984C9.45833 8.07513 9.9247 8.5415 10.5 8.5415C11.0753 8.5415 11.5417 8.07513 11.5417 7.49984C11.5417 6.92454 11.0753 6.45817 10.5 6.45817Z" fill="#2C2D3A"/>
<path fill-rule="evenodd" clip-rule="evenodd" d="M10.5 10.2082C9.50354 10.2082 8.57051 10.4088 7.86347 10.7623C7.19381 11.0971 6.54167 11.6753 6.54167 12.4998L6.54156 12.5519C6.54028 12.9772 6.53813 13.6933 7.21686 14.1846C7.53182 14.4126 7.94741 14.558 8.46224 14.6507C8.98184 14.7441 9.64768 14.7915 10.5 14.7915C11.3523 14.7915 12.0182 14.7441 12.5378 14.6507C13.0526 14.558 13.4682 14.4126 13.7831 14.1846C14.4619 13.6933 14.4597 12.9772 14.4584 12.5519L14.4583 12.4998C14.4583 11.6753 13.8062 11.0971 13.1365 10.7623C12.4295 10.4088 11.4965 10.2082 10.5 10.2082ZM7.79167 12.4998C7.79167 12.4039 7.88571 12.1487 8.42249 11.8803C8.92188 11.6306 9.65551 11.4582 10.5 11.4582C11.3445 11.4582 12.0781 11.6306 12.5775 11.8803C13.1143 12.1487 13.2083 12.4039 13.2083 12.4998C13.2083 13.0036 13.1763 13.0808 13.0502 13.1721C12.9485 13.2457 12.7391 13.3444 12.3164 13.4204C11.8985 13.4956 11.3143 13.5415 10.5 13.5415C9.68566 13.5415 9.1015 13.4956 8.68359 13.4204C8.26092 13.3444 8.05151 13.2457 7.94981 13.1721C7.82374 13.0808 7.79167 13.0036 7.79167 12.4998Z" fill="#2C2D3A"/>
<path fill-rule="evenodd" clip-rule="evenodd" d="M7.76949 1.7091C8.97277 1.29699 9.71873 1.0415 10.5 1.0415C11.2813 1.0415 12.0272 1.29699 13.2305 1.7091L13.8367 1.91661C15.0711 2.33917 16.0238 2.66527 16.7058 2.94233C17.0493 3.08189 17.3447 3.21706 17.5825 3.35518C17.8114 3.48809 18.041 3.65387 18.197 3.87612C18.3512 4.0958 18.4309 4.36587 18.481 4.62585C18.5331 4.89614 18.5645 5.22037 18.5847 5.59264C18.625 6.33184 18.625 7.34451 18.625 8.65802V9.99264C18.625 15.0768 14.785 17.5144 12.5014 18.512L12.4788 18.5218C12.1956 18.6456 11.9295 18.7619 11.6237 18.8402C11.3008 18.9228 10.9577 18.9582 10.5 18.9582C10.0423 18.9582 9.69922 18.9228 9.37634 18.8402C9.07051 18.7619 8.80436 18.6456 8.52119 18.5218L8.49861 18.512C6.21502 17.5144 2.375 15.0768 2.375 9.99264V8.65809C2.375 7.34465 2.375 6.33181 2.41525 5.59264C2.43552 5.22037 2.46693 4.89614 2.51901 4.62585C2.56911 4.36587 2.64884 4.0958 2.80303 3.87612C2.95902 3.65387 3.18862 3.48809 3.41748 3.35518C3.65531 3.21706 3.95065 3.08189 4.29419 2.94233C4.97617 2.66527 5.92885 2.33917 7.16329 1.91662L7.76949 1.7091ZM10.5 2.2915C9.95188 2.2915 9.41262 2.46787 8.06718 2.92842L7.58984 3.09181C6.32934 3.52329 5.41008 3.83821 4.76466 4.10041C4.4425 4.23129 4.20908 4.34096 4.04524 4.43611C3.96435 4.48309 3.90861 4.52185 3.87139 4.55211C3.83983 4.57776 3.8278 4.59229 3.82608 4.59441C3.82446 4.59703 3.81411 4.61434 3.79952 4.65528C3.78287 4.70204 3.76441 4.76908 3.74643 4.86238C3.71003 5.05125 3.68245 5.31068 3.6634 5.6606C3.62523 6.3616 3.625 7.34012 3.625 8.68038V9.99264C3.625 14.3052 6.84991 16.4277 8.99899 17.3665C9.30856 17.5017 9.48732 17.5783 9.68633 17.6292C9.8764 17.6779 10.1083 17.7082 10.5 17.7082C10.8917 17.7082 11.1236 17.6779 11.3137 17.6292C11.5127 17.5783 11.6914 17.5017 12.001 17.3665C14.1501 16.4277 17.375 14.3052 17.375 9.99264V8.68038C17.375 7.34012 17.3748 6.3616 17.3366 5.6606C17.3175 5.31068 17.29 5.05125 17.2536 4.86238C17.2356 4.76908 17.2171 4.70204 17.2005 4.65528C17.1859 4.61431 17.1755 4.597 17.1739 4.5944C17.1722 4.59227 17.1601 4.57774 17.1286 4.55211C17.0914 4.52185 17.0356 4.48309 16.9548 4.43611C16.7909 4.34096 16.5575 4.23129 16.2353 4.10041C15.5899 3.83821 14.6707 3.52329 13.4102 3.09181L12.9328 2.92842C11.5874 2.46787 11.0481 2.2915 10.5 2.2915Z" fill="#2C2D3A"/>
</svg>
