<svg width="36" height="35" viewBox="0 0 36 35" fill="none" xmlns="http://www.w3.org/2000/svg">
<path fill-rule="evenodd" clip-rule="evenodd" d="M22.5 1.82275H16.4154C13.6587 1.82273 11.4753 1.82271 9.76647 2.04608C8.00783 2.27595 6.58441 2.76029 5.46187 3.85165C4.33932 4.94301 3.84115 6.3269 3.6047 8.03668C3.37496 9.69803 3.37498 11.8208 3.375 14.5009V23.3332C3.375 26.0635 5.43308 28.3265 8.12327 28.7359C8.33023 29.85 8.72629 30.801 9.52253 31.5752C10.4254 32.453 11.5622 32.8305 12.9124 33.007C14.2128 33.177 15.8663 33.177 17.9177 33.1769H22.5823C24.6337 33.177 26.2872 33.177 27.5876 33.007C28.9378 32.8305 30.0746 32.453 30.9775 31.5752C31.8804 30.6974 32.2687 29.5921 32.4502 28.2795C32.6251 27.0151 32.625 25.4076 32.625 23.4132V15.9615C32.625 13.9671 32.6251 12.3595 32.4502 11.0952C32.2687 9.78254 31.8804 8.67731 30.9775 7.79952C30.1812 7.0254 29.2031 6.64034 28.0571 6.43913C27.636 3.82366 25.3084 1.82275 22.5 1.82275ZM25.694 6.22863C25.2398 4.9381 23.9813 4.01026 22.5 4.01026H16.5C13.6398 4.01026 11.6078 4.01258 10.0663 4.21407C8.55714 4.41133 7.68767 4.78127 7.05286 5.39845C6.41804 6.01563 6.03754 6.86095 5.83464 8.32816C5.62739 9.82684 5.625 11.8024 5.625 14.5832V23.3332C5.625 24.7734 6.57935 25.9968 7.90675 26.4384C7.87497 25.5489 7.87498 24.5431 7.875 23.4132V15.9615C7.87497 13.9671 7.87494 12.3595 8.04979 11.0952C8.23131 9.78254 8.61965 8.67731 9.52253 7.79952C10.4254 6.92172 11.5622 6.54417 12.9124 6.36768C14.2128 6.1977 15.8663 6.19772 17.9177 6.19775H22.5823C23.7445 6.19774 24.7791 6.19772 25.694 6.22863ZM11.1135 9.34631C11.5287 8.9427 12.1115 8.67955 13.2122 8.53568C14.3452 8.38758 15.8469 8.38526 18 8.38526H22.5C24.6531 8.38526 26.1548 8.38758 27.2878 8.53568C28.3885 8.67955 28.9713 8.9427 29.3865 9.34631C29.8016 9.74992 30.0723 10.3166 30.2203 11.3867C30.3726 12.4882 30.375 13.9482 30.375 16.0415V23.3332C30.375 25.4265 30.3726 26.8864 30.2203 27.988C30.0723 29.0581 29.8016 29.6248 29.3865 30.0284C28.9713 30.432 28.3885 30.6951 27.2878 30.839C26.1548 30.9871 24.6531 30.9894 22.5 30.9894H18C15.8469 30.9894 14.3452 30.9871 13.2122 30.839C12.1115 30.6951 11.5287 30.432 11.1135 30.0284C10.6984 29.6248 10.4277 29.0581 10.2797 27.988C10.1274 26.8864 10.125 25.4265 10.125 23.3332V16.0415C10.125 13.9482 10.1274 12.4882 10.2797 11.3867C10.4277 10.3166 10.6984 9.74992 11.1135 9.34631Z" fill="#0D1217"/>
</svg>
