<svg width="20" height="24" viewBox="0 0 20 24" fill="none" xmlns="http://www.w3.org/2000/svg">
<path d="M1.11111 24C0.796296 24 0.532593 23.872 0.32 23.616C0.107408 23.36 0.000740741 23.0436 0 22.6667V19.4333C0 19.0778 0.0555557 18.7387 0.166667 18.416C0.277778 18.0933 0.435185 17.8102 0.638889 17.5667L14.6667 0.766667C14.8889 0.522222 15.1344 0.333333 15.4033 0.2C15.6722 0.0666668 15.9544 0 16.25 0C16.5456 0 16.8326 0.0666668 17.1111 0.2C17.3896 0.333333 17.6304 0.533333 17.8333 0.8L19.3611 2.66667C19.5833 2.91111 19.7452 3.2 19.8467 3.53333C19.9481 3.86667 19.9993 4.2 20 4.53333C20 4.88889 19.9489 5.228 19.8467 5.55067C19.7444 5.87333 19.5826 6.16756 19.3611 6.43333L5.36111 23.2333C5.15741 23.4778 4.92111 23.6667 4.65222 23.8C4.38333 23.9333 4.10111 24 3.80556 24H1.11111ZM16.2222 6.4L17.7778 4.53333L16.2222 2.66667L14.6667 4.53333L16.2222 6.4Z" fill="#25A5A9"/>
</svg>
