<svg width="412" height="217" viewBox="0 0 412 217" fill="none" xmlns="http://www.w3.org/2000/svg">
<path fill-rule="evenodd" clip-rule="evenodd" d="M179.695 213.998C244.427 224.617 314.239 205.863 366.976 176.666C419.019 147.853 443.246 101.845 463.701 56.7636C484.226 11.5292 505.35 -36.6957 484.251 -81.7914C463.268 -126.642 408.138 -157.66 352.02 -181.942C299.87 -204.507 239.1 -222.757 179.695 -213.571C124.368 -205.016 97.9435 -161.289 53.6363 -135.803C12.1199 -111.923 -43.8709 -102.044 -71.3173 -69.1863C-102.95 -31.3165 -132.424 17.0635 -107.927 57.6147C-83.4739 98.094 -3.45426 97.3792 45.3252 123.901C95.3611 151.106 118.681 203.989 179.695 213.998Z" fill="#25A5A9"/>
</svg>
