<svg width="20" height="22" viewBox="0 0 20 22" fill="none" xmlns="http://www.w3.org/2000/svg">
<path d="M7.89001 0.600098H12.7233V4.1001H7.89001V0.600098ZM7.89001 6.43343H12.7233V9.93343H7.89001V6.43343ZM7.89001 12.2668H12.7233V15.7668H7.89001V12.2668ZM15.14 0.600098H19.9733V4.1001H15.14V0.600098ZM15.14 6.43343H19.9733V9.93343H15.14V6.43343ZM15.14 12.2668H19.9733V15.7668H15.14V12.2668ZM0.640015 0.600098H5.47335V4.1001H0.640015V0.600098ZM0.640015 6.43343H5.47335V9.93343H0.640015V6.43343ZM0.640015 12.2668H5.47335V15.7668H0.640015V12.2668ZM7.89001 18.1001H12.7233V21.6001H7.89001V18.1001Z" fill="black"/>
</svg>
