<svg width="20" height="27" viewBox="0 0 20 27" fill="none" xmlns="http://www.w3.org/2000/svg">
<path d="M12.4907 2.48574C12.4917 2.9774 12.3444 3.45828 12.0676 3.86732C11.7908 4.27636 11.397 4.59512 10.936 4.78314C10.4751 4.97117 9.96786 5.01997 9.47873 4.92337C8.98959 4.82676 8.54061 4.58909 8.18877 4.24054C7.95487 4.00992 7.76934 3.73615 7.64279 3.43486C7.51623 3.13357 7.45113 2.81067 7.45119 2.48459C7.45126 2.1585 7.51649 1.83562 7.64316 1.53439C7.76983 1.23315 7.95546 0.959448 8.18946 0.728916C8.42345 0.498384 8.70123 0.315534 9.00692 0.190805C9.31261 0.0660756 9.64024 0.00191055 9.9711 0.00197322C10.302 0.0020359 10.6296 0.0663251 10.9352 0.19117C11.2408 0.316015 11.5185 0.498971 11.7525 0.729591C12.225 1.19529 12.492 1.82566 12.492 2.48439M17.4212 4.96675C17.757 4.97447 18.091 4.91595 18.4035 4.79463C18.716 4.67332 19.0007 4.49165 19.241 4.26032C19.4813 4.02898 19.6722 3.75264 19.8025 3.44755C19.9329 3.14245 20 2.81475 20 2.48371C20 2.15268 19.9329 1.82498 19.8025 1.51988C19.6722 1.21478 19.4813 0.938446 19.241 0.707111C19.0007 0.475776 18.716 0.294111 18.4035 0.172794C18.091 0.0514778 17.757 -0.00704189 17.4212 0.000674967C16.7528 0.000674967 16.1119 0.262351 15.6393 0.728138C15.1667 1.19392 14.9011 1.82567 14.9011 2.48439C14.9011 3.14311 15.1667 3.77485 15.6393 4.24064C16.1119 4.70643 16.7528 4.96675 17.4212 4.96675ZM5.04007 2.48574C5.04108 2.9774 4.89383 3.45828 4.61704 3.86732C4.34025 4.27636 3.94638 4.59512 3.48544 4.78314C3.0245 4.97117 2.51727 5.01997 2.02814 4.92337C1.539 4.82676 1.09002 4.58909 0.738181 4.24054C0.504276 4.01 0.318733 3.73632 0.192145 3.43512C0.0655565 3.13391 0.000402659 2.81109 0.000402655 2.48506C0.000402652 2.15904 0.0655566 1.83621 0.192145 1.53501C0.318733 1.2338 0.504276 0.960123 0.738181 0.729591C0.972086 0.499059 1.24977 0.316191 1.55538 0.191428C1.86099 0.0666651 2.18855 0.00245033 2.51934 0.00245033C2.85013 0.00245034 3.17768 0.0666651 3.48329 0.191428C3.7889 0.316191 4.06659 0.499059 4.30049 0.729591C4.773 1.19529 5.03871 1.82566 5.03871 2.48439M12.4907 9.82349C12.4938 10.1537 12.43 10.4813 12.3031 10.787C12.1762 11.0926 11.9886 11.3702 11.7514 11.6035C11.5143 11.8369 11.2323 12.0212 10.9219 12.1458C10.6115 12.2703 10.2791 12.3326 9.94401 12.3289C9.60893 12.3252 9.27797 12.2556 8.9705 12.1243C8.66304 11.993 8.38526 11.8025 8.15343 11.564C7.9216 11.3255 7.74038 11.0439 7.6204 10.7355C7.50041 10.4271 7.44407 10.0983 7.45467 9.76815C7.47551 9.11892 7.75373 8.5036 8.22962 8.05422C8.7055 7.60484 9.34115 7.35721 10.0002 7.36445C10.6592 7.37169 11.2891 7.63323 11.7547 8.09296C12.2203 8.55268 12.4845 9.17396 12.4907 9.82349ZM17.4212 12.3059C17.757 12.3136 18.091 12.2551 18.4035 12.1337C18.716 12.0124 19.0007 11.8308 19.241 11.5994C19.4813 11.3681 19.6722 11.0918 19.8025 10.7867C19.9329 10.4816 20 10.1539 20 9.82282C20 9.49178 19.9329 9.16408 19.8025 8.85899C19.6722 8.55389 19.4813 8.27755 19.241 8.04622C19.0007 7.81488 18.716 7.63322 18.4035 7.5119C18.091 7.39058 17.757 7.33206 17.4212 7.33978C16.7528 7.33978 16.1119 7.60146 15.6393 8.06724C15.1667 8.53303 14.9011 9.16477 14.9011 9.82349C14.9011 10.4822 15.1667 11.114 15.6393 11.5797C16.1119 12.0455 16.7528 12.3072 17.4212 12.3072M5.04007 9.82349C5.04042 10.3149 4.89279 10.7953 4.61588 11.2039C4.33898 11.6125 3.94526 11.931 3.48459 12.1189C3.02392 12.3068 2.51703 12.3557 2.02812 12.2595C1.53921 12.1633 1.09028 11.9262 0.738181 11.5783C0.445812 11.2894 0.2302 10.934 0.110425 10.5434C-0.00934947 10.1528 -0.0295937 9.73916 0.0514847 9.33904C0.132563 8.93892 0.312464 8.56466 0.575267 8.24939C0.83807 7.93412 1.17567 7.68756 1.5582 7.53153C1.94072 7.37549 2.35637 7.31479 2.76837 7.3548C3.18037 7.39481 3.57601 7.53429 3.92028 7.76091C4.26454 7.98753 4.54683 8.29429 4.74215 8.65405C4.93746 9.01381 5.03979 9.41547 5.04007 9.82349ZM12.4907 17.1639C12.493 17.5317 12.4124 17.8954 12.2546 18.2287C12.0969 18.5619 11.8659 18.8565 11.5784 19.0909C11.291 19.3254 10.9542 19.494 10.5925 19.5844C10.2308 19.6749 9.85326 19.685 9.48715 19.6139C9.01883 19.5237 8.58612 19.3043 8.23937 18.9812C7.89262 18.6581 7.64607 18.2446 7.52841 17.7888C7.41074 17.333 7.42679 16.8537 7.5747 16.4065C7.7226 15.9594 7.99627 15.5628 8.36388 15.2629C8.7315 14.9631 9.17794 14.7723 9.65128 14.7127C10.1246 14.6531 10.6054 14.7271 11.0377 14.9263C11.47 15.1254 11.836 15.4414 12.0933 15.8376C12.3505 16.2337 12.4883 16.6936 12.4907 17.1639ZM12.4907 24.5152C12.4912 24.8827 12.409 25.2456 12.2498 25.5779C12.0907 25.9102 11.8587 26.2036 11.5705 26.4367C11.2823 26.6698 10.9452 26.837 10.5835 26.926C10.2218 27.0151 9.84449 27.0238 9.47893 26.9517C8.99066 26.8554 8.54228 26.6187 8.19038 26.2715C7.83848 25.9243 7.59883 25.4821 7.50168 25.0008C7.40453 24.5195 7.45425 24.0205 7.64454 23.567C7.83483 23.1135 8.15718 22.7257 8.57089 22.4526C8.95024 22.2029 9.39126 22.0593 9.8469 22.0373C10.3025 22.0152 10.7557 22.1154 11.1581 22.3273C11.5605 22.5392 11.8969 22.8547 12.1316 23.2403C12.3663 23.6258 12.4904 24.0656 12.4907 24.5152ZM19.9413 17.1639C19.9436 17.5317 19.863 17.8954 19.7052 18.2287C19.5474 18.5619 19.3165 18.8565 19.029 19.0909C18.7415 19.3254 18.4048 19.494 18.0431 19.5844C17.6814 19.6749 17.3039 19.685 16.9377 19.6139C16.5717 19.5434 16.2262 19.3936 15.926 19.1755C15.6258 18.9574 15.3785 18.6763 15.2019 18.3526C15.0252 18.0289 14.9237 17.6705 14.9047 17.3035C14.8856 16.9364 14.9494 16.5697 15.0915 16.2299C15.3135 15.6994 15.715 15.261 16.2278 14.9892C16.7407 14.7175 17.3331 14.6291 17.9046 14.7392C18.476 14.8492 18.9911 15.1509 19.3624 15.593C19.7337 16.035 19.9382 16.5901 19.9413 17.1639ZM5.04007 17.1639C5.0438 17.6561 4.89893 18.1382 4.62387 18.549C4.34881 18.9598 3.95599 19.2807 3.49539 19.4708C3.03479 19.661 2.52721 19.7118 2.03721 19.6169C1.54721 19.5219 1.09694 19.2855 0.74366 18.9376C0.449836 18.6499 0.232525 18.2951 0.110959 17.9048C-0.0106066 17.5145 -0.0326786 17.1007 0.0466971 16.7C0.126073 16.2993 0.304448 15.9241 0.566036 15.6075C0.827625 15.2909 1.16436 15.0428 1.54644 14.8851C1.92851 14.7273 2.34415 14.6649 2.75657 14.7032C3.16898 14.7415 3.56545 14.8794 3.91089 15.1048C4.25633 15.3301 4.54008 15.6359 4.73704 15.995C4.93399 16.3542 5.03807 16.7557 5.04007 17.1639Z" fill="white"/>
</svg>
