<svg width="28" height="33" viewBox="0 0 28 33" fill="none" xmlns="http://www.w3.org/2000/svg">
<path d="M10.724 14.8993L12.6387 11.5984C13.1619 10.6944 13.4466 9.64098 13.4561 8.57323C13.4656 7.50549 13.1995 6.47216 12.6921 5.60588L11.0312 2.76656C10.4109 1.70665 9.45513 0.977943 8.35865 0.728906C7.26217 0.479868 6.10747 0.729234 5.12978 1.4262C1.53233 3.99282 -0.620396 9.04616 1.26817 13.657C2.51038 16.6904 4.46595 20.374 7.50285 23.9941C10.5463 27.6232 13.6767 30.0278 16.2628 31.5974C20.1654 33.9609 24.6179 31.6735 26.9582 27.5638C27.5856 26.4623 27.8367 25.1423 27.6604 23.8727C27.484 22.6032 26.8935 21.4797 26.0092 20.7314L23.5918 18.6861C22.8623 18.0671 21.9804 17.7233 21.0597 17.699C20.1389 17.6747 19.2214 17.9709 18.4252 18.5495L15.5217 20.6574C14.5237 19.9536 13.6048 19.1138 12.7836 18.155C11.9805 17.1768 11.2886 16.0824 10.7235 14.8967L10.724 14.8993Z" fill="white"/>
</svg>
