<svg width="23" height="9" viewBox="0 0 23 9" fill="none" xmlns="http://www.w3.org/2000/svg">
<path d="M18.0722 0C17.0535 0.000708154 16.0601 0.289715 15.2286 0.827248C14.3972 1.36478 13.7686 2.12442 13.4294 3.00161C13.0902 3.87881 13.0571 4.83045 13.3345 5.72557C13.6119 6.62069 14.1864 7.41528 14.9787 8H8.02507C8.92931 7.33269 9.54607 6.39492 9.76631 5.35246C9.98655 4.31001 9.79608 3.23002 9.22858 2.30342C8.66108 1.37681 7.7531 0.663282 6.66516 0.288966C5.57721 -0.0853493 4.37938 -0.0963415 3.28342 0.257933C2.18745 0.612207 1.26395 1.30893 0.676174 2.22493C0.0883973 3.14093 -0.125799 4.21721 0.0714542 5.26349C0.268707 6.30978 0.864704 7.25868 1.75408 7.94245C2.64346 8.62622 3.76893 9.00081 4.93153 9H18.0722C19.3792 9 20.6326 8.52589 21.5567 7.68198C22.4808 6.83807 23 5.69347 23 4.5C23 3.30653 22.4808 2.16193 21.5567 1.31802C20.6326 0.474105 19.3792 0 18.0722 0ZM1.09882 4.5C1.09882 3.80776 1.32361 3.13108 1.74475 2.5555C2.16589 1.97993 2.76448 1.53133 3.46482 1.26642C4.16515 1.00151 4.93578 0.932203 5.67925 1.06725C6.42273 1.2023 7.10565 1.53564 7.64166 2.02513C8.17768 2.51461 8.54271 3.13825 8.69059 3.81718C8.83848 4.49612 8.76258 5.19985 8.47249 5.83939C8.1824 6.47893 7.69115 7.02556 7.06087 7.41014C6.43058 7.79473 5.68957 8 4.93153 8C3.91503 8 2.94017 7.63125 2.2214 6.97487C1.50263 6.3185 1.09882 5.42826 1.09882 4.5ZM18.0722 8C17.3142 8 16.5732 7.79473 15.9429 7.41014C15.3126 7.02556 14.8214 6.47893 14.5313 5.83939C14.2412 5.19985 14.1653 4.49612 14.3132 3.81718C14.4611 3.13825 14.8261 2.51461 15.3621 2.02513C15.8981 1.53564 16.581 1.2023 17.3245 1.06725C18.068 0.932203 18.8386 1.00151 19.5389 1.26642C20.2393 1.53133 20.8379 1.97993 21.259 2.5555C21.6802 3.13108 21.9049 3.80776 21.9049 4.5C21.9049 5.42826 21.5011 6.3185 20.7824 6.97487C20.0636 7.63125 19.0887 8 18.0722 8Z" fill="#ACACAC"/>
</svg>
