<svg width="18" height="13" viewBox="0 0 18 13" fill="none" xmlns="http://www.w3.org/2000/svg">
<path d="M6.80454 9.4855C8.20597 8.33306 10.2586 8.33306 11.66 9.4855C11.7305 9.54749 11.7714 9.63531 11.7733 9.72769C11.7751 9.8199 11.7385 9.90915 11.6708 9.97378L9.47642 12.1261C9.41209 12.1894 9.32379 12.2257 9.23228 12.2257C9.14081 12.2257 9.05341 12.1894 8.98911 12.1261L6.7938 9.97378C6.726 9.90899 6.68925 9.81912 6.69126 9.72671C6.69339 9.63455 6.73422 9.54733 6.80454 9.4855ZM3.87681 6.61343C6.89616 3.88276 11.5713 3.88275 14.5907 6.61343C14.6588 6.67746 14.6981 6.76543 14.6991 6.85757C14.6999 6.94955 14.6632 7.0384 14.5965 7.10366L13.328 8.34976C13.1973 8.47701 12.9855 8.47951 12.8514 8.35562C11.8599 7.4827 10.5699 6.99909 9.23228 6.99917C7.89562 6.99975 6.60688 7.48332 5.61607 8.35562C5.48196 8.47951 5.27023 8.47701 5.1395 8.34976L3.87193 7.10366C3.80506 7.03847 3.76761 6.94962 3.76841 6.85757C3.7693 6.76539 3.80861 6.67746 3.87681 6.61343ZM0.948097 3.74819C5.57897 -0.566522 12.8845 -0.56639 17.5155 3.74819C17.5825 3.81229 17.6214 3.89996 17.6219 3.99136C17.6225 4.08277 17.5847 4.17064 17.5184 4.2355L16.2489 5.48159C16.118 5.60948 15.9052 5.61141 15.7723 5.4855C14.0079 3.85467 11.6667 2.94459 9.23228 2.94448C6.79754 2.9445 4.45587 3.85451 2.69126 5.4855C2.55847 5.61151 2.34544 5.60964 2.2147 5.48159L0.945167 4.2355C0.878964 4.1706 0.842018 4.08276 0.842628 3.99136C0.843247 3.89994 0.881014 3.81225 0.948097 3.74819Z" fill="black"/>
</svg>
