<svg width="18" height="13" viewBox="0 0 18 13" fill="none" xmlns="http://www.w3.org/2000/svg">
<path d="M6.80445 9.4855C8.20588 8.33306 10.2585 8.33306 11.6599 9.4855C11.7304 9.54749 11.7713 9.63531 11.7732 9.72769C11.775 9.8199 11.7384 9.90915 11.6707 9.97378L9.47633 12.1261C9.412 12.1894 9.32369 12.2257 9.23219 12.2257C9.14072 12.2257 9.05332 12.1894 8.98902 12.1261L6.79371 9.97378C6.72591 9.90899 6.68916 9.81912 6.69117 9.72671C6.6933 9.63455 6.73413 9.54733 6.80445 9.4855ZM3.87672 6.61343C6.89607 3.88279 11.5712 3.88276 14.5906 6.61343C14.6587 6.67746 14.698 6.76545 14.699 6.85757C14.6998 6.94953 14.6631 7.0384 14.5964 7.10366L13.3269 8.34976C13.1962 8.47668 12.9853 8.47937 12.8513 8.35562C11.8598 7.48269 10.5698 6.99909 9.23219 6.99917C7.89552 6.99973 6.6068 7.48333 5.61597 8.35562C5.48187 8.47951 5.27014 8.47701 5.13941 8.34976L3.87183 7.10366C3.80497 7.03847 3.76752 6.94962 3.76832 6.85757C3.76921 6.76539 3.80851 6.67746 3.87672 6.61343ZM0.948005 3.74819C5.57887 -0.566532 12.8844 -0.56638 17.5154 3.74819C17.5824 3.81229 17.6213 3.89996 17.6218 3.99136C17.6224 4.08277 17.5846 4.17064 17.5183 4.2355L16.2488 5.48159C16.1179 5.60948 15.9051 5.61141 15.7722 5.4855C14.0078 3.85468 11.6666 2.94459 9.23219 2.94448C6.79746 2.9445 4.45577 3.85452 2.69117 5.4855C2.55843 5.61145 2.34633 5.60948 2.21558 5.48159L0.945076 4.2355C0.878872 4.1706 0.841926 4.08276 0.842537 3.99136C0.843155 3.89994 0.880923 3.81225 0.948005 3.74819Z" fill="black"/>
</svg>
