<svg width="18" height="13" viewBox="0 0 18 13" fill="none" xmlns="http://www.w3.org/2000/svg">
<path d="M6.80445 9.48549C8.20586 8.33306 10.2585 8.33309 11.6599 9.48549C11.7304 9.54748 11.7713 9.63527 11.7732 9.72767C11.7751 9.81992 11.7383 9.90909 11.6707 9.97377L9.47633 12.1271C9.412 12.1904 9.32369 12.2257 9.23219 12.2257C9.14085 12.2257 9.0533 12.1902 8.98902 12.1271L6.79371 9.97377C6.72605 9.90905 6.68924 9.81993 6.69117 9.72767C6.69318 9.6353 6.73393 9.54742 6.80445 9.48549ZM3.87672 6.61342C6.89605 3.88292 11.5713 3.88286 14.5906 6.61342C14.6587 6.67745 14.698 6.76541 14.699 6.85756C14.6999 6.94955 14.6631 7.03834 14.5964 7.10365L13.3269 8.34974C13.1962 8.47679 12.9854 8.47942 12.8513 8.3556C11.8598 7.48273 10.5698 6.99908 9.23219 6.99916C7.89558 6.99972 6.60678 7.48338 5.61597 8.3556C5.48187 8.47949 5.27014 8.477 5.13941 8.34974L3.87183 7.10365C3.80491 7.0384 3.76745 6.9497 3.76832 6.85756C3.76921 6.76538 3.80851 6.67745 3.87672 6.61342ZM0.948006 3.74916C5.57898 -0.565807 12.8844 -0.565793 17.5154 3.74916C17.5823 3.81319 17.6212 3.90004 17.6218 3.99134C17.6224 4.08276 17.5846 4.17062 17.5183 4.23549L16.2488 5.48158C16.1179 5.60946 15.9051 5.6114 15.7722 5.48549C14.0079 3.85474 11.6666 2.94555 9.23219 2.94545C6.79747 2.94547 4.45577 3.85451 2.69117 5.48549C2.5584 5.61158 2.34636 5.60963 2.21558 5.48158L0.945076 4.23549C0.878866 4.17058 0.841918 4.08276 0.842537 3.99134C0.843217 3.90011 0.881117 3.81314 0.948006 3.74916Z" fill="black"/>
</svg>
