<svg width="66" height="67" viewBox="0 0 66 67" fill="none" xmlns="http://www.w3.org/2000/svg">
<g filter="url(#filter0_d_27_1208)">
<rect x="12" y="8.5" width="42" height="42" rx="21" fill="white" fill-opacity="0.1" shape-rendering="crispEdges"/>
<path fill-rule="evenodd" clip-rule="evenodd" d="M31.4078 22.4255C31.7251 22.7428 31.7251 23.2572 31.4078 23.5745L26.2949 28.6875H41.6666C42.1154 28.6875 42.4791 29.0513 42.4791 29.5C42.4791 29.9487 42.1154 30.3125 41.6666 30.3125H26.2949L31.4078 35.4255C31.7251 35.7428 31.7251 36.2572 31.4078 36.5745C31.0905 36.8918 30.5761 36.8918 30.2588 36.5745L23.7588 30.0745C23.4415 29.7572 23.4415 29.2428 23.7588 28.9255L30.2588 22.4255C30.5761 22.1082 31.0905 22.1082 31.4078 22.4255Z" fill="#2C2D3A"/>
</g>
<defs>
<filter id="filter0_d_27_1208" x="0" y="0.5" width="66" height="66" filterUnits="userSpaceOnUse" color-interpolation-filters="sRGB">
<feFlood flood-opacity="0" result="BackgroundImageFix"/>
<feColorMatrix in="SourceAlpha" type="matrix" values="0 0 0 0 0 0 0 0 0 0 0 0 0 0 0 0 0 0 127 0" result="hardAlpha"/>
<feOffset dy="4"/>
<feGaussianBlur stdDeviation="6"/>
<feComposite in2="hardAlpha" operator="out"/>
<feColorMatrix type="matrix" values="0 0 0 0 0.0509804 0 0 0 0 0.0392157 0 0 0 0 0.172549 0 0 0 0.06 0"/>
<feBlend mode="normal" in2="BackgroundImageFix" result="effect1_dropShadow_27_1208"/>
<feBlend mode="normal" in="SourceGraphic" in2="effect1_dropShadow_27_1208" result="shape"/>
</filter>
</defs>
</svg>
