<svg width="86" height="74" viewBox="0 0 86 74" fill="none" xmlns="http://www.w3.org/2000/svg">
<g filter="url(#filter0_d_27_1316)">
<rect x="12" y="8" width="62" height="50" rx="25" fill="#F44336" shape-rendering="crispEdges"/>
<path fill-rule="evenodd" clip-rule="evenodd" d="M37.976 18.7942C36.2867 16.4049 32.9063 16.0018 30.8627 18.1533L28.2467 20.9075C27.3536 21.8477 26.6748 23.1539 26.7566 24.6767C26.922 27.7587 28.2306 34.0669 35.1192 41.3193C42.5015 49.0915 49.5434 49.4823 52.5832 49.1822C53.8283 49.0593 54.8359 48.3953 55.5748 47.6173L57.9424 45.1247C60.1174 42.8349 59.4839 39.0029 56.7624 37.4364L53.5782 35.6036C51.7474 34.5499 49.4768 34.8519 48.0206 36.3851L47.3395 37.1021C47.2912 37.1191 47.1399 37.16 46.8504 37.113C46.1795 37.004 44.7317 36.4117 42.3448 33.8988C39.9654 31.3937 39.3793 29.8509 39.268 29.0916C39.2144 28.7254 39.2689 28.5324 39.2905 28.4718L39.294 28.4621L39.7021 28.0325C41.3148 26.3347 41.4289 23.6778 40.0777 21.7667L37.976 18.7942ZM32.6754 19.8751C33.5467 18.9576 35.0808 19.0297 35.9347 20.2375L38.0364 23.2099C38.7399 24.205 38.632 25.529 37.8895 26.3108L37.4115 26.8141L38.2976 27.6557C37.4114 26.8141 37.4103 26.8153 37.4091 26.8165L37.4068 26.819L37.402 26.8242L37.3918 26.8352L37.3696 26.8602C37.354 26.8781 37.3369 26.8986 37.3185 26.9218C37.2819 26.9681 37.2405 27.025 37.197 27.0929C37.1098 27.2292 37.0152 27.4086 36.9352 27.6337C36.7723 28.0913 36.6836 28.6973 36.7945 29.4541C37.0123 30.9409 37.9866 32.9405 40.5322 35.6205C43.0703 38.2926 44.9871 39.3431 46.4496 39.5806C47.2001 39.7025 47.8076 39.6052 48.2676 39.4237C48.4924 39.335 48.6703 39.2309 48.8038 39.1362C48.8704 39.089 48.9259 39.0442 48.9706 39.0049C48.993 38.9852 49.0128 38.9669 49.03 38.9503L49.0539 38.9268L49.0645 38.916L49.0694 38.9109L49.0718 38.9084C49.073 38.9072 49.0741 38.906 48.1955 38.0714L49.0741 38.906L49.8332 38.1068C50.4756 37.4305 51.4766 37.2785 52.3311 37.7703L55.5153 39.6031C56.8833 40.3906 57.1511 42.3277 56.1297 43.403L53.7622 45.8956C53.2971 46.3852 52.8105 46.6476 52.3376 46.6943C49.9459 46.9304 43.7055 46.7289 36.9319 39.5976C30.4717 32.7962 29.388 27.059 29.253 24.5427C29.2172 23.8772 29.507 23.2107 30.0593 22.6292L32.6754 19.8751Z" fill="white"/>
<path d="M50.5505 18.7826C50.0623 18.2944 49.2709 18.2944 48.7827 18.7826C48.2945 19.2707 48.2945 20.0622 48.7827 20.5503L51.2322 22.9998L48.7827 25.4492C48.2946 25.9374 48.2946 26.7289 48.7827 27.217C49.2709 27.7052 50.0623 27.7052 50.5505 27.217L52.9999 24.7676L55.4493 27.217C55.9375 27.7051 56.7289 27.7051 57.2171 27.217C57.7053 26.7288 57.7053 25.9374 57.2171 25.4492L54.7677 22.9998L57.2171 20.5504C57.7053 20.0622 57.7053 19.2708 57.2171 18.7826C56.729 18.2944 55.9375 18.2944 55.4494 18.7826L52.9999 21.232L50.5505 18.7826Z" fill="white"/>
</g>
<defs>
<filter id="filter0_d_27_1316" x="0" y="0" width="86" height="74" filterUnits="userSpaceOnUse" color-interpolation-filters="sRGB">
<feFlood flood-opacity="0" result="BackgroundImageFix"/>
<feColorMatrix in="SourceAlpha" type="matrix" values="0 0 0 0 0 0 0 0 0 0 0 0 0 0 0 0 0 0 127 0" result="hardAlpha"/>
<feOffset dy="4"/>
<feGaussianBlur stdDeviation="6"/>
<feComposite in2="hardAlpha" operator="out"/>
<feColorMatrix type="matrix" values="0 0 0 0 0 0 0 0 0 0 0 0 0 0 0 0 0 0 0.06 0"/>
<feBlend mode="normal" in2="BackgroundImageFix" result="effect1_dropShadow_27_1316"/>
<feBlend mode="normal" in="SourceGraphic" in2="effect1_dropShadow_27_1316" result="shape"/>
</filter>
</defs>
</svg>
