<svg width="61" height="67" viewBox="0 0 61 67" fill="none" xmlns="http://www.w3.org/2000/svg">
<g filter="url(#filter0_d_154_1079)">
<rect x="7" y="8.5" width="42" height="42" rx="21" fill="white" fill-opacity="0.1" shape-rendering="crispEdges"/>
<path fill-rule="evenodd" clip-rule="evenodd" d="M26.4079 22.4255C26.7252 22.7428 26.7252 23.2572 26.4079 23.5745L21.2949 28.6875H36.6667C37.1154 28.6875 37.4792 29.0513 37.4792 29.5C37.4792 29.9487 37.1154 30.3125 36.6667 30.3125H21.2949L26.4079 35.4255C26.7252 35.7428 26.7252 36.2572 26.4079 36.5745C26.0906 36.8918 25.5761 36.8918 25.2588 36.5745L18.7588 30.0745C18.4415 29.7572 18.4415 29.2428 18.7588 28.9255L25.2588 22.4255C25.5761 22.1082 26.0906 22.1082 26.4079 22.4255Z" fill="#2C2D3A"/>
</g>
<defs>
<filter id="filter0_d_154_1079" x="-5" y="0.5" width="66" height="66" filterUnits="userSpaceOnUse" color-interpolation-filters="sRGB">
<feFlood flood-opacity="0" result="BackgroundImageFix"/>
<feColorMatrix in="SourceAlpha" type="matrix" values="0 0 0 0 0 0 0 0 0 0 0 0 0 0 0 0 0 0 127 0" result="hardAlpha"/>
<feOffset dy="4"/>
<feGaussianBlur stdDeviation="6"/>
<feComposite in2="hardAlpha" operator="out"/>
<feColorMatrix type="matrix" values="0 0 0 0 0.0509804 0 0 0 0 0.0392157 0 0 0 0 0.172549 0 0 0 0.06 0"/>
<feBlend mode="normal" in2="BackgroundImageFix" result="effect1_dropShadow_154_1079"/>
<feBlend mode="normal" in="SourceGraphic" in2="effect1_dropShadow_154_1079" result="shape"/>
</filter>
</defs>
</svg>
