<svg width="81" height="74" viewBox="0 0 81 74" fill="none" xmlns="http://www.w3.org/2000/svg">
<g filter="url(#filter0_d_161_1390)">
<rect x="12" y="8" width="62" height="50" rx="25" fill="#F44336" shape-rendering="crispEdges"/>
<path fill-rule="evenodd" clip-rule="evenodd" d="M37.9761 18.7942C36.2868 16.4049 32.9064 16.0018 30.8628 18.1533L28.2468 20.9075C27.3537 21.8477 26.6749 23.1539 26.7566 24.6767C26.922 27.7587 28.2307 34.0669 35.1193 41.3193C42.5016 49.0915 49.5435 49.4823 52.5833 49.1822C53.8283 49.0593 54.8359 48.3953 55.5749 47.6173L57.9424 45.1247C60.1174 42.8349 59.484 39.0029 56.7625 37.4364L53.5783 35.6036C51.7475 34.5499 49.4769 34.8519 48.0206 36.3851L47.3396 37.1021C47.2913 37.1191 47.1399 37.16 46.8505 37.113C46.1796 37.004 44.7318 36.4117 42.3449 33.8988C39.9654 31.3937 39.3794 29.8509 39.2681 29.0916C39.2144 28.7254 39.269 28.5324 39.2905 28.4718L39.2941 28.4621L39.7022 28.0325C41.3148 26.3347 41.429 23.6778 40.0777 21.7667L37.9761 18.7942ZM32.6754 19.8751C33.5468 18.9576 35.0809 19.0297 35.9348 20.2375L38.0364 23.2099C38.74 24.205 38.6321 25.529 37.8895 26.3108L37.4115 26.8141L38.2976 27.6557C37.4115 26.8141 37.4104 26.8153 37.4092 26.8165L37.4069 26.819L37.402 26.8242L37.3918 26.8352L37.3696 26.8602C37.354 26.8781 37.3369 26.8986 37.3186 26.9218C37.282 26.9681 37.2405 27.025 37.197 27.0929C37.1098 27.2292 37.0153 27.4086 36.9352 27.6337C36.7724 28.0913 36.6836 28.6973 36.7945 29.4541C37.0124 30.9409 37.9866 32.9405 40.5322 35.6205C43.0703 38.2926 44.9872 39.3431 46.4497 39.5806C47.2002 39.7025 47.8076 39.6052 48.2676 39.4237C48.4925 39.335 48.6704 39.2309 48.8039 39.1362C48.8705 39.089 48.9259 39.0442 48.9707 39.0049C48.9931 38.9852 49.0129 38.9669 49.0301 38.9503L49.054 38.9268L49.0646 38.916L49.0695 38.9109L49.0719 38.9084C49.073 38.9072 49.0742 38.906 48.1955 38.0714L49.0742 38.906L49.8333 38.1068C50.4757 37.4305 51.4767 37.2785 52.3311 37.7703L55.5153 39.6031C56.8834 40.3906 57.1511 42.3277 56.1298 43.403L53.7622 45.8956C53.2972 46.3852 52.8106 46.6476 52.3377 46.6943C49.946 46.9304 43.7056 46.7289 36.9319 39.5976C30.4717 32.7962 29.3881 27.059 29.253 24.5427C29.2173 23.8772 29.5071 23.2107 30.0594 22.6292L32.6754 19.8751Z" fill="white"/>
<path d="M50.5505 18.7826C50.0624 18.2944 49.2709 18.2944 48.7828 18.7826C48.2946 19.2707 48.2946 20.0622 48.7828 20.5503L51.2322 22.9998L48.7828 25.4492C48.2946 25.9374 48.2946 26.7289 48.7828 27.217C49.2709 27.7052 50.0624 27.7052 50.5506 27.217L53 24.7676L55.4494 27.217C55.9376 27.7051 56.729 27.7051 57.2172 27.217C57.7053 26.7288 57.7053 25.9374 57.2172 25.4492L54.7678 22.9998L57.2172 20.5504C57.7053 20.0622 57.7053 19.2708 57.2172 18.7826C56.729 18.2944 55.9376 18.2944 55.4494 18.7826L53 21.232L50.5505 18.7826Z" fill="white"/>
</g>
<defs>
<filter id="filter0_d_161_1390" x="0" y="0" width="86" height="74" filterUnits="userSpaceOnUse" color-interpolation-filters="sRGB">
<feFlood flood-opacity="0" result="BackgroundImageFix"/>
<feColorMatrix in="SourceAlpha" type="matrix" values="0 0 0 0 0 0 0 0 0 0 0 0 0 0 0 0 0 0 127 0" result="hardAlpha"/>
<feOffset dy="4"/>
<feGaussianBlur stdDeviation="6"/>
<feComposite in2="hardAlpha" operator="out"/>
<feColorMatrix type="matrix" values="0 0 0 0 0 0 0 0 0 0 0 0 0 0 0 0 0 0 0.06 0"/>
<feBlend mode="normal" in2="BackgroundImageFix" result="effect1_dropShadow_161_1390"/>
<feBlend mode="normal" in="SourceGraphic" in2="effect1_dropShadow_161_1390" result="shape"/>
</filter>
</defs>
</svg>
