<svg width="20" height="13" viewBox="0 0 20 13" fill="none" xmlns="http://www.w3.org/2000/svg">
<path d="M2.83951 7.99268C3.44616 7.99282 3.93814 8.47118 3.93814 9.06104V11.1968C3.93814 11.7866 3.44616 12.265 2.83951 12.2651H1.74088C1.1341 12.2651 0.642242 11.7867 0.642242 11.1968V9.06104C0.642242 8.47109 1.1341 7.99268 1.74088 7.99268H2.83951ZM7.96646 5.85596C8.57318 5.85602 9.06509 6.33441 9.06509 6.92432V11.1968C9.06502 11.7866 8.57314 12.2651 7.96646 12.2651H6.86783C6.2611 12.2651 5.76927 11.7867 5.7692 11.1968V6.92432C5.7692 6.33438 6.26105 5.85596 6.86783 5.85596H7.96646ZM13.0934 3.36279C13.7001 3.36279 14.1919 3.84134 14.192 4.43115V11.1968C14.1919 11.7866 13.7001 12.2651 13.0934 12.2651H11.9948C11.3881 12.2651 10.8963 11.7866 10.8961 11.1968V4.43115C10.8963 3.84134 11.3881 3.36279 11.9948 3.36279H13.0934ZM18.2204 0.871582C18.8271 0.871582 19.319 1.35 19.319 1.93994V11.1968C19.319 11.7867 18.8271 12.2651 18.2204 12.2651H17.1217C16.515 12.2651 16.0231 11.7867 16.0231 11.1968V1.93994C16.0231 1.35005 16.515 0.871655 17.1217 0.871582H18.2204Z" fill="black"/>
</svg>
