<svg width="22" height="22" viewBox="0 0 22 22" fill="none" xmlns="http://www.w3.org/2000/svg">
<path d="M20.1953 21.0938H21.875L17.1875 9.375H15.3516L10.6641 21.0938H12.3437L13.5938 17.9688H18.9453L20.1953 21.0938ZM14.2188 16.4062L16.2656 11.2812L18.3203 16.4062H14.2188ZM12.5 3.90625V2.34375H7.03125V0H5.46875V2.34375H0V3.90625H8.39062C7.95804 5.6918 7.1034 7.34751 5.89844 8.73438C5.11313 7.76055 4.50733 6.65478 4.10938 5.46875H2.46875C2.96108 7.05963 3.75699 8.54003 4.8125 9.82812C3.64586 10.9608 2.2789 11.8668 0.78125 12.5L1.36719 13.9531C3.0494 13.2422 4.58165 12.219 5.88281 10.9375C7.15974 12.2373 8.69188 13.2587 10.3828 13.9375L10.9375 12.5C9.43179 11.9175 8.06799 11.0198 6.9375 9.86719C8.43326 8.16247 9.4852 6.11495 10 3.90625H12.5Z" fill="#4B5563"/>
</svg>
