<svg width="26" height="18" viewBox="0 0 26 18" fill="none" xmlns="http://www.w3.org/2000/svg">
<path d="M2.33422 18C1.66882 18 1.11367 17.802 0.668778 17.406C0.223889 17.01 0.000962963 16.5154 0 15.9223V2.07771C0 1.48543 0.222926 0.991285 0.668778 0.595285C1.11463 0.199285 1.6693 0.000857143 2.33278 0H23.6672C24.3317 0 24.8863 0.198428 25.3312 0.595285C25.7761 0.992143 25.999 1.48629 26 2.07771V15.9236C26 16.515 25.7771 17.0091 25.3312 17.406C24.8854 17.8029 24.3307 18.0009 23.6672 18H2.33422ZM2.33422 16.7143H23.6672C23.8887 16.7143 24.0924 16.632 24.2782 16.4674C24.4641 16.3029 24.5565 16.1211 24.5556 15.9223V2.07771C24.5556 1.87971 24.4631 1.698 24.2782 1.53257C24.0933 1.36714 23.8897 1.28486 23.6672 1.28571H2.33278C2.1113 1.28571 1.90763 1.368 1.72178 1.53257C1.53593 1.69714 1.44348 1.87886 1.44444 2.07771V15.9236C1.44444 16.1207 1.53689 16.302 1.72178 16.4674C1.90667 16.6329 2.11033 16.7151 2.33278 16.7143M5.889 13.401H15.7777C15.9828 13.401 16.1542 13.3393 16.2919 13.2159C16.4306 13.0924 16.4999 12.9394 16.4999 12.7569C16.4999 12.5743 16.4306 12.4217 16.2919 12.2991C16.1532 12.1766 15.9818 12.1153 15.7777 12.1153H5.889C5.68389 12.1153 5.51248 12.177 5.37478 12.3004C5.23707 12.4239 5.16774 12.5769 5.16678 12.7594C5.16581 12.942 5.23515 13.0946 5.37478 13.2171C5.51441 13.3397 5.68581 13.401 5.889 13.401ZM10.2223 8.802H20.111C20.3161 8.802 20.4875 8.74028 20.6252 8.61686C20.7629 8.49343 20.8323 8.34043 20.8332 8.15786C20.8342 7.97529 20.7649 7.82271 20.6252 7.70014C20.4856 7.57757 20.3142 7.51628 20.111 7.51628H10.2223C10.0172 7.51628 9.84581 7.578 9.70811 7.70143C9.56944 7.82486 9.50011 7.97786 9.50011 8.16043C9.50011 8.343 9.56944 8.49557 9.70811 8.61814C9.84678 8.74071 10.0182 8.802 10.2223 8.802ZM5.889 8.802C6.09411 8.802 6.266 8.74028 6.40467 8.61686C6.54333 8.49343 6.61219 8.34043 6.61122 8.15786C6.61026 7.97529 6.54093 7.82271 6.40322 7.70014C6.26552 7.57757 6.09363 7.51628 5.88756 7.51628C5.68148 7.51628 5.51007 7.578 5.37333 7.70143C5.23659 7.82486 5.16774 7.97786 5.16678 8.16043C5.16581 8.343 5.23515 8.49557 5.37478 8.61814C5.51441 8.74071 5.68581 8.802 5.889 8.802ZM20.1124 13.401C20.3176 13.401 20.489 13.3393 20.6267 13.2159C20.7644 13.0924 20.8332 12.9394 20.8332 12.7569C20.8332 12.5743 20.7639 12.4217 20.6252 12.2991C20.4866 12.1766 20.3151 12.1153 20.111 12.1153C19.9069 12.1153 19.735 12.177 19.5953 12.3004C19.4557 12.4239 19.3869 12.5769 19.3888 12.7594C19.3907 12.942 19.46 13.0946 19.5968 13.2171C19.7335 13.3397 19.9054 13.401 20.1124 13.401Z" fill="#124142"/>
</svg>
