<svg width="18" height="13" viewBox="0 0 18 13" fill="none" xmlns="http://www.w3.org/2000/svg">
<path d="M6.80454 9.48525C8.20595 8.33282 10.2586 8.33286 11.66 9.48525C11.7305 9.54724 11.7714 9.63503 11.7733 9.72744C11.7752 9.81968 11.7384 9.90885 11.6708 9.97353L9.47642 12.1269C9.41209 12.1901 9.32379 12.2255 9.23228 12.2255C9.14094 12.2255 9.05339 12.1899 8.98911 12.1269L6.7938 9.97353C6.72614 9.90882 6.68933 9.81969 6.69126 9.72744C6.69327 9.63506 6.73403 9.54719 6.80454 9.48525ZM3.87681 6.61318C6.89613 3.88266 11.5714 3.88265 14.5907 6.61318C14.6588 6.67721 14.6981 6.76517 14.6991 6.85732C14.7 6.94933 14.6632 7.0381 14.5965 7.10341L13.328 8.34951C13.1973 8.47676 12.9855 8.47925 12.8514 8.35537C11.8599 7.48252 10.5698 6.99884 9.23228 6.99892C7.89568 6.9995 6.60686 7.48314 5.61607 8.35537C5.48196 8.47925 5.27023 8.47676 5.1395 8.34951L3.87193 7.10341C3.805 7.03816 3.76754 6.94946 3.76841 6.85732C3.7693 6.76514 3.80861 6.67721 3.87681 6.61318ZM0.948097 3.74892C5.57908 -0.566049 12.8845 -0.566044 17.5155 3.74892C17.5824 3.81296 17.6213 3.8998 17.6219 3.99111C17.6225 4.08252 17.5847 4.17039 17.5184 4.23525L16.2489 5.48134C16.118 5.60923 15.9052 5.61116 15.7723 5.48525C14.0079 3.85449 11.6667 2.94531 9.23228 2.94521C6.79756 2.94522 4.45586 3.85428 2.69126 5.48525C2.55848 5.61135 2.34547 5.60942 2.2147 5.48134L0.945168 4.23525C0.878957 4.17034 0.84201 4.08252 0.842628 3.99111C0.843309 3.89987 0.881199 3.81291 0.948097 3.74892Z" fill="black"/>
</svg>
