<svg width="25" height="25" viewBox="0 0 25 25" fill="none" xmlns="http://www.w3.org/2000/svg">
<path d="M21.7578 22.6562H23.4375L18.75 10.9375H16.9141L12.2266 22.6562H13.9062L15.1562 19.5312H20.5078L21.7578 22.6562ZM15.7813 17.9688L17.8281 12.8438L19.8828 17.9688H15.7813ZM14.0625 5.46875V3.90625H8.59375V1.5625H7.03125V3.90625H1.5625V5.46875H9.95312C9.52054 7.2543 8.6659 8.91001 7.46094 10.2969C6.67563 9.32305 6.06983 8.21728 5.67188 7.03125H4.03125C4.52358 8.62213 5.31949 10.1025 6.375 11.3906C5.20836 12.5233 3.8414 13.4293 2.34375 14.0625L2.92969 15.5156C4.6119 14.8047 6.14415 13.7815 7.44531 12.5C8.72224 13.7998 10.2544 14.8212 11.9453 15.5L12.5 14.0625C10.9943 13.48 9.63049 12.5823 8.5 11.4297C9.99576 9.72497 11.0477 7.67745 11.5625 5.46875H14.0625Z" fill="#117EC6"/>
</svg>
