<svg width="20" height="13" viewBox="0 0 20 13" fill="none" xmlns="http://www.w3.org/2000/svg">
<path d="M2.83942 7.99285C3.44592 7.99301 3.93784 8.47056 3.93805 9.06023V11.1969C3.93805 11.7868 3.44605 12.2651 2.83942 12.2653H1.74078C1.13401 12.2653 0.642151 11.7869 0.642151 11.1969V9.06023C0.64236 8.47046 1.13414 7.99285 1.74078 7.99285H2.83942ZM7.96637 5.85613C8.57307 5.85621 9.065 6.3346 9.065 6.92449V11.1969C9.065 11.7868 8.57307 12.2652 7.96637 12.2653H6.86774C6.26096 12.2653 5.7691 11.7869 5.7691 11.1969V6.92449C5.7691 6.33455 6.26096 5.85613 6.86774 5.85613H7.96637ZM13.0933 3.36394C13.7001 3.36394 14.192 3.84236 14.192 4.4323V11.1969C14.192 11.7869 13.7001 12.2653 13.0933 12.2653H11.9947C11.3879 12.2653 10.8961 11.7869 10.8961 11.1969V4.4323C10.8961 3.84236 11.3879 3.36394 11.9947 3.36394H13.0933ZM18.2203 0.870775C18.827 0.870775 19.3188 1.34931 19.3189 1.93913V11.1969C19.3189 11.7869 18.8271 12.2653 18.2203 12.2653H17.1216C16.5149 12.2652 16.023 11.7868 16.023 11.1969V1.93913C16.0232 1.34935 16.515 0.870842 17.1216 0.870775H18.2203Z" fill="white"/>
</svg>
