<svg width="27" height="20" viewBox="0 0 27 20" fill="none" xmlns="http://www.w3.org/2000/svg">
<mask id="mask0_27_1439" style="mask-type:alpha" maskUnits="userSpaceOnUse" x="0" y="0" width="27" height="20">
<rect width="27" height="20" fill="white"/>
</mask>
<g mask="url(#mask0_27_1439)">
<path d="M2.16 10.135C2.4213 10.135 2.6325 9.97627 2.6325 9.77994C2.6325 7.62659 4.9643 5.87444 7.83002 5.87444H18.4531C18.8491 5.87444 19.1701 6.11564 19.1701 6.41316V7.99912C19.1701 8.43941 19.8348 8.69377 20.3087 8.4348L24.8461 5.95508C25.2398 5.73994 25.2398 5.29886 24.8461 5.08372L20.3087 2.604C19.8348 2.34503 19.1701 2.59939 19.1701 3.03968V4.62564C19.1701 4.92316 18.8491 5.16436 18.4531 5.16436H7.83002C4.44313 5.16436 1.6875 7.23498 1.6875 9.77994C1.6875 9.97627 1.89871 10.135 2.16 10.135Z" fill="white"/>
<path d="M24.84 10.49C24.5787 10.49 24.3675 10.6487 24.3675 10.8451C24.3675 12.9984 22.0357 14.7506 19.17 14.7506H7.82993V12.6259C7.82993 12.1856 7.16517 11.9312 6.69129 12.1902L2.15386 14.6699C1.7602 14.8851 1.7602 15.3261 2.15386 15.5413L6.69129 18.021C7.16517 18.28 7.82993 18.0256 7.82993 17.5853V15.4606H19.17C22.5569 15.4606 25.3125 13.39 25.3125 10.8451C25.3125 10.6487 25.1013 10.49 24.84 10.49Z" fill="white"/>
</g>
</svg>
