<svg width="21" height="17" viewBox="0 0 21 17" fill="none" xmlns="http://www.w3.org/2000/svg">
<g clip-path="url(#clip0_161_1851)">
<path d="M9.57705 6.32446C8.92372 5.99774 8.15589 5.96394 7.493 6.19923C8.86456 6.19923 9.7853 6.85835 10.2479 7.82735C10.524 8.40355 10.0822 9.05292 9.48762 9.05292C10.0809 9.05292 10.5245 9.70113 10.2479 10.2785C9.77387 11.2715 8.76312 11.9156 7.66297 11.9156C7.64504 11.9156 4.6218 11.6382 4.6218 11.6382L2.48409 12.7117C2.182 12.8628 1.84621 12.7239 1.71487 12.4612L0.28376 9.5986C0.149618 9.32127 0.247995 8.99027 0.507363 8.8382L2.37679 7.77366L3.70057 5.38517C3.90628 3.54236 4.81862 1.8516 6.26763 0.661828C6.63432 0.357682 7.17997 0.411346 7.47513 0.778136C7.77922 1.14493 7.72558 1.68166 7.35886 1.98584C6.95637 2.32575 6.59856 2.71044 6.31234 3.13089C7.01 2.65674 7.81501 2.33473 8.70051 2.22737C9.17453 2.16476 9.6039 2.49572 9.65756 2.96987C9.72018 3.44399 9.38921 3.87339 8.91516 3.92705C8.39636 3.98967 7.91336 4.16859 7.493 4.41907C8.33365 4.23516 9.38303 4.31805 10.3284 4.77688C10.7577 4.99156 10.9366 5.50148 10.7219 5.93088C10.5162 6.3513 9.99747 6.53019 9.57705 6.32446ZM8.70051 8.56087C8.50375 8.15831 8.11018 7.90783 7.66294 7.90783C7.51245 7.90739 7.36336 7.9367 7.22424 7.99409C7.08513 8.05148 6.95873 8.13581 6.85233 8.24222C6.74592 8.34864 6.66161 8.47505 6.60424 8.61418C6.54687 8.7533 6.51758 8.9024 6.51805 9.05289C6.51805 9.74269 7.09131 10.1979 7.66294 10.1979C8.11018 10.1979 8.50375 9.94746 8.70051 9.5449C8.84363 9.24072 9.13876 9.06184 9.45183 9.05289C9.13876 9.04397 8.84363 8.86505 8.70051 8.56087ZM20.7666 7.36215C20.9008 7.63948 20.8024 7.97048 20.543 8.12255L18.6736 9.18709L17.3498 11.5756C17.1441 13.4184 16.2318 15.1092 14.7828 16.2989C14.4308 16.5923 13.8879 16.5611 13.5752 16.1826C13.2712 15.8158 13.3248 15.2791 13.6916 14.9749C14.094 14.635 14.4518 14.2503 14.738 13.8299C14.0404 14.304 13.2354 14.626 12.3499 14.7334C12.0273 14.8141 11.4629 14.5517 11.3928 13.9909C11.3302 13.5168 11.6612 13.0874 12.1352 13.0337C12.654 12.9711 13.137 12.7922 13.5574 12.5417C12.7167 12.7256 11.6673 12.6427 10.722 12.1839C10.2927 11.9692 10.1138 11.4593 10.3285 11.0299C10.5341 10.6094 11.0529 10.4305 11.4734 10.6363C12.1267 10.963 12.8945 10.9968 13.5574 10.7615C12.1859 10.7615 11.2651 10.1024 10.8025 9.13337C10.5264 8.55717 10.9682 7.9078 11.5628 7.9078C10.9695 7.9078 10.5259 7.25959 10.8025 6.68223C11.2543 5.73593 12.2202 5.0441 13.4411 5.04516L16.4286 5.32249L18.5663 4.249C18.8692 4.09757 19.2046 4.23761 19.3355 4.49948L20.7666 7.36215ZM13.3874 6.76281C12.9402 6.76281 12.5466 7.01329 12.3498 7.41585C12.2067 7.72003 11.9116 7.89891 11.5985 7.90786C11.9116 7.91681 12.2067 8.09573 12.3498 8.39988C12.5466 8.80243 12.9402 9.05292 13.3874 9.05292C13.5379 9.05336 13.687 9.02405 13.8261 8.96666C13.9652 8.90927 14.0916 8.82494 14.198 8.71852C14.3044 8.61211 14.3887 8.4857 14.4461 8.34657C14.5035 8.20745 14.5328 8.05835 14.5323 7.90786C14.5323 7.21803 13.959 6.76281 13.3874 6.76281Z" fill="#25A5A9"/>
</g>
<defs>
<clipPath id="clip0_161_1851">
<rect width="20.6026" height="16.4821" fill="white" transform="translate(0.223877 0.23877)"/>
</clipPath>
</defs>
</svg>
