<svg width="51" height="41" viewBox="0 0 51 41" fill="none" xmlns="http://www.w3.org/2000/svg">
<g clip-path="url(#clip0_49_2456)">
<path d="M23.153 15.1378C21.5357 14.3251 19.635 14.241 17.9941 14.8263C21.3892 14.8263 23.6684 16.4659 24.8136 18.8764C25.497 20.3097 24.4033 21.925 22.9316 21.925C24.4001 21.925 25.4984 23.5375 24.8136 24.9737C23.6402 27.4438 21.1381 29.046 18.4148 29.046C18.3704 29.046 10.8867 28.3561 10.8867 28.3561L5.59493 31.0265C4.84714 31.4023 4.01592 31.0568 3.69079 30.4034L0.148205 23.2824C-0.183853 22.5925 0.0596721 21.7692 0.701714 21.3909L5.32933 18.7428L8.60624 12.8013C9.11544 8.21724 11.3739 4.01138 14.9608 1.05177C15.8685 0.295192 17.2192 0.428682 17.9498 1.34109C18.7026 2.2535 18.5698 3.58865 17.662 4.3453C16.6657 5.19085 15.7799 6.14778 15.0714 7.19368C16.7984 6.01421 18.7912 5.21319 20.9831 4.94613C22.1565 4.79038 23.2194 5.61366 23.3522 6.79313C23.5072 7.97252 22.688 9.04068 21.5145 9.17417C20.2303 9.32993 19.0346 9.775 17.9941 10.3981C20.075 9.9406 22.6727 10.1468 25.0129 11.2882C26.0756 11.8222 26.5184 13.0906 25.987 14.1588C25.4778 15.2046 24.1937 15.6496 23.153 15.1378ZM20.9831 20.701C20.4961 19.6996 19.5218 19.0766 18.4147 19.0766C18.0422 19.0754 17.6731 19.1484 17.3288 19.2911C16.9844 19.4339 16.6715 19.6437 16.4081 19.9084C16.1447 20.1731 15.936 20.4875 15.794 20.8336C15.652 21.1797 15.5795 21.5506 15.5806 21.9249C15.5806 23.6409 16.9997 24.7733 18.4147 24.7733C19.5218 24.7733 20.4961 24.1502 20.9831 23.1488C21.3374 22.3922 22.068 21.9472 22.843 21.9249C22.068 21.9028 21.3374 21.4577 20.9831 20.701ZM50.8517 17.7192C51.1838 18.409 50.9402 19.2324 50.2982 19.6107L45.6706 22.2588L42.3937 28.2003C41.8845 32.7843 39.6261 36.9902 36.0392 39.9498C35.1681 40.6795 33.824 40.602 33.0501 39.6605C32.2974 38.7481 32.4302 37.4129 33.338 36.6563C34.3344 35.8107 35.22 34.8538 35.9285 33.8079C34.2015 34.9874 32.2088 35.7884 30.0168 36.0554C29.2183 36.2561 27.8213 35.6036 27.6477 34.2084C27.4927 33.029 28.312 31.9609 29.4855 31.8274C30.7697 31.6716 31.9654 31.2266 33.0059 30.6035C30.9249 31.061 28.3273 30.8548 25.9871 29.7134C24.9244 29.1794 24.4816 27.9109 25.013 26.8428C25.5221 25.7969 26.8064 25.3518 27.8471 25.8637C29.4644 26.6764 31.3651 26.7605 33.006 26.1752C29.6108 26.1752 27.3316 24.5356 26.1865 22.1251C25.5031 20.6918 26.5967 19.0765 28.0685 19.0765C26.5999 19.0765 25.5017 17.464 26.1865 16.0278C27.3047 13.6738 29.6959 11.9529 32.7182 11.9555L40.1134 12.6454L45.4051 9.97504C46.1548 9.59835 46.9852 9.94669 47.3092 10.5981L50.8517 17.7192ZM32.5852 16.2283C31.4781 16.2283 30.5038 16.8513 30.0168 17.8527C29.6625 18.6094 28.9319 19.0544 28.1569 19.0766C28.9319 19.0989 29.6625 19.544 30.0168 20.3005C30.5038 21.3019 31.4781 21.925 32.5852 21.925C32.9577 21.9261 33.3267 21.8532 33.6711 21.7104C34.0155 21.5677 34.3284 21.3579 34.5918 21.0932C34.8552 20.8285 35.0639 20.514 35.2059 20.1679C35.3479 19.8219 35.4204 19.451 35.4192 19.0766C35.4192 17.3606 34.0002 16.2283 32.5852 16.2283Z" fill="#25A5A9"/>
</g>
<defs>
<clipPath id="clip0_49_2456">
<rect width="51" height="41" fill="white"/>
</clipPath>
</defs>
</svg>
