<svg width="24" height="24" viewBox="0 0 24 24" fill="none" xmlns="http://www.w3.org/2000/svg">
<path d="M12.964 7.63496L7.767 3.74796C7.64967 3.65796 7.58067 3.5503 7.56 3.42496C7.53933 3.29963 7.574 3.17796 7.664 3.05996C7.754 2.94196 7.86467 2.87163 7.996 2.84896C8.12733 2.8263 8.25233 2.85996 8.371 2.94996L13.567 6.84196L12.964 7.63496ZM9.119 6.97696L8.815 7.26696C8.73167 7.33763 8.659 7.40596 8.597 7.47196C8.535 7.53863 8.477 7.6153 8.423 7.70196L6.902 6.57496C6.784 6.48563 6.71467 6.37463 6.694 6.24196C6.674 6.10996 6.70867 5.98496 6.798 5.86696C6.888 5.74963 6.999 5.68063 7.131 5.65996C7.263 5.6393 7.388 5.67396 7.506 5.76396L9.119 6.97696ZM17.806 7.77496L11.014 2.71496C10.896 2.62563 10.829 2.51796 10.813 2.39196C10.797 2.26596 10.8337 2.1443 10.923 2.02696C11.0123 1.90963 11.12 1.8403 11.246 1.81896C11.3713 1.79896 11.493 1.83363 11.611 1.92296L17.031 5.95796L17.391 3.27096C17.4277 3.05096 17.5153 2.85996 17.654 2.69796C17.7927 2.53596 17.9703 2.4413 18.187 2.41396L18.879 2.34096L21.017 9.56696C21.1377 9.95363 21.166 10.3353 21.102 10.712C21.038 11.0886 20.8837 11.4366 20.639 11.756L19.302 13.542C19.2687 13.3473 19.2163 13.162 19.145 12.986C19.0743 12.8093 18.9863 12.6376 18.881 12.471L19.846 11.171C19.9973 10.9736 20.094 10.7616 20.136 10.535C20.1787 10.3083 20.164 10.0813 20.092 9.85396L18.316 3.89396L17.806 7.77496ZM7.384 10.367L6.861 9.98296C6.741 9.8983 6.67033 9.78863 6.649 9.65396C6.62767 9.5193 6.662 9.39296 6.752 9.27496C6.842 9.15696 6.953 9.09096 7.085 9.07696C7.217 9.06296 7.342 9.10096 7.46 9.19096L7.966 9.56096C7.95933 9.6943 7.96533 9.82897 7.984 9.96496C8.00267 10.0996 8.036 10.2336 8.084 10.367H7.384ZM2.5 15.981C2.358 15.981 2.23933 15.933 2.144 15.837C2.048 15.741 2 15.622 2 15.48C2 15.338 2.048 15.2193 2.144 15.124C2.24 15.0286 2.35867 14.981 2.5 14.981H9V15.981H2.5ZM3.5 18.75C3.358 18.75 3.23933 18.702 3.144 18.606C3.04867 18.51 3.00067 18.391 3 18.249C2.99933 18.107 3.04733 17.9883 3.144 17.893C3.24067 17.7976 3.35933 17.75 3.5 17.75H9V18.75H3.5ZM5.5 21.52C5.358 21.52 5.23933 21.4716 5.144 21.375C5.04867 21.2783 5.00067 21.16 5 21.02C4.99933 20.88 5.04733 20.7613 5.144 20.664C5.24067 20.5666 5.35933 20.5186 5.5 20.52H15.116C15.5273 20.52 15.88 20.373 16.174 20.079C16.468 19.785 16.6153 19.432 16.616 19.02V14.713C16.616 14.469 16.5663 14.242 16.467 14.032C16.3683 13.822 16.2203 13.6476 16.023 13.509L11.046 9.78596L12.962 13.213H4.5C4.358 13.213 4.23933 13.165 4.144 13.069C4.048 12.9723 4 12.8526 4 12.71C4 12.5673 4.048 12.4486 4.144 12.354C4.24 12.2593 4.35867 12.2116 4.5 12.211H11.254L9.923 9.84596C9.813 9.64996 9.766 9.44263 9.782 9.22396C9.798 9.0053 9.89 8.82496 10.058 8.68296L10.585 8.21296L16.608 12.716C16.9273 12.9606 17.175 13.2526 17.351 13.592C17.5277 13.932 17.616 14.3053 17.616 14.712V19.019C17.616 19.7136 17.3727 20.304 16.886 20.79C16.4 21.2766 15.81 21.52 15.116 21.52H5.5Z" fill="#124142"/>
</svg>
