<svg width="18" height="13" viewBox="0 0 18 13" fill="none" xmlns="http://www.w3.org/2000/svg">
<path d="M6.80445 9.48525C8.20585 8.33282 10.2585 8.33286 11.6599 9.48525C11.7304 9.54724 11.7713 9.63503 11.7732 9.72744C11.7751 9.81968 11.7383 9.90885 11.6707 9.97353L9.47633 12.1269C9.412 12.1901 9.32369 12.2255 9.23219 12.2255C9.14085 12.2255 9.0533 12.1899 8.98902 12.1269L6.79371 9.97353C6.72605 9.90882 6.68924 9.81969 6.69117 9.72744C6.69318 9.63506 6.73394 9.54719 6.80445 9.48525ZM3.87574 6.61318C6.89508 3.88251 11.5712 3.88254 14.5906 6.61318C14.6587 6.67721 14.698 6.76517 14.699 6.85732C14.6999 6.94941 14.6622 7.03808 14.5955 7.10341L13.3269 8.34951C13.1962 8.47659 12.9854 8.4792 12.8513 8.35537C11.8598 7.48248 10.5698 6.99884 9.23219 6.99892C7.89557 6.99947 6.60679 7.48315 5.61597 8.35537C5.48187 8.47925 5.27014 8.47676 5.13941 8.34951L3.87183 7.10341C3.80491 7.03816 3.76745 6.94946 3.76832 6.85732C3.76921 6.76529 3.80773 6.67719 3.87574 6.61318ZM0.948006 3.74892C5.57899 -0.566049 12.8844 -0.566044 17.5154 3.74892C17.5823 3.81296 17.6212 3.8998 17.6218 3.99111C17.6224 4.08252 17.5846 4.17039 17.5183 4.23525L16.2488 5.48134C16.1179 5.60923 15.9051 5.61116 15.7722 5.48525C14.0079 3.85449 11.6666 2.94531 9.23219 2.94521C6.79746 2.94522 4.45577 3.85428 2.69117 5.48525C2.55839 5.61135 2.34538 5.60942 2.21461 5.48134L0.945076 4.23525C0.878866 4.17034 0.841918 4.08252 0.842537 3.99111C0.843217 3.89987 0.881108 3.81291 0.948006 3.74892Z" fill="black"/>
</svg>
