<svg width="18" height="13" viewBox="0 0 18 13" fill="none" xmlns="http://www.w3.org/2000/svg">
<path d="M6.80442 9.48551C8.20585 8.33307 10.2585 8.33307 11.6599 9.48551C11.7304 9.5475 11.7712 9.63531 11.7732 9.7277C11.775 9.81992 11.7383 9.90915 11.6706 9.97379L9.4763 12.1271C9.41197 12.1904 9.32366 12.2257 9.23215 12.2257C9.14086 12.2257 9.05326 12.1901 8.98899 12.1271L6.79368 9.97379C6.72601 9.90912 6.68926 9.81993 6.69114 9.7277C6.69315 9.63536 6.73396 9.54744 6.80442 9.48551ZM3.87669 6.61344C6.89604 3.8828 11.5712 3.88277 14.5906 6.61344C14.6587 6.67747 14.698 6.76546 14.699 6.85758C14.6998 6.94954 14.6631 7.03842 14.5964 7.10368L13.3269 8.34977C13.1961 8.47668 12.9853 8.47938 12.8513 8.35563C11.8598 7.4827 10.5698 6.9991 9.23215 6.99918C7.89549 6.99975 6.60677 7.48334 5.61594 8.35563C5.48184 8.47952 5.27011 8.47703 5.13938 8.34977L3.8718 7.10368C3.80494 7.03849 3.76749 6.94963 3.76829 6.85758C3.76918 6.76541 3.80848 6.67747 3.87669 6.61344ZM0.947975 3.74821C5.57883 -0.566472 12.8844 -0.56632 17.5154 3.74821C17.5824 3.81228 17.6212 3.9 17.6218 3.99137C17.6224 4.08279 17.5845 4.17065 17.5183 4.23551L16.2488 5.48161C16.1179 5.60949 15.9051 5.61142 15.7722 5.48551C14.0078 3.85471 11.6666 2.9446 9.23215 2.9445C6.79743 2.94452 4.45574 3.85453 2.69114 5.48551C2.55839 5.61151 2.34631 5.60954 2.21555 5.48161L0.945045 4.23551C0.878835 4.1706 0.841888 4.08279 0.842506 3.99137C0.843138 3.89997 0.880904 3.81225 0.947975 3.74821Z" fill="white"/>
</svg>
