<svg width="18" height="13" viewBox="0 0 18 13" fill="none" xmlns="http://www.w3.org/2000/svg">
<path d="M6.80442 9.48524C8.20582 8.33282 10.2585 8.33285 11.6599 9.48524C11.7304 9.54723 11.7712 9.63502 11.7732 9.72743C11.7751 9.81968 11.7383 9.90885 11.6706 9.97352L9.4763 12.1268C9.41197 12.1901 9.32366 12.2255 9.23215 12.2255C9.14082 12.2254 9.05327 12.1899 8.98899 12.1268L6.79368 9.97352C6.72602 9.90881 6.68921 9.81968 6.69114 9.72743C6.69315 9.63505 6.7339 9.54718 6.80442 9.48524ZM3.87669 6.61317C6.89602 3.88267 11.5713 3.88262 14.5906 6.61317C14.6587 6.6772 14.698 6.76516 14.699 6.85731C14.6999 6.94931 14.6631 7.0381 14.5964 7.10341L13.3269 8.3495C13.1961 8.47655 12.9853 8.47918 12.8513 8.35536C11.8598 7.48249 10.5697 6.99883 9.23215 6.99891C7.89555 6.99948 6.60675 7.48314 5.61594 8.35536C5.48184 8.47925 5.27011 8.47675 5.13938 8.3495L3.8718 7.10341C3.80488 7.03815 3.76742 6.94946 3.76829 6.85731C3.76918 6.76514 3.80848 6.6772 3.87669 6.61317ZM0.947975 3.74891C5.57895 -0.566051 12.8844 -0.566037 17.5154 3.74891C17.5823 3.81295 17.6212 3.89979 17.6218 3.9911C17.6224 4.08252 17.5845 4.17038 17.5183 4.23524L16.2488 5.48134C16.1179 5.60922 15.9051 5.61115 15.7722 5.48524C14.0078 3.8545 11.6666 2.94531 9.23215 2.9452C6.79744 2.94522 4.45574 3.85427 2.69114 5.48524C2.55837 5.61134 2.34633 5.60938 2.21555 5.48134L0.945045 4.23524C0.878835 4.17033 0.841888 4.08252 0.842506 3.9911C0.843187 3.89987 0.881087 3.8129 0.947975 3.74891Z" fill="black"/>
</svg>
