<svg width="62" height="66" viewBox="0 0 62 66" fill="none" xmlns="http://www.w3.org/2000/svg">
<g filter="url(#filter0_d_49_2486)">
<rect x="12" y="8" width="42" height="42" rx="21" fill="#F44336" shape-rendering="crispEdges"/>
<path fill-rule="evenodd" clip-rule="evenodd" d="M29.7345 19.7662C28.6364 18.2131 26.4392 17.9511 25.1108 19.3496L23.4104 21.1398C22.8299 21.751 22.3887 22.6 22.4418 23.5898C22.5493 25.5931 23.3999 29.6934 27.8775 34.4075C32.676 39.4594 37.2533 39.7135 39.2291 39.5184C40.0384 39.4385 40.6934 39.0069 41.1737 38.5012L42.7126 36.881C44.1263 35.3926 43.7146 32.9019 41.9456 31.8836L39.8759 30.6923C38.6859 30.0074 37.21 30.2037 36.2634 31.2003L35.8207 31.6664C35.7894 31.6774 35.691 31.704 35.5028 31.6734C35.0667 31.6026 34.1257 31.2176 32.5742 29.5842C31.0275 27.9559 30.6466 26.953 30.5743 26.4595C30.5394 26.2215 30.5748 26.096 30.5889 26.0567L30.5912 26.0504L30.8564 25.7711C31.9046 24.6675 31.9788 22.9405 31.1005 21.6983L29.7345 19.7662ZM26.289 20.4688C26.8554 19.8724 27.8526 19.9193 28.4076 20.7043L29.7737 22.6364C30.231 23.2832 30.1609 24.1438 29.6782 24.652L29.3675 24.9791L29.9435 25.5262C29.3675 24.9791 29.3667 24.9799 29.366 24.9807L29.3645 24.9823L29.3613 24.9857L29.3547 24.9929L29.3403 25.0091C29.3301 25.0208 29.319 25.0341 29.3071 25.0491C29.2833 25.0792 29.2563 25.1162 29.2281 25.1604C29.1714 25.249 29.11 25.3656 29.0579 25.5119C28.9521 25.8093 28.8944 26.2032 28.9664 26.6951C29.1081 27.6616 29.7413 28.9613 31.396 30.7033C33.0457 32.4402 34.2917 33.123 35.2423 33.2774C35.7301 33.3566 36.125 33.2933 36.424 33.1754C36.5701 33.1178 36.6857 33.0501 36.7725 32.9885C36.8158 32.9578 36.8519 32.9287 36.881 32.9032C36.8955 32.8904 36.9084 32.8785 36.9196 32.8677L36.9351 32.8524L36.942 32.8454L36.9452 32.8421L36.9467 32.8405C36.9475 32.8397 36.9482 32.8389 36.3771 32.2964L36.9482 32.8389L37.4416 32.3194C37.8592 31.8798 38.5098 31.781 39.0653 32.1007L41.135 33.292C42.0242 33.8039 42.1982 35.063 41.5344 35.7619L39.9955 37.3821C39.6932 37.7004 39.3769 37.8709 39.0695 37.9013C37.5149 38.0547 33.4586 37.9238 29.0558 33.2884C24.8566 28.8675 24.1523 25.1384 24.0645 23.5027C24.0413 23.0701 24.2296 22.6369 24.5886 22.259L26.289 20.4688Z" fill="white"/>
<path d="M37.9079 19.7586C37.5906 19.4413 37.0761 19.4413 36.7588 19.7586C36.4415 20.0759 36.4415 20.5904 36.7588 20.9077L38.351 22.4998L36.7588 24.092C36.4415 24.4093 36.4415 24.9237 36.7588 25.241C37.0761 25.5583 37.5906 25.5583 37.9079 25.241L39.5 23.6489L41.0921 25.241C41.4094 25.5583 41.9239 25.5583 42.2412 25.241C42.5585 24.9237 42.5585 24.4093 42.2412 24.092L40.6491 22.4998L42.2412 20.9077C42.5585 20.5904 42.5585 20.076 42.2412 19.7587C41.9239 19.4414 41.4094 19.4414 41.0921 19.7587L39.5 21.3508L37.9079 19.7586Z" fill="white"/>
</g>
<defs>
<filter id="filter0_d_49_2486" x="0" y="0" width="66" height="66" filterUnits="userSpaceOnUse" color-interpolation-filters="sRGB">
<feFlood flood-opacity="0" result="BackgroundImageFix"/>
<feColorMatrix in="SourceAlpha" type="matrix" values="0 0 0 0 0 0 0 0 0 0 0 0 0 0 0 0 0 0 127 0" result="hardAlpha"/>
<feOffset dy="4"/>
<feGaussianBlur stdDeviation="6"/>
<feComposite in2="hardAlpha" operator="out"/>
<feColorMatrix type="matrix" values="0 0 0 0 0.0509804 0 0 0 0 0.0392157 0 0 0 0 0.172549 0 0 0 0.06 0"/>
<feBlend mode="normal" in2="BackgroundImageFix" result="effect1_dropShadow_49_2486"/>
<feBlend mode="normal" in="SourceGraphic" in2="effect1_dropShadow_49_2486" result="shape"/>
</filter>
</defs>
</svg>
