<svg width="20" height="13" viewBox="0 0 20 13" fill="none" xmlns="http://www.w3.org/2000/svg">
<path d="M2.83942 7.99268C3.44605 7.99284 3.93805 8.4712 3.93805 9.06104V11.1968C3.93805 11.7866 3.44605 12.265 2.83942 12.2651H1.74078C1.13401 12.2651 0.642151 11.7867 0.642151 11.1968V9.06104C0.642151 8.47109 1.13401 7.99268 1.74078 7.99268H2.83942ZM7.96637 5.85596C8.57307 5.85604 9.065 6.33443 9.065 6.92432V11.1968C9.06493 11.7866 8.57302 12.265 7.96637 12.2651H6.86774C6.26101 12.2651 5.76918 11.7867 5.7691 11.1968V6.92432C5.7691 6.33438 6.26096 5.85596 6.86774 5.85596H7.96637ZM13.0933 3.36279C13.7 3.36279 14.1918 3.84134 14.192 4.43115V11.1968C14.1919 11.7866 13.7 12.2651 13.0933 12.2651H11.9947C11.388 12.2651 10.8962 11.7866 10.8961 11.1968V4.43115C10.8962 3.84134 11.388 3.36279 11.9947 3.36279H13.0933ZM18.2203 0.871582C18.8271 0.871582 19.3189 1.35 19.3189 1.93994V11.1968C19.3189 11.7867 18.8271 12.2651 18.2203 12.2651H17.1216C16.5149 12.2651 16.023 11.7867 16.023 11.1968V1.93994C16.023 1.35004 16.5149 0.871649 17.1216 0.871582H18.2203Z" fill="black"/>
</svg>
