<svg width="20" height="20" viewBox="0 0 20 20" fill="none" xmlns="http://www.w3.org/2000/svg">
<path d="M5.453 4.16705C5.38624 4.09893 5.30671 4.04464 5.21896 4.00726C5.1312 3.96989 5.03695 3.95018 4.94157 3.94925C4.8462 3.94832 4.75157 3.9662 4.66311 4.00185C4.57465 4.03751 4.49408 4.09024 4.426 4.15705C3.65617 4.92279 3.04548 5.83331 2.62912 6.83612C2.21275 7.83894 1.99894 8.91423 2 10C1.99887 11.1276 2.22943 12.2433 2.67737 13.278C3.12531 14.3127 3.78108 15.2443 4.604 16.015C4.74252 16.1431 4.92549 16.2121 5.11407 16.2074C5.30265 16.2028 5.48198 16.1248 5.614 15.99C5.93 15.674 5.891 15.171 5.587 14.88C4.9265 14.2506 4.40089 13.4934 4.04212 12.6545C3.68335 11.8156 3.4989 10.9125 3.5 10C3.5 8.15405 4.241 6.48005 5.443 5.26205C5.733 4.96705 5.763 4.47705 5.453 4.16705ZM7.214 5.93005C7.0823 5.79454 6.90225 5.71676 6.71331 5.71376C6.52436 5.71076 6.34194 5.78278 6.206 5.91405C5.66481 6.4479 5.23527 7.08411 4.94237 7.7856C4.64948 8.4871 4.49911 9.23986 4.5 10C4.5 11.692 5.23 13.213 6.393 14.265C6.53037 14.3862 6.70909 14.4498 6.8921 14.4427C7.07512 14.4357 7.24839 14.3584 7.376 14.227C7.704 13.899 7.643 13.383 7.335 13.093C6.91295 12.6961 6.57674 12.2168 6.34713 11.6848C6.11752 11.1529 5.99938 10.5795 6 10C6 8.85005 6.457 7.80605 7.2 7.04005C7.486 6.74605 7.533 6.24805 7.214 5.93005ZM12.786 5.92905C12.9177 5.79354 13.0977 5.71576 13.2867 5.71276C13.4756 5.70976 13.6581 5.78178 13.794 5.91305C14.3353 6.44702 14.7649 7.08339 15.0578 7.78506C15.3507 8.48674 15.501 9.2397 15.5 10C15.5 11.692 14.77 13.213 13.607 14.265C13.4696 14.3862 13.2909 14.4498 13.1079 14.4427C12.9249 14.4357 12.7516 14.3584 12.624 14.227C12.296 13.899 12.357 13.383 12.665 13.093C13.087 12.6961 13.4233 12.2168 13.6529 11.6848C13.8825 11.1529 14.0006 10.5795 14 10C14 8.85005 13.543 7.80605 12.8 7.04005C12.514 6.74605 12.467 6.24705 12.786 5.92905ZM14.547 4.16705C14.6138 4.09893 14.6933 4.04464 14.781 4.00726C14.8688 3.96989 14.9631 3.95018 15.0584 3.94925C15.1538 3.94832 15.2484 3.9662 15.3369 4.00185C15.4254 4.03751 15.5059 4.09024 15.574 4.15705C16.3438 4.92279 16.9545 5.83331 17.3709 6.83612C17.7873 7.83894 18.0011 8.91423 18 10C18.0011 11.1276 17.7706 12.2433 17.3226 13.278C16.8747 14.3127 16.2189 15.2443 15.396 16.015C15.2575 16.1431 15.0745 16.2121 14.8859 16.2074C14.6973 16.2028 14.518 16.1248 14.386 15.99C14.07 15.674 14.109 15.171 14.414 14.88C15.0743 14.2505 15.5997 13.4933 15.9583 12.6544C16.3169 11.8154 16.5012 10.9124 16.5 10C16.5 8.15405 15.759 6.48005 14.557 5.26205C14.267 4.96705 14.237 4.47705 14.547 4.16705ZM10 8.50005C9.60218 8.50005 9.22064 8.65808 8.93934 8.93939C8.65804 9.22069 8.5 9.60222 8.5 10C8.5 10.3979 8.65804 10.7794 8.93934 11.0607C9.22064 11.342 9.60218 11.5 10 11.5C10.3978 11.5 10.7794 11.342 11.0607 11.0607C11.342 10.7794 11.5 10.3979 11.5 10C11.5 9.60222 11.342 9.22069 11.0607 8.93939C10.7794 8.65808 10.3978 8.50005 10 8.50005Z" fill="#8A0101"/>
</svg>
