<svg width="20" height="13" viewBox="0 0 20 13" fill="none" xmlns="http://www.w3.org/2000/svg">
<path d="M2.83942 7.9928C3.44592 7.99296 3.93784 8.47051 3.93805 9.06018V11.1969C3.93805 11.7867 3.44605 12.2651 2.83942 12.2653H1.74078C1.13401 12.2653 0.642151 11.7868 0.642151 11.1969V9.06018C0.64236 8.47041 1.13414 7.9928 1.74078 7.9928H2.83942ZM7.96637 5.85608C8.57307 5.85617 9.065 6.33455 9.065 6.92444V11.1969C9.065 11.7868 8.57307 12.2652 7.96637 12.2653H6.86774C6.26096 12.2653 5.7691 11.7868 5.7691 11.1969V6.92444C5.7691 6.3345 6.26096 5.85608 6.86774 5.85608H7.96637ZM13.0933 3.36389C13.7001 3.36389 14.192 3.84231 14.192 4.43225V11.1969C14.192 11.7868 13.7001 12.2653 13.0933 12.2653H11.9947C11.3879 12.2653 10.8961 11.7868 10.8961 11.1969V4.43225C10.8961 3.84231 11.3879 3.36389 11.9947 3.36389H13.0933ZM18.2203 0.870728C18.827 0.870728 19.3188 1.34926 19.3189 1.93909V11.1969C19.3189 11.7868 18.8271 12.2653 18.2203 12.2653H17.1216C16.5149 12.2652 16.023 11.7868 16.023 11.1969V1.93909C16.0232 1.3493 16.515 0.870794 17.1216 0.870728H18.2203Z" fill="black"/>
</svg>
