<svg width="20" height="13" viewBox="0 0 20 13" fill="none" xmlns="http://www.w3.org/2000/svg">
<path d="M2.83936 7.9928C3.44587 7.99295 3.93778 8.4705 3.93799 9.06018V11.1969C3.93799 11.7867 3.446 12.2651 2.83936 12.2653H1.74072C1.13395 12.2653 0.64209 11.7868 0.64209 11.1969V9.06018C0.642299 8.47041 1.13408 7.9928 1.74072 7.9928H2.83936ZM7.96631 5.85608C8.57302 5.85615 9.06494 6.33454 9.06494 6.92444V11.1969C9.06494 11.7868 8.57302 12.2652 7.96631 12.2653H6.86768C6.2609 12.2653 5.76904 11.7868 5.76904 11.1969V6.92444C5.76904 6.3345 6.2609 5.85608 6.86768 5.85608H7.96631ZM13.0933 3.36389C13.7 3.36389 14.1919 3.84231 14.1919 4.43225V11.1969C14.1919 11.7868 13.7 12.2653 13.0933 12.2653H11.9946C11.3879 12.2653 10.896 11.7868 10.896 11.1969V4.43225C10.896 3.84231 11.3879 3.36389 11.9946 3.36389H13.0933ZM18.2202 0.870728C18.8269 0.870728 19.3187 1.34926 19.3188 1.93909V11.1969C19.3188 11.7868 18.827 12.2653 18.2202 12.2653H17.1216C16.5149 12.2652 16.0229 11.7868 16.0229 11.1969V1.93909C16.0231 1.3493 16.515 0.870792 17.1216 0.870728H18.2202Z" fill="black"/>
</svg>
