<svg width="25" height="30" viewBox="0 0 25 30" fill="none" xmlns="http://www.w3.org/2000/svg">
<path d="M0.649043 25.7409C0.448895 25.9459 0.291598 26.1887 0.18634 26.4552C0.0810821 26.7216 0.0299731 27.0063 0.0359997 27.2928C0.0420262 27.5792 0.105068 27.8615 0.22144 28.1233C0.337813 28.3851 0.505184 28.621 0.713776 28.8174C0.922368 29.0138 1.168 29.1666 1.43632 29.267C1.70464 29.3674 1.99028 29.4132 2.27654 29.402C2.5628 29.3907 2.84394 29.3225 3.10355 29.2014C3.36316 29.0803 3.59602 28.9086 3.78854 28.6964L15.2885 16.4777C15.6641 16.0779 15.8732 15.5499 15.8732 15.0014C15.8732 14.4528 15.6641 13.9249 15.2885 13.5251L3.78854 1.30632C3.59602 1.09418 3.36316 0.922519 3.10355 0.80138C2.84394 0.680241 2.5628 0.61205 2.27654 0.600788C1.99028 0.589526 1.70464 0.635421 1.43632 0.73579C1.168 0.836159 0.922368 0.988992 0.713776 1.18536C0.505184 1.38173 0.337813 1.61769 0.22144 1.87947C0.105068 2.14125 0.0420262 2.42359 0.0359997 2.71001C0.0299731 2.99643 0.0810821 3.28117 0.18634 3.54762C0.291598 3.81406 0.448895 4.05686 0.649043 4.26182L10.7575 14.9999L0.649043 25.7409ZM22.3438 0.624949C22.9157 0.624949 23.4641 0.852124 23.8685 1.2565C24.2729 1.66087 24.5 2.20933 24.5 2.7812V27.2187C24.5 27.7906 24.2729 28.339 23.8685 28.7434C23.4641 29.1478 22.9157 29.3749 22.3438 29.3749C21.7719 29.3749 21.2235 29.1478 20.8191 28.7434C20.4147 28.339 20.1875 27.7906 20.1875 27.2187V2.7812C20.1875 2.20933 20.4147 1.66087 20.8191 1.2565C21.2235 0.852124 21.7719 0.624949 22.3438 0.624949Z" fill="#25A5A9"/>
</svg>
