<svg width="18" height="13" viewBox="0 0 18 13" fill="none" xmlns="http://www.w3.org/2000/svg">
<path d="M6.80442 9.48556C8.20584 8.33312 10.2585 8.33312 11.6599 9.48556C11.7304 9.54755 11.7712 9.63534 11.7732 9.72775C11.775 9.81998 11.7383 9.90919 11.6706 9.97384L9.4763 12.1272C9.41197 12.1904 9.32366 12.2258 9.23215 12.2258C9.14085 12.2258 9.05326 12.1902 8.98899 12.1272L6.79368 9.97384C6.72601 9.90915 6.68925 9.81998 6.69114 9.72775C6.69315 9.6354 6.73394 9.54749 6.80442 9.48556ZM3.87669 6.61349C6.89604 3.88285 11.5712 3.88282 14.5906 6.61349C14.6587 6.67752 14.698 6.7655 14.699 6.85763C14.6998 6.94959 14.6631 7.03846 14.5964 7.10372L13.3269 8.34982C13.1961 8.47674 12.9853 8.47944 12.8513 8.35568C11.8598 7.48275 10.5698 6.99915 9.23215 6.99923C7.89549 6.99979 6.60677 7.48339 5.61594 8.35568C5.48184 8.47956 5.27011 8.47707 5.13938 8.34982L3.8718 7.10372C3.80494 7.03853 3.76749 6.94968 3.76829 6.85763C3.76918 6.76545 3.80848 6.67752 3.87669 6.61349ZM0.947975 3.74825C5.57882 -0.566388 12.8844 -0.566236 17.5154 3.74825C17.5823 3.81232 17.6212 3.90007 17.6218 3.99142C17.6224 4.08283 17.5845 4.1707 17.5183 4.23556L16.2488 5.48165C16.1179 5.60954 15.9051 5.61147 15.7722 5.48556C14.0078 3.85478 11.6666 2.94465 9.23215 2.94454C6.79743 2.94456 4.45574 3.85458 2.69114 5.48556C2.55838 5.61159 2.34632 5.60963 2.21555 5.48165L0.945045 4.23556C0.878835 4.17065 0.841888 4.08283 0.842506 3.99142C0.843154 3.90004 0.880919 3.81228 0.947975 3.74825Z" fill="black"/>
</svg>
