<svg width="64" height="66" viewBox="0 0 64 66" fill="none" xmlns="http://www.w3.org/2000/svg">
<g filter="url(#filter0_d_161_2072)">
<rect x="10" y="8" width="42" height="42" rx="21" fill="white" fill-opacity="0.1" shape-rendering="crispEdges"/>
<path fill-rule="evenodd" clip-rule="evenodd" d="M29.4079 21.9255C29.7252 22.2428 29.7252 22.7572 29.4079 23.0745L24.2949 28.1875H39.6667C40.1154 28.1875 40.4792 28.5513 40.4792 29C40.4792 29.4487 40.1154 29.8125 39.6667 29.8125H24.2949L29.4079 34.9255C29.7252 35.2428 29.7252 35.7572 29.4079 36.0745C29.0906 36.3918 28.5762 36.3918 28.2588 36.0745L21.7588 29.5745C21.4415 29.2572 21.4415 28.7428 21.7588 28.4255L28.2588 21.9255C28.5762 21.6082 29.0906 21.6082 29.4079 21.9255Z" fill="#2C2D3A"/>
</g>
<defs>
<filter id="filter0_d_161_2072" x="-2" y="0" width="66" height="66" filterUnits="userSpaceOnUse" color-interpolation-filters="sRGB">
<feFlood flood-opacity="0" result="BackgroundImageFix"/>
<feColorMatrix in="SourceAlpha" type="matrix" values="0 0 0 0 0 0 0 0 0 0 0 0 0 0 0 0 0 0 127 0" result="hardAlpha"/>
<feOffset dy="4"/>
<feGaussianBlur stdDeviation="6"/>
<feComposite in2="hardAlpha" operator="out"/>
<feColorMatrix type="matrix" values="0 0 0 0 0.0509804 0 0 0 0 0.0392157 0 0 0 0 0.172549 0 0 0 0.06 0"/>
<feBlend mode="normal" in2="BackgroundImageFix" result="effect1_dropShadow_161_2072"/>
<feBlend mode="normal" in="SourceGraphic" in2="effect1_dropShadow_161_2072" result="shape"/>
</filter>
</defs>
</svg>
