<svg width="20" height="13" viewBox="0 0 20 13" fill="none" xmlns="http://www.w3.org/2000/svg">
<path d="M2.83951 7.99316C3.44616 7.9933 3.93814 8.47167 3.93814 9.06152V11.1973C3.93814 11.7871 3.44616 12.2655 2.83951 12.2656H1.74088C1.1341 12.2656 0.642242 11.7872 0.642242 11.1973V9.06152C0.642242 8.47158 1.1341 7.99316 1.74088 7.99316H2.83951ZM7.96646 5.85645C8.57318 5.85651 9.06509 6.3349 9.06509 6.9248V11.1973C9.06509 11.7872 8.57318 12.2656 7.96646 12.2656H6.86783C6.26105 12.2656 5.7692 11.7872 5.7692 11.1973V6.9248C5.7692 6.33486 6.26105 5.85645 6.86783 5.85645H7.96646ZM13.0934 3.36426C13.7002 3.36426 14.192 3.84268 14.192 4.43262V11.1973C14.192 11.7872 13.7002 12.2656 13.0934 12.2656H11.9948C11.388 12.2656 10.8961 11.7872 10.8961 11.1973V4.43262C10.8961 3.84268 11.388 3.36426 11.9948 3.36426H13.0934ZM18.2204 0.871094C18.8271 0.871094 19.3189 1.34963 19.319 1.93945V11.1973C19.319 11.7872 18.8271 12.2656 18.2204 12.2656H17.1217C16.515 12.2656 16.0231 11.7872 16.0231 11.1973V1.93945C16.0232 1.34968 16.5151 0.871166 17.1217 0.871094H18.2204Z" fill="black"/>
</svg>
