<svg width="20" height="13" viewBox="0 0 20 13" fill="none" xmlns="http://www.w3.org/2000/svg">
<path d="M2.83948 7.99268C3.44613 7.99282 3.93811 8.47118 3.93811 9.06104V11.1968C3.93811 11.7866 3.44613 12.265 2.83948 12.2651H1.74084C1.13407 12.2651 0.642212 11.7867 0.642212 11.1968V9.06104C0.642212 8.47109 1.13407 7.99268 1.74084 7.99268H2.83948ZM7.96643 5.85596C8.57315 5.85602 9.06506 6.33441 9.06506 6.92432V11.1968C9.06499 11.7866 8.57311 12.2651 7.96643 12.2651H6.8678C6.26107 12.2651 5.76924 11.7867 5.76917 11.1968V6.92432C5.76917 6.33438 6.26102 5.85596 6.8678 5.85596H7.96643ZM13.0934 3.36279C13.7001 3.36279 14.1919 3.84134 14.192 4.43115V11.1968C14.1919 11.7866 13.7001 12.2651 13.0934 12.2651H11.9948C11.388 12.2651 10.8962 11.7866 10.8961 11.1968V4.43115C10.8963 3.84134 11.3881 3.36279 11.9948 3.36279H13.0934ZM18.2203 0.871582C18.8271 0.871582 19.319 1.35 19.319 1.93994V11.1968C19.319 11.7867 18.8271 12.2651 18.2203 12.2651H17.1217C16.515 12.2651 16.0231 11.7867 16.0231 11.1968V1.93994C16.0231 1.35005 16.515 0.871655 17.1217 0.871582H18.2203Z" fill="black"/>
</svg>
