<svg width="56" height="56" viewBox="0 0 56 56" fill="none" xmlns="http://www.w3.org/2000/svg">
<rect x="0.5" y="0.5" width="55" height="55" rx="27.5" fill="#F9FAFB"/>
<rect x="0.5" y="0.5" width="55" height="55" rx="27.5" stroke="#E5E7EB"/>
<path d="M20.3367 32.995H35.6633V31.7093H20.3367V32.995ZM20.3367 28.6429H35.6633V27.3571H20.3367V28.6429ZM20.3367 24.292H31.0556V23.0063H20.3367V24.292ZM18.9751 37C18.4129 37 17.9431 36.802 17.5659 36.406C17.1886 36.01 17 35.5154 17 34.9223V21.0777C17 20.4854 17.1886 19.9913 17.5659 19.5953C17.9431 19.1993 18.4125 19.0009 18.9739 19H37.0261C37.5883 19 38.0577 19.1984 38.4341 19.5953C38.8106 19.9921 38.9992 20.4863 39 21.0777V34.9236C39 35.515 38.8114 36.0091 38.4341 36.406C38.0569 36.8029 37.5875 37.0009 37.0261 37H18.9751ZM18.9751 35.7143H37.0273C37.2147 35.7143 37.3871 35.632 37.5443 35.4674C37.7016 35.3029 37.7798 35.1211 37.779 34.9223V21.0777C37.779 20.8797 37.7008 20.698 37.5443 20.5326C37.3879 20.3671 37.2151 20.2849 37.0261 20.2857H18.9739C18.7865 20.2857 18.6141 20.368 18.4569 20.5326C18.2996 20.6971 18.2214 20.8789 18.2222 21.0777V34.9236C18.2222 35.1207 18.3004 35.302 18.4569 35.4674C18.6133 35.6329 18.7857 35.7151 18.9739 35.7143" fill="black"/>
</svg>
