<svg width="30" height="30" viewBox="0 0 30 30" fill="none" xmlns="http://www.w3.org/2000/svg">
<path d="M8.90936 4.6875C8.96602 4.68701 9.02119 4.70224 9.06952 4.73047L9.11542 4.7627C9.15851 4.79975 9.19045 4.84811 9.20819 4.90137L9.22186 4.95605C9.37964 6.14221 9.65306 7.30968 10.0392 8.44141L10.2131 8.92773L10.215 8.93262C10.2254 8.96035 10.2314 8.98932 10.2336 9.01855L10.2277 9.10742C10.2153 9.16574 10.1866 9.21928 10.1447 9.26172L8.56561 10.8408C7.9129 11.4936 7.7447 12.4796 8.12714 13.3057L8.21112 13.4688C10.1852 16.9405 13.0597 19.815 16.5314 21.7891C17.3874 22.2757 18.4631 22.1308 19.1594 21.4346L20.7385 19.8555C20.7597 19.8345 20.7837 19.8168 20.8098 19.8027L20.8928 19.7725C20.9221 19.7662 20.952 19.7643 20.9816 19.7666L21.0676 19.7852L21.0724 19.7871C22.3548 20.2656 23.6873 20.5979 25.0441 20.7783C25.1009 20.7863 25.1545 20.8099 25.1984 20.8457L25.2394 20.8857C25.289 20.9442 25.3145 21.0191 25.3127 21.0957V24.9092C25.3128 24.9309 25.3102 24.9525 25.3058 24.9736L25.2863 25.0352C25.2689 25.075 25.2432 25.1112 25.2111 25.1406C25.1951 25.1553 25.178 25.1687 25.1594 25.1797L25.0998 25.2061C25.0605 25.2193 25.0191 25.2237 24.9777 25.2207C21.7027 24.8599 18.5489 23.7874 15.7375 22.0791L15.1779 21.7275L15.1603 21.7168L14.6506 21.3818C12.1229 19.6763 9.97194 17.4669 8.33417 14.8896L8.32343 14.873L7.97089 14.3115C6.25526 11.4844 5.18167 8.31185 4.82831 5.01855C4.82723 5.00028 4.82717 4.98198 4.82928 4.96387L4.84393 4.90039C4.85778 4.8593 4.88013 4.82109 4.90936 4.78906C4.92391 4.77318 4.93982 4.7586 4.95721 4.74609L5.01385 4.71387C5.03365 4.70516 5.05433 4.69877 5.07538 4.69434L5.13983 4.6875H8.90936Z" stroke="white" stroke-width="4.375" stroke-linecap="round" stroke-linejoin="round"/>
</svg>
