<svg width="24" height="25" viewBox="0 0 24 25" fill="none" xmlns="http://www.w3.org/2000/svg">
<path d="M13.8407 4.11494C13.8414 4.47918 13.7339 4.83542 13.5318 5.13845C13.3297 5.44147 13.0421 5.67762 12.7056 5.81692C12.369 5.95621 11.9987 5.99236 11.6415 5.92079C11.2844 5.84922 10.9566 5.67316 10.6997 5.41494C10.5289 5.24409 10.3934 5.04127 10.301 4.81807C10.2086 4.59487 10.1611 4.35566 10.1611 4.11408C10.1612 3.87251 10.2088 3.63332 10.3013 3.41015C10.3938 3.18698 10.5293 2.98422 10.7002 2.81344C10.871 2.64265 11.0738 2.50719 11.297 2.41479C11.5202 2.32239 11.7595 2.27485 12.001 2.2749C12.2426 2.27495 12.4818 2.32257 12.705 2.41506C12.9281 2.50755 13.1309 2.64309 13.3017 2.81394C13.6467 3.15894 13.8417 3.62594 13.8417 4.11394M17.4407 5.95294C17.6859 5.95865 17.9297 5.9153 18.1579 5.82543C18.3861 5.73555 18.594 5.60097 18.7694 5.42959C18.9448 5.25821 19.0842 5.05349 19.1794 4.82747C19.2745 4.60145 19.3236 4.35868 19.3236 4.11344C19.3236 3.8682 19.2745 3.62543 19.1794 3.3994C19.0842 3.17338 18.9448 2.96866 18.7694 2.79728C18.594 2.6259 18.3861 2.49132 18.1579 2.40145C17.9297 2.31157 17.6859 2.26822 17.4407 2.27394C16.9527 2.27394 16.4847 2.46779 16.1396 2.81286C15.7945 3.15793 15.6007 3.62594 15.6007 4.11394C15.6007 4.60194 15.7945 5.06995 16.1396 5.41501C16.4847 5.76008 16.9527 5.95294 17.4407 5.95294ZM8.40068 4.11494C8.40141 4.47918 8.2939 4.83542 8.09181 5.13845C7.88971 5.44147 7.60213 5.67762 7.26558 5.81692C6.92902 5.95621 6.55867 5.99236 6.20153 5.92079C5.8444 5.84922 5.51657 5.67316 5.25968 5.41494C5.0889 5.24415 4.95342 5.0414 4.861 4.81826C4.76857 4.59512 4.721 4.35596 4.721 4.11444C4.721 3.87291 4.76857 3.63375 4.861 3.41061C4.95342 3.18747 5.0889 2.98472 5.25968 2.81394C5.43047 2.64315 5.63322 2.50768 5.85636 2.41525C6.0795 2.32282 6.31866 2.27525 6.56018 2.27525C6.80171 2.27525 7.04087 2.32282 7.26401 2.41525C7.48715 2.50768 7.6899 2.64315 7.86068 2.81394C8.20568 3.15894 8.39968 3.62594 8.39968 4.11394M13.8407 9.55094C13.843 9.7956 13.7964 10.0383 13.7037 10.2647C13.611 10.4911 13.4741 10.6968 13.3009 10.8696C13.1278 11.0425 12.9219 11.1791 12.6953 11.2713C12.4687 11.3636 12.2259 11.4097 11.9813 11.407C11.7366 11.4043 11.495 11.3527 11.2705 11.2554C11.046 11.1581 10.8431 11.017 10.6739 10.8404C10.5046 10.6637 10.3723 10.455 10.2847 10.2266C10.1971 9.99812 10.1559 9.75449 10.1637 9.50994C10.1789 9.02897 10.382 8.57312 10.7295 8.24021C11.077 7.9073 11.5411 7.72385 12.0223 7.72921C12.5034 7.73458 12.9634 7.92834 13.3033 8.26891C13.6433 8.60949 13.8362 9.06975 13.8407 9.55094ZM17.4407 11.3899C17.6859 11.3957 17.9297 11.3523 18.1579 11.2624C18.3861 11.1726 18.594 11.038 18.7694 10.8666C18.9448 10.6952 19.0842 10.4905 19.1794 10.2645C19.2745 10.0384 19.3236 9.79568 19.3236 9.55044C19.3236 9.3052 19.2745 9.06243 19.1794 8.8364C19.0842 8.61038 18.9448 8.40566 18.7694 8.23428C18.594 8.0629 18.3861 7.92832 18.1579 7.83845C17.9297 7.74857 17.6859 7.70522 17.4407 7.71094C16.9527 7.71094 16.4847 7.90479 16.1396 8.24986C15.7945 8.59493 15.6007 9.06294 15.6007 9.55094C15.6007 10.0389 15.7945 10.5069 16.1396 10.852C16.4847 11.1971 16.9527 11.3909 17.4407 11.3909M8.40068 9.55094C8.40093 9.91496 8.29314 10.2709 8.09096 10.5736C7.88878 10.8763 7.60131 11.1122 7.26495 11.2514C6.9286 11.3906 6.5585 11.4269 6.20152 11.3556C5.84455 11.2843 5.51676 11.1087 5.25968 10.8509C5.04621 10.6369 4.88878 10.3736 4.80133 10.0843C4.71388 9.79491 4.6991 9.48846 4.75829 9.19204C4.81749 8.89562 4.94885 8.61836 5.14073 8.3848C5.33261 8.15124 5.57911 7.96858 5.85841 7.85299C6.13771 7.73739 6.44119 7.69242 6.74201 7.72206C7.04283 7.7517 7.3317 7.85504 7.58307 8.02292C7.83443 8.19081 8.04054 8.41806 8.18315 8.68458C8.32576 8.9511 8.40047 9.24866 8.40068 9.55094ZM13.8407 14.9889C13.8424 15.2614 13.7835 15.5308 13.6683 15.7777C13.5531 16.0246 13.3845 16.2428 13.1746 16.4165C12.9647 16.5902 12.7188 16.7151 12.4548 16.7821C12.1907 16.8491 11.915 16.8566 11.6477 16.8039C11.3057 16.7371 10.9898 16.5745 10.7366 16.3352C10.4835 16.0958 10.3034 15.7895 10.2175 15.4518C10.1316 15.1142 10.1433 14.7591 10.2513 14.4278C10.3593 14.0966 10.5591 13.8028 10.8275 13.5806C11.096 13.3585 11.4219 13.2171 11.7675 13.173C12.1131 13.1288 12.4642 13.1837 12.7798 13.3312C13.0954 13.4787 13.3627 13.7128 13.5505 14.0063C13.7383 14.2998 13.8389 14.6405 13.8407 14.9889ZM13.8407 20.4349C13.8411 20.7072 13.781 20.9761 13.6648 21.2222C13.5487 21.4684 13.3792 21.6857 13.1688 21.8584C12.9584 22.0311 12.7123 22.155 12.4482 22.2209C12.1841 22.2869 11.9086 22.2934 11.6417 22.2399C11.2852 22.1686 10.9578 21.9933 10.7009 21.736C10.4439 21.4788 10.2689 21.1513 10.198 20.7947C10.1271 20.4381 10.1634 20.0685 10.3023 19.7325C10.4413 19.3965 10.6766 19.1093 10.9787 18.9069C11.2557 18.7219 11.5777 18.6156 11.9104 18.5992C12.243 18.5829 12.5739 18.6571 12.8677 18.8141C13.1615 18.971 13.4072 19.2048 13.5785 19.4904C13.7499 19.7761 13.8405 20.1019 13.8407 20.4349ZM19.2807 14.9889C19.2824 15.2614 19.2235 15.5308 19.1083 15.7777C18.9931 16.0246 18.8245 16.2428 18.6146 16.4165C18.4047 16.5902 18.1588 16.7151 17.8948 16.7821C17.6307 16.8491 17.355 16.8566 17.0877 16.8039C16.8204 16.7517 16.5681 16.6407 16.349 16.4792C16.1298 16.3176 15.9492 16.1094 15.8202 15.8695C15.6913 15.6297 15.6172 15.3642 15.6032 15.0923C15.5893 14.8203 15.6359 14.5487 15.7397 14.2969C15.9018 13.9039 16.1949 13.5792 16.5694 13.3778C16.9438 13.1765 17.3764 13.1111 17.7936 13.1926C18.2108 13.2741 18.587 13.4976 18.8581 13.8251C19.1292 14.1526 19.2785 14.5638 19.2807 14.9889ZM8.40068 14.9889C8.4034 15.3535 8.29762 15.7107 8.09679 16.015C7.89596 16.3194 7.60915 16.5571 7.27284 16.6979C6.93653 16.8388 6.56593 16.8765 6.20816 16.8061C5.85039 16.7358 5.52163 16.5606 5.26368 16.3029C5.04915 16.0897 4.89048 15.8269 4.80172 15.5378C4.71296 15.2487 4.69684 14.9421 4.7548 14.6452C4.81275 14.3484 4.94299 14.0704 5.13399 13.8359C5.32499 13.6014 5.57085 13.4175 5.84982 13.3007C6.1288 13.1838 6.43227 13.1376 6.73339 13.1659C7.03451 13.1943 7.32399 13.2965 7.57621 13.4634C7.82843 13.6304 8.03561 13.8569 8.17942 14.123C8.32323 14.3891 8.39922 14.6865 8.40068 14.9889Z" fill="white"/>
</svg>
