<svg width="42" height="42" viewBox="0 0 42 42" fill="none" xmlns="http://www.w3.org/2000/svg">
<path d="M20.9125 31.5C21.525 31.5 22.043 31.2882 22.4665 30.8647C22.89 30.4412 23.1012 29.9238 23.1 29.3125C23.0988 28.7012 22.8877 28.1832 22.4665 27.7585C22.0453 27.3338 21.5273 27.1227 20.9125 27.125C20.2977 27.1273 19.7803 27.3391 19.3603 27.7603C18.9403 28.1814 18.7285 28.6988 18.725 29.3125C18.7215 29.9262 18.9333 30.4442 19.3603 30.8665C19.7873 31.2888 20.3047 31.5 20.9125 31.5ZM21 38.5C18.5792 38.5 16.3042 38.0403 14.175 37.121C12.0458 36.2017 10.1938 34.9551 8.61875 33.3813C7.04375 31.8074 5.79717 29.9553 4.879 27.825C3.96084 25.6947 3.50117 23.4197 3.5 21C3.49884 18.5803 3.9585 16.3053 4.879 14.175C5.7995 12.0447 7.04609 10.1926 8.61875 8.61875C10.1914 7.04492 12.0435 5.79833 14.175 4.879C16.3065 3.95967 18.5815 3.5 21 3.5C23.4185 3.5 25.6935 3.95967 27.825 4.879C29.9565 5.79833 31.8086 7.04492 33.3813 8.61875C34.9539 10.1926 36.2011 12.0447 37.1228 14.175C38.0444 16.3053 38.5035 18.5803 38.5 21C38.4965 23.4197 38.0368 25.6947 37.121 27.825C36.2052 29.9553 34.9586 31.8074 33.3813 33.3813C31.8039 34.9551 29.9518 36.2023 27.825 37.1227C25.6982 38.0433 23.4232 38.5023 21 38.5ZM21.175 13.475C21.9042 13.475 22.5388 13.7083 23.079 14.175C23.6192 14.6417 23.8887 15.225 23.8875 15.925C23.8875 16.5667 23.6909 17.1354 23.2978 17.6313C22.9046 18.1271 22.4595 18.5938 21.9625 19.0313C21.2917 19.6146 20.7013 20.2563 20.1915 20.9563C19.6817 21.6563 19.4262 22.4438 19.425 23.3188C19.425 23.7271 19.5784 24.0701 19.8853 24.3478C20.1921 24.6254 20.5491 24.7637 20.9563 24.7625C21.3938 24.7625 21.7659 24.6167 22.0728 24.325C22.3796 24.0333 22.5762 23.6688 22.6625 23.2313C22.7792 22.6188 23.0417 22.0722 23.45 21.5915C23.8583 21.1108 24.2958 20.6512 24.7625 20.2125C25.4333 19.5708 26.0097 18.8708 26.4915 18.1125C26.9733 17.3542 27.2137 16.5083 27.2125 15.575C27.2125 14.0875 26.6076 12.8701 25.3978 11.9228C24.1879 10.9754 22.7803 10.5012 21.175 10.5C20.0667 10.5 19.0097 10.7333 18.004 11.2C16.9983 11.6667 16.2324 12.3813 15.7063 13.3438C15.5021 13.6938 15.4368 14.0659 15.5103 14.4602C15.5838 14.8546 15.7803 15.1532 16.1 15.3562C16.5083 15.5896 16.9313 15.6625 17.3688 15.575C17.8063 15.4875 18.1708 15.2396 18.4625 14.8313C18.7833 14.3938 19.1847 14.0583 19.6665 13.825C20.1483 13.5917 20.6512 13.475 21.175 13.475Z" fill="#117EC6"/>
</svg>
