<svg width="32" height="15" viewBox="0 0 32 15" fill="none" xmlns="http://www.w3.org/2000/svg">
<path d="M3.776 11.4353L1.47348 8.89489C1.25877 8.65992 1.0955 8.38271 0.994123 8.08099C0.892751 7.77928 0.855512 7.45971 0.884788 7.14277C0.914063 6.82583 1.00921 6.5185 1.16414 6.24046C1.31906 5.96242 1.53035 5.7198 1.78446 5.52814C4.6468 3.44952 7.95681 2.0713 11.4485 1.5042C14.6729 0.949873 17.9798 1.11228 21.1343 1.97989C24.5677 2.89189 27.7379 4.59982 30.3882 6.96532C30.6216 7.18031 30.8077 7.44154 30.9346 7.73238C31.0616 8.02322 31.1265 8.3373 31.1254 8.65462C31.1243 8.97195 31.0571 9.28556 30.9281 9.5755C30.7991 9.86543 30.6112 10.1253 30.3763 10.3387L27.8359 12.6412C27.4286 13.0177 26.8983 13.2333 26.3439 13.2477C25.7894 13.2622 25.2486 13.0745 24.8222 12.7197C23.9782 12.0039 23.0558 11.3859 22.0728 10.8775C21.6841 10.6777 21.3609 10.3706 21.1414 9.99274C20.922 9.61486 20.8154 9.18198 20.8344 8.74539L20.9351 6.69523C17.8081 5.66784 14.4619 5.5035 11.2493 6.21953L11.1486 8.26969C11.1247 8.70604 10.9763 9.1264 10.7208 9.48096C10.4653 9.83551 10.1136 10.1094 9.70726 10.2702C8.67915 10.6798 7.70068 11.2045 6.79052 11.8341C6.32658 12.1489 5.76312 12.2822 5.20731 12.2087C4.6515 12.1351 4.1421 11.8599 3.776 11.4353Z" fill="white" stroke="white" stroke-width="1.71429" stroke-linecap="round" stroke-linejoin="round"/>
</svg>
