<svg width="22" height="18" viewBox="0 0 22 18" fill="none" xmlns="http://www.w3.org/2000/svg">
<path d="M3.33667 13.995H18.6633V12.7093H3.33667V13.995ZM3.33667 9.64286H18.6633V8.35714H3.33667V9.64286ZM3.33667 5.292H14.0556V4.00629H3.33667V5.292ZM1.97511 18C1.41289 18 0.943148 17.802 0.565889 17.406C0.18863 17.01 0 16.5154 0 15.9223V2.07771C0 1.48543 0.18863 0.991285 0.565889 0.595285C0.943148 0.199285 1.41248 0.000857143 1.97389 0H20.0261C20.5883 0 21.0577 0.198428 21.4341 0.595285C21.8106 0.992143 21.9992 1.48629 22 2.07771V15.9236C22 16.515 21.8114 17.0091 21.4341 17.406C21.0569 17.8029 20.5875 18.0009 20.0261 18H1.97511ZM1.97511 16.7143H20.0273C20.2147 16.7143 20.3871 16.632 20.5443 16.4674C20.7016 16.3029 20.7798 16.1211 20.779 15.9223V2.07771C20.779 1.87971 20.7008 1.698 20.5443 1.53257C20.3879 1.36714 20.2151 1.28486 20.0261 1.28571H1.97389C1.78648 1.28571 1.61415 1.368 1.45689 1.53257C1.29963 1.69714 1.22141 1.87886 1.22222 2.07771V15.9236C1.22222 16.1207 1.30044 16.302 1.45689 16.4674C1.61333 16.6329 1.78567 16.7151 1.97389 16.7143" fill="black"/>
</svg>
