<svg width="18" height="13" viewBox="0 0 18 13" fill="none" xmlns="http://www.w3.org/2000/svg">
<path d="M6.80457 9.48525C8.20598 8.33282 10.2586 8.33286 11.66 9.48525C11.7305 9.54724 11.7714 9.63503 11.7733 9.72744C11.7752 9.81968 11.7385 9.90885 11.6708 9.97353L9.47645 12.1269C9.41212 12.1901 9.32382 12.2255 9.23231 12.2255C9.14097 12.2255 9.05342 12.1899 8.98914 12.1269L6.79383 9.97353C6.72617 9.90882 6.68936 9.81969 6.69129 9.72744C6.6933 9.63506 6.73406 9.54719 6.80457 9.48525ZM3.87684 6.61318C6.89616 3.88266 11.5714 3.88265 14.5907 6.61318C14.6589 6.67721 14.6981 6.76517 14.6991 6.85732C14.7 6.94933 14.6632 7.0381 14.5966 7.10341L13.328 8.34951C13.1973 8.47676 12.9856 8.47925 12.8514 8.35537C11.86 7.48252 10.5699 6.99884 9.23231 6.99892C7.89571 6.9995 6.60689 7.48314 5.6161 8.35537C5.48199 8.47925 5.27026 8.47676 5.13953 8.34951L3.87196 7.10341C3.80503 7.03816 3.76757 6.94946 3.76844 6.85732C3.76934 6.76514 3.80864 6.67721 3.87684 6.61318ZM0.948128 3.74892C5.57911 -0.566049 12.8845 -0.566044 17.5155 3.74892C17.5825 3.81296 17.6213 3.8998 17.622 3.99111C17.6225 4.08252 17.5847 4.17039 17.5184 4.23525L16.2489 5.48134C16.1181 5.60923 15.9052 5.61116 15.7723 5.48525C14.008 3.85449 11.6667 2.94531 9.23231 2.94521C6.79759 2.94522 4.45589 3.85428 2.69129 5.48525C2.55851 5.61135 2.3455 5.60942 2.21473 5.48134L0.945198 4.23525C0.878988 4.17034 0.84204 4.08252 0.842659 3.99111C0.843339 3.89987 0.88123 3.81291 0.948128 3.74892Z" fill="black"/>
</svg>
